Interstate_Pi-One.ufo
<glyph name="exclam" format="1">
  <advance width="1000"/>
  <unicode hex="0021"/>
  <outline>
    <contour>
      <point x="987" y="200" type="line" smooth="yes"/>
      <point x="987" y="169"/>
      <point x="968" y="149"/>
      <point x="935" y="149" type="curve" smooth="yes"/>
      <point x="65" y="149" type="line" smooth="yes"/>
      <point x="32" y="149"/>
      <point x="13" y="169"/>
      <point x="13" y="200" type="curve" smooth="yes"/>
      <point x="13" y="800" type="line" smooth="yes"/>
      <point x="13" y="831"/>
      <point x="32" y="851"/>
      <point x="65" y="851" type="curve" smooth="yes"/>
      <point x="935" y="851" type="line" smooth="yes"/>
      <point x="968" y="851"/>
      <point x="987" y="831"/>
      <point x="987" y="800" type="curve" smooth="yes"/>
    </contour>
    <contour>
      <point x="984" y="200" type="curve" smooth="yes"/>
      <point x="984" y="800" type="line" smooth="yes"/>
      <point x="984" y="830"/>
      <point x="966" y="848"/>
      <point x="935" y="848" type="curve" smooth="yes"/>
      <point x="65" y="848" type="line" smooth="yes"/>
      <point x="34" y="848"/>
      <point x="16" y="830"/>
      <point x="16" y="800" type="curve" smooth="yes"/>
      <point x="16" y="200" type="line" smooth="yes"/>
      <point x="16" y="170"/>
      <point x="34" y="152"/>
      <point x="65" y="152" type="curve" smooth="yes"/>
      <point x="935" y="152" type="line" smooth="yes"/>
      <point x="966" y="152"/>
      <point x="984" y="170"/>
    </contour>
    <contour>
      <point x="965" y="200" type="line" smooth="yes"/>
      <point x="965" y="182"/>
      <point x="953" y="171"/>
      <point x="935" y="171" type="curve" smooth="yes"/>
      <point x="65" y="171" type="line" smooth="yes"/>
      <point x="47" y="171"/>
      <point x="35" y="182"/>
      <point x="35" y="200" type="curve" smooth="yes"/>
      <point x="35" y="800" type="line" smooth="yes"/>
      <point x="35" y="818"/>
      <point x="47" y="829"/>
      <point x="65" y="829" type="curve" smooth="yes"/>
      <point x="935" y="829" type="line" smooth="yes"/>
      <point x="953" y="829"/>
      <point x="965" y="818"/>
      <point x="965" y="800" type="curve" smooth="yes"/>
    </contour>
    <contour>
      <point x="945" y="200" type="curve" smooth="yes"/>
      <point x="945" y="800" type="line" smooth="yes"/>
      <point x="945" y="806"/>
      <point x="941" y="809"/>
      <point x="935" y="809" type="curve" smooth="yes"/>
      <point x="65" y="809" type="line" smooth="yes"/>
      <point x="59" y="809"/>
      <point x="55" y="806"/>
      <point x="55" y="800" type="curve" smooth="yes"/>
      <point x="55" y="200" type="line" smooth="yes"/>
      <point x="55" y="194"/>
      <point x="59" y="191"/>
      <point x="65" y="191" type="curve" smooth="yes"/>
      <point x="935" y="191" type="line" smooth="yes"/>
      <point x="941" y="191"/>
      <point x="945" y="194"/>
    </contour>
    <contour>
      <point x="850" y="502" type="line"/>
      <point x="623" y="344" type="line" smooth="yes"/>
      <point x="611" y="335"/>
      <point x="598" y="335"/>
      <point x="590" y="341" type="curve" smooth="yes"/>
      <point x="580" y="348"/>
      <point x="575" y="360"/>
      <point x="580" y="374" type="curve" smooth="yes"/>
      <point x="601" y="439" type="line"/>
      <point x="399" y="439" type="line"/>
      <point x="420" y="374" type="line" smooth="yes"/>
      <point x="425" y="360"/>
      <point x="420" y="348"/>
      <point x="410" y="341" type="curve" smooth="yes"/>
      <point x="402" y="335"/>
      <point x="389" y="335"/>
      <point x="377" y="344" type="curve" smooth="yes"/>
      <point x="150" y="502" type="line"/>
      <point x="377" y="660" type="line" smooth="yes"/>
      <point x="389" y="669"/>
      <point x="402" y="669"/>
      <point x="410" y="663" type="curve" smooth="yes"/>
      <point x="420" y="656"/>
      <point x="425" y="644"/>
      <point x="420" y="630" type="curve" smooth="yes"/>
      <point x="399" y="565" type="line"/>
      <point x="601" y="565" type="line"/>
      <point x="580" y="630" type="line" smooth="yes"/>
      <point x="575" y="644"/>
      <point x="580" y="656"/>
      <point x="590" y="663" type="curve" smooth="yes"/>
      <point x="598" y="669"/>
      <point x="611" y="669"/>
      <point x="623" y="660" type="curve" smooth="yes"/>
    </contour>
  </outline>
</glyph>
<glyph name="quotedbl" format="1">
  <advance width="1000"/>
  <unicode hex="0022"/>
  <outline>
    <contour>
      <point x="987" y="64" type="line" smooth="yes"/>
      <point x="987" y="33"/>
      <point x="968" y="13"/>
      <point x="935" y="13" type="curve" smooth="yes"/>
      <point x="65" y="13" type="line" smooth="yes"/>
      <point x="32" y="13"/>
      <point x="13" y="33"/>
      <point x="13" y="64" type="curve" smooth="yes"/>
      <point x="13" y="936" type="line" smooth="yes"/>
      <point x="13" y="967"/>
      <point x="32" y="987"/>
      <point x="65" y="987" type="curve" smooth="yes"/>
      <point x="935" y="987" type="line" smooth="yes"/>
      <point x="968" y="987"/>
      <point x="987" y="967"/>
      <point x="987" y="936" type="curve" smooth="yes"/>
    </contour>
    <contour>
      <point x="984" y="64" type="curve" smooth="yes"/>
      <point x="984" y="936" type="line" smooth="yes"/>
      <point x="984" y="966"/>
      <point x="966" y="984"/>
      <point x="935" y="984" type="curve" smooth="yes"/>
      <point x="65" y="984" type="line" smooth="yes"/>
      <point x="34" y="984"/>
      <point x="16" y="966"/>
      <point x="16" y="936" type="curve" smooth="yes"/>
      <point x="16" y="64" type="line" smooth="yes"/>
      <point x="16" y="34"/>
      <point x="34" y="16"/>
      <point x="65" y="16" type="curve" smooth="yes"/>
      <point x="935" y="16" type="line" smooth="yes"/>
      <point x="966" y="16"/>
      <point x="984" y="34"/>
    </contour>
    <contour>
      <point x="965" y="64" type="line" smooth="yes"/>
      <point x="965" y="46"/>
      <point x="953" y="35"/>
      <point x="935" y="35" type="curve" smooth="yes"/>
      <point x="65" y="35" type="line" smooth="yes"/>
      <point x="47" y="35"/>
      <point x="35" y="46"/>
      <point x="35" y="64" type="curve" smooth="yes"/>
      <point x="35" y="936" type="line" smooth="yes"/>
      <point x="35" y="954"/>
      <point x="47" y="965"/>
      <point x="65" y="965" type="curve" smooth="yes"/>
      <point x="935" y="965" type="line" smooth="yes"/>
      <point x="953" y="965"/>
      <point x="965" y="954"/>
      <point x="965" y="936" type="curve" smooth="yes"/>
    </contour>
    <contour>
      <point x="945" y="64" type="curve" smooth="yes"/>
      <point x="945" y="936" type="line" smooth="yes"/>
      <point x="945" y="942"/>
      <point x="941" y="945"/>
      <point x="935" y="945" type="curve" smooth="yes"/>
      <point x="65" y="945" type="line" smooth="yes"/>
      <point x="59" y="945"/>
      <point x="55" y="942"/>
      <point x="55" y="936" type="curve" smooth="yes"/>
      <point x="55" y="64" type="line" smooth="yes"/>
      <point x="55" y="58"/>
      <point x="59" y="55"/>
      <point x="65" y="55" type="curve" smooth="yes"/>
      <point x="935" y="55" type="line" smooth="yes"/>
      <point x="941" y="55"/>
      <point x="945" y="58"/>
    </contour>
    <contour>
      <point x="889" y="708" type="line"/>
      <point x="826" y="708" type="line"/>
      <point x="826" y="837" type="line"/>
      <point x="886" y="837" type="line"/>
      <point x="886" y="820" type="line"/>
      <point x="844" y="820" type="line"/>
      <point x="844" y="785" type="line"/>
      <point x="872" y="785" type="line"/>
      <point x="872" y="768" type="line"/>
      <point x="844" y="768" type="line"/>
      <point x="844" y="726" type="line"/>
      <point x="889" y="726" type="line"/>
    </contour>
    <contour>
      <point x="798" y="708" type="line"/>
      <point x="783" y="708" type="line"/>
      <point x="743" y="798" type="line"/>
      <point x="743" y="708" type="line"/>
      <point x="726" y="708" type="line"/>
      <point x="726" y="837" type="line"/>
      <point x="744" y="837" type="line"/>
      <point x="780" y="754" type="line"/>
      <point x="780" y="837" type="line"/>
      <point x="798" y="837" type="line"/>
    </contour>
    <contour>
      <point x="705" y="708" type="line"/>
      <point x="686" y="708" type="line"/>
      <point x="678" y="742" type="line"/>
      <point x="650" y="742" type="line"/>
      <point x="643" y="708" type="line"/>
      <point x="623" y="708" type="line"/>
      <point x="655" y="837" type="line"/>
      <point x="674" y="837" type="line"/>
    </contour>
    <contour>
      <point x="607" y="708" type="line"/>
      <point x="547" y="708" type="line"/>
      <point x="547" y="837" type="line"/>
      <point x="565" y="837" type="line"/>
      <point x="565" y="726" type="line"/>
      <point x="607" y="726" type="line"/>
    </contour>
    <contour>
      <point x="499" y="819" type="line"/>
      <point x="475" y="819" type="line"/>
      <point x="475" y="707" type="line"/>
      <point x="457" y="707" type="line"/>
      <point x="457" y="819" type="line"/>
      <point x="433" y="819" type="line"/>
      <point x="433" y="837" type="line"/>
      <point x="499" y="837" type="line"/>
    </contour>
    <contour>
      <point x="413" y="707" type="line"/>
      <point x="395" y="707" type="line"/>
      <point x="395" y="767" type="line"/>
      <point x="359" y="767" type="line"/>
      <point x="359" y="707" type="line"/>
      <point x="341" y="707" type="line"/>
      <point x="341" y="837" type="line"/>
      <point x="359" y="837" type="line"/>
      <point x="359" y="785" type="line"/>
      <point x="395" y="785" type="line"/>
      <point x="395" y="837" type="line"/>
      <point x="413" y="837" type="line"/>
    </contour>
    <contour>
      <point x="321" y="745" type="line" smooth="yes"/>
      <point x="321" y="723"/>
      <point x="310" y="705"/>
      <point x="284" y="705" type="curve" smooth="yes"/>
      <point x="257" y="705"/>
      <point x="245" y="735"/>
      <point x="245" y="772" type="curve" smooth="yes"/>
      <point x="245" y="811"/>
      <point x="258" y="839"/>
      <point x="285" y="839" type="curve" smooth="yes"/>
      <point x="306" y="839"/>
      <point x="316" y="827"/>
      <point x="319" y="807" type="curve"/>
      <point x="301" y="802" type="line"/>
      <point x="298" y="816"/>
      <point x="293" y="821"/>
      <point x="284" y="821" type="curve" smooth="yes"/>
      <point x="270" y="821"/>
      <point x="264" y="800"/>
      <point x="264" y="772" type="curve" smooth="yes"/>
      <point x="264" y="750"/>
      <point x="269" y="724"/>
      <point x="286" y="724" type="curve" smooth="yes"/>
      <point x="298" y="724"/>
      <point x="302" y="731"/>
      <point x="302" y="747" type="curve" smooth="yes"/>
      <point x="302" y="756" type="line"/>
      <point x="288" y="756" type="line"/>
      <point x="288" y="774" type="line"/>
      <point x="321" y="774" type="line"/>
    </contour>
    <contour>
      <point x="226" y="707" type="line"/>
      <point x="208" y="707" type="line"/>
      <point x="208" y="837" type="line"/>
      <point x="226" y="837" type="line"/>
    </contour>
    <contour>
      <point x="184" y="707" type="line"/>
      <point x="163" y="707" type="line"/>
      <point x="143" y="764" type="line"/>
      <point x="129" y="764" type="line"/>
      <point x="129" y="707" type="line"/>
      <point x="111" y="707" type="line"/>
      <point x="111" y="837" type="line"/>
      <point x="147" y="837" type="line" smooth="yes"/>
      <point x="166" y="837"/>
      <point x="183" y="826"/>
      <point x="183" y="801" type="curve" smooth="yes"/>
      <point x="183" y="782"/>
      <point x="175" y="772"/>
      <point x="163" y="767" type="curve"/>
    </contour>
    <contour>
      <point x="722" y="552" type="line"/>
      <point x="692" y="552" type="line"/>
      <point x="692" y="413" type="line"/>
      <point x="670" y="413" type="line"/>
      <point x="670" y="552" type="line"/>
      <point x="640" y="552" type="line"/>
      <point x="640" y="574" type="line"/>
      <point x="722" y="574" type="line"/>
    </contour>
    <contour>
      <point x="619" y="455" type="curve" smooth="yes"/>
      <point x="619" y="429"/>
      <point x="604" y="410"/>
      <point x="575" y="410" type="curve" smooth="yes"/>
      <point x="555" y="410"/>
      <point x="542" y="421"/>
      <point x="533" y="437" type="curve"/>
      <point x="550" y="451" type="line"/>
      <point x="559" y="437"/>
      <point x="567" y="433"/>
      <point x="576" y="433" type="curve" smooth="yes"/>
      <point x="589" y="433"/>
      <point x="596" y="440"/>
      <point x="596" y="453" type="curve" smooth="yes"/>
      <point x="596" y="466"/>
      <point x="590" y="473"/>
      <point x="569" y="487" type="curve" smooth="yes"/>
      <point x="551" y="499"/>
      <point x="536" y="511"/>
      <point x="536" y="536" type="curve" smooth="yes"/>
      <point x="536" y="560"/>
      <point x="552" y="576"/>
      <point x="577" y="576" type="curve" smooth="yes"/>
      <point x="596" y="576"/>
      <point x="607" y="569"/>
      <point x="616" y="555" type="curve"/>
      <point x="600" y="540" type="line"/>
      <point x="592" y="550"/>
      <point x="587" y="554"/>
      <point x="576" y="554" type="curve" smooth="yes"/>
      <point x="566" y="554"/>
      <point x="560" y="547"/>
      <point x="560" y="537" type="curve" smooth="yes"/>
      <point x="560" y="525"/>
      <point x="565" y="518"/>
      <point x="583" y="507" type="curve" smooth="yes"/>
      <point x="603" y="494"/>
      <point x="619" y="481"/>
    </contour>
    <contour>
      <point x="504" y="461" type="line" smooth="yes"/>
      <point x="504" y="430"/>
      <point x="487" y="411"/>
      <point x="459" y="411" type="curve" smooth="yes"/>
      <point x="432" y="411"/>
      <point x="414" y="430"/>
      <point x="414" y="460" type="curve" smooth="yes"/>
      <point x="414" y="574" type="line"/>
      <point x="436" y="574" type="line"/>
      <point x="436" y="461" type="line" smooth="yes"/>
      <point x="436" y="447"/>
      <point x="442" y="433"/>
      <point x="459" y="433" type="curve" smooth="yes"/>
      <point x="477" y="433"/>
      <point x="482" y="448"/>
      <point x="482" y="460" type="curve" smooth="yes"/>
      <point x="482" y="574" type="line"/>
      <point x="504" y="574" type="line"/>
    </contour>
    <contour>
      <point x="380" y="413" type="line"/>
      <point x="357" y="413" type="line"/>
      <point x="357" y="518" type="line"/>
      <point x="325" y="409" type="line"/>
      <point x="292" y="518" type="line"/>
      <point x="292" y="413" type="line"/>
      <point x="271" y="413" type="line"/>
      <point x="271" y="574" type="line"/>
      <point x="295" y="574" type="line"/>
      <point x="325" y="472" type="line"/>
      <point x="356" y="574" type="line"/>
      <point x="380" y="574" type="line"/>
    </contour>
    <contour>
      <point x="908" y="267" type="line"/>
      <point x="884" y="267" type="line"/>
      <point x="884" y="155" type="line"/>
      <point x="866" y="155" type="line"/>
      <point x="866" y="267" type="line"/>
      <point x="842" y="267" type="line"/>
      <point x="842" y="285" type="line"/>
      <point x="908" y="285" type="line"/>
    </contour>
    <contour>
      <point x="726" y="193" type="line" smooth="yes"/>
      <point x="726" y="171"/>
      <point x="715" y="153"/>
      <point x="689" y="153" type="curve" smooth="yes"/>
      <point x="662" y="153"/>
      <point x="650" y="183"/>
      <point x="650" y="220" type="curve" smooth="yes"/>
      <point x="650" y="259"/>
      <point x="663" y="287"/>
      <point x="690" y="287" type="curve" smooth="yes"/>
      <point x="711" y="287"/>
      <point x="721" y="275"/>
      <point x="724" y="255" type="curve"/>
      <point x="706" y="250" type="line"/>
      <point x="703" y="264"/>
      <point x="698" y="269"/>
      <point x="689" y="269" type="curve" smooth="yes"/>
      <point x="675" y="269"/>
      <point x="669" y="248"/>
      <point x="669" y="220" type="curve" smooth="yes"/>
      <point x="669" y="198"/>
      <point x="674" y="172"/>
      <point x="691" y="172" type="curve" smooth="yes"/>
      <point x="703" y="172"/>
      <point x="707" y="179"/>
      <point x="707" y="195" type="curve" smooth="yes"/>
      <point x="707" y="204" type="line"/>
      <point x="693" y="204" type="line"/>
      <point x="693" y="222" type="line"/>
      <point x="726" y="222" type="line"/>
    </contour>
    <contour>
      <point x="624" y="155" type="line"/>
      <point x="606" y="155" type="line"/>
      <point x="606" y="285" type="line"/>
      <point x="624" y="285" type="line"/>
    </contour>
    <contour>
      <point x="578" y="155" type="line"/>
      <point x="557" y="155" type="line"/>
      <point x="537" y="212" type="line"/>
      <point x="523" y="212" type="line"/>
      <point x="523" y="155" type="line"/>
      <point x="505" y="155" type="line"/>
      <point x="505" y="285" type="line"/>
      <point x="541" y="285" type="line" smooth="yes"/>
      <point x="560" y="285"/>
      <point x="577" y="274"/>
      <point x="577" y="249" type="curve" smooth="yes"/>
      <point x="577" y="230"/>
      <point x="569" y="220"/>
      <point x="557" y="215" type="curve"/>
    </contour>
    <contour>
      <point x="441" y="155" type="line"/>
      <point x="426" y="155" type="line"/>
      <point x="386" y="246" type="line"/>
      <point x="386" y="155" type="line"/>
      <point x="369" y="155" type="line"/>
      <point x="369" y="285" type="line"/>
      <point x="387" y="285" type="line"/>
      <point x="423" y="201" type="line"/>
      <point x="423" y="285" type="line"/>
      <point x="441" y="285" type="line"/>
    </contour>
    <contour>
      <point x="346" y="155" type="line"/>
      <point x="325" y="155" type="line"/>
      <point x="305" y="212" type="line"/>
      <point x="291" y="212" type="line"/>
      <point x="291" y="155" type="line"/>
      <point x="273" y="155" type="line"/>
      <point x="273" y="285" type="line"/>
      <point x="309" y="285" type="line" smooth="yes"/>
      <point x="328" y="285"/>
      <point x="345" y="274"/>
      <point x="345" y="249" type="curve" smooth="yes"/>
      <point x="345" y="230"/>
      <point x="337" y="220"/>
      <point x="325" y="215" type="curve"/>
    </contour>
    <contour>
      <point x="162" y="267" type="line"/>
      <point x="138" y="267" type="line"/>
      <point x="138" y="155" type="line"/>
      <point x="120" y="155" type="line"/>
      <point x="120" y="267" type="line"/>
      <point x="96" y="267" type="line"/>
      <point x="96" y="285" type="line"/>
      <point x="162" y="285" type="line"/>
    </contour>
    <contour>
      <point x="824" y="155" type="line"/>
      <point x="806" y="155" type="line"/>
      <point x="806" y="215" type="line"/>
      <point x="770" y="215" type="line"/>
      <point x="770" y="155" type="line"/>
      <point x="752" y="155" type="line"/>
      <point x="752" y="284" type="line"/>
      <point x="770" y="284" type="line"/>
      <point x="770" y="233" type="line"/>
      <point x="806" y="233" type="line"/>
      <point x="806" y="284" type="line"/>
      <point x="824" y="284" type="line"/>
    </contour>
    <contour>
      <point x="251" y="194" type="line" smooth="yes"/>
      <point x="251" y="169"/>
      <point x="237" y="154"/>
      <point x="215" y="154" type="curve" smooth="yes"/>
      <point x="194" y="154"/>
      <point x="179" y="170"/>
      <point x="179" y="193" type="curve" smooth="yes"/>
      <point x="179" y="285" type="line"/>
      <point x="197" y="285" type="line"/>
      <point x="197" y="194" type="line" smooth="yes"/>
      <point x="197" y="183"/>
      <point x="201" y="172"/>
      <point x="215" y="172" type="curve" smooth="yes"/>
      <point x="229" y="172"/>
      <point x="233" y="184"/>
      <point x="233" y="194" type="curve" smooth="yes"/>
      <point x="233" y="285" type="line"/>
      <point x="251" y="285" type="line"/>
    </contour>
    <contour>
      <point x="165" y="800" type="curve" smooth="yes"/>
      <point x="165" y="814"/>
      <point x="157" y="819"/>
      <point x="146" y="819" type="curve" smooth="yes"/>
      <point x="129" y="819" type="line"/>
      <point x="129" y="781" type="line"/>
      <point x="146" y="781" type="line" smooth="yes"/>
      <point x="157" y="781"/>
      <point x="165" y="787"/>
    </contour>
    <contour>
      <point x="674" y="759" type="line"/>
      <point x="664" y="810" type="line"/>
      <point x="654" y="759" type="line"/>
    </contour>
    <contour>
      <point x="559" y="248" type="curve" smooth="yes"/>
      <point x="559" y="262"/>
      <point x="551" y="267"/>
      <point x="540" y="267" type="curve" smooth="yes"/>
      <point x="523" y="267" type="line"/>
      <point x="523" y="229" type="line"/>
      <point x="540" y="229" type="line" smooth="yes"/>
      <point x="551" y="229"/>
      <point x="559" y="235"/>
    </contour>
    <contour>
      <point x="327" y="248" type="curve" smooth="yes"/>
      <point x="327" y="262"/>
      <point x="319" y="267"/>
      <point x="308" y="267" type="curve" smooth="yes"/>
      <point x="291" y="267" type="line"/>
      <point x="291" y="229" type="line"/>
      <point x="308" y="229" type="line" smooth="yes"/>
      <point x="319" y="229"/>
      <point x="327" y="235"/>
    </contour>
  </outline>
</glyph>
<glyph name="numbersign" format="1">
  <advance width="1000"/>
  <unicode hex="0023"/>
  <outline>
    <contour>
      <point x="987" y="200" type="line" smooth="yes"/>
      <point x="987" y="169"/>
      <point x="968" y="149"/>
      <point x="935" y="149" type="curve" smooth="yes"/>
      <point x="65" y="149" type="line" smooth="yes"/>
      <point x="32" y="149"/>
      <point x="13" y="169"/>
      <point x="13" y="200" type="curve" smooth="yes"/>
      <point x="13" y="800" type="line" smooth="yes"/>
      <point x="13" y="831"/>
      <point x="32" y="851"/>
      <point x="65" y="851" type="curve" smooth="yes"/>
      <point x="935" y="851" type="line" smooth="yes"/>
      <point x="968" y="851"/>
      <point x="987" y="831"/>
      <point x="987" y="800" type="curve" smooth="yes"/>
    </contour>
    <contour>
      <point x="984" y="200" type="curve" smooth="yes"/>
      <point x="984" y="800" type="line" smooth="yes"/>
      <point x="984" y="830"/>
      <point x="966" y="848"/>
      <point x="935" y="848" type="curve" smooth="yes"/>
      <point x="65" y="848" type="line" smooth="yes"/>
      <point x="34" y="848"/>
      <point x="16" y="830"/>
      <point x="16" y="800" type="curve" smooth="yes"/>
      <point x="16" y="200" type="line" smooth="yes"/>
      <point x="16" y="170"/>
      <point x="34" y="152"/>
      <point x="65" y="152" type="curve" smooth="yes"/>
      <point x="935" y="152" type="line" smooth="yes"/>
      <point x="966" y="152"/>
      <point x="984" y="170"/>
    </contour>
    <contour>
      <point x="965" y="200" type="line" smooth="yes"/>
      <point x="965" y="182"/>
      <point x="953" y="171"/>
      <point x="935" y="171" type="curve" smooth="yes"/>
      <point x="65" y="171" type="line" smooth="yes"/>
      <point x="47" y="171"/>
      <point x="35" y="182"/>
      <point x="35" y="200" type="curve" smooth="yes"/>
      <point x="35" y="800" type="line" smooth="yes"/>
      <point x="35" y="818"/>
      <point x="47" y="829"/>
      <point x="65" y="829" type="curve" smooth="yes"/>
      <point x="935" y="829" type="line" smooth="yes"/>
      <point x="953" y="829"/>
      <point x="965" y="818"/>
      <point x="965" y="800" type="curve" smooth="yes"/>
    </contour>
    <contour>
      <point x="945" y="200" type="curve" smooth="yes"/>
      <point x="945" y="800" type="line" smooth="yes"/>
      <point x="945" y="806"/>
      <point x="941" y="809"/>
      <point x="935" y="809" type="curve" smooth="yes"/>
      <point x="65" y="809" type="line" smooth="yes"/>
      <point x="59" y="809"/>
      <point x="55" y="806"/>
      <point x="55" y="800" type="curve" smooth="yes"/>
      <point x="55" y="200" type="line" smooth="yes"/>
      <point x="55" y="194"/>
      <point x="59" y="191"/>
      <point x="65" y="191" type="curve" smooth="yes"/>
      <point x="935" y="191" type="line" smooth="yes"/>
      <point x="941" y="191"/>
      <point x="945" y="194"/>
    </contour>
    <contour>
      <point x="758" y="330" type="line"/>
      <point x="669" y="241" type="line"/>
      <point x="378" y="533" type="line"/>
      <point x="347" y="472" type="line" smooth="yes"/>
      <point x="341" y="459"/>
      <point x="328" y="454"/>
      <point x="316" y="456" type="curve" smooth="yes"/>
      <point x="307" y="457"/>
      <point x="298" y="466"/>
      <point x="295" y="481" type="curve" smooth="yes"/>
      <point x="246" y="754" type="line"/>
      <point x="519" y="705" type="line" smooth="yes"/>
      <point x="534" y="702"/>
      <point x="543" y="693"/>
      <point x="544" y="684" type="curve" smooth="yes"/>
      <point x="546" y="672"/>
      <point x="541" y="659"/>
      <point x="528" y="653" type="curve" smooth="yes"/>
      <point x="467" y="622" type="line"/>
    </contour>
  </outline>
</glyph>
<glyph name="dollar" format="1">
  <advance width="1000"/>
  <unicode hex="0024"/>
  <outline>
    <contour>
      <point x="987" y="200" type="line" smooth="yes"/>
      <point x="987" y="169"/>
      <point x="968" y="149"/>
      <point x="935" y="149" type="curve" smooth="yes"/>
      <point x="65" y="149" type="line" smooth="yes"/>
      <point x="32" y="149"/>
      <point x="13" y="169"/>
      <point x="13" y="200" type="curve" smooth="yes"/>
      <point x="13" y="800" type="line" smooth="yes"/>
      <point x="13" y="831"/>
      <point x="32" y="851"/>
      <point x="65" y="851" type="curve" smooth="yes"/>
      <point x="935" y="851" type="line" smooth="yes"/>
      <point x="968" y="851"/>
      <point x="987" y="831"/>
      <point x="987" y="800" type="curve" smooth="yes"/>
    </contour>
    <contour>
      <point x="984" y="200" type="curve" smooth="yes"/>
      <point x="984" y="800" type="line" smooth="yes"/>
      <point x="984" y="830"/>
      <point x="966" y="848"/>
      <point x="935" y="848" type="curve" smooth="yes"/>
      <point x="65" y="848" type="line" smooth="yes"/>
      <point x="34" y="848"/>
      <point x="16" y="830"/>
      <point x="16" y="800" type="curve" smooth="yes"/>
      <point x="16" y="200" type="line" smooth="yes"/>
      <point x="16" y="170"/>
      <point x="34" y="152"/>
      <point x="65" y="152" type="curve" smooth="yes"/>
      <point x="935" y="152" type="line" smooth="yes"/>
      <point x="966" y="152"/>
      <point x="984" y="170"/>
    </contour>
    <contour>
      <point x="965" y="200" type="line" smooth="yes"/>
      <point x="965" y="182"/>
      <point x="953" y="171"/>
      <point x="935" y="171" type="curve" smooth="yes"/>
      <point x="65" y="171" type="line" smooth="yes"/>
      <point x="47" y="171"/>
      <point x="35" y="182"/>
      <point x="35" y="200" type="curve" smooth="yes"/>
      <point x="35" y="800" type="line" smooth="yes"/>
      <point x="35" y="818"/>
      <point x="47" y="829"/>
      <point x="65" y="829" type="curve" smooth="yes"/>
      <point x="935" y="829" type="line" smooth="yes"/>
      <point x="953" y="829"/>
      <point x="965" y="818"/>
      <point x="965" y="800" type="curve" smooth="yes"/>
    </contour>
    <contour>
      <point x="945" y="200" type="curve" smooth="yes"/>
      <point x="945" y="800" type="line" smooth="yes"/>
      <point x="945" y="806"/>
      <point x="941" y="809"/>
      <point x="935" y="809" type="curve" smooth="yes"/>
      <point x="65" y="809" type="line" smooth="yes"/>
      <point x="59" y="809"/>
      <point x="55" y="806"/>
      <point x="55" y="800" type="curve" smooth="yes"/>
      <point x="55" y="200" type="line" smooth="yes"/>
      <point x="55" y="194"/>
      <point x="59" y="191"/>
      <point x="65" y="191" type="curve" smooth="yes"/>
      <point x="935" y="191" type="line" smooth="yes"/>
      <point x="941" y="191"/>
      <point x="945" y="194"/>
    </contour>
    <contour>
      <point x="783" y="221" type="line"/>
      <point x="511" y="269" type="line" smooth="yes"/>
      <point x="496" y="272"/>
      <point x="487" y="281"/>
      <point x="486" y="291" type="curve" smooth="yes"/>
      <point x="484" y="303"/>
      <point x="489" y="314"/>
      <point x="502" y="321" type="curve" smooth="yes"/>
      <point x="563" y="352" type="line"/>
      <point x="353" y="562" type="line"/>
      <point x="322" y="501" type="line" smooth="yes"/>
      <point x="316" y="488"/>
      <point x="304" y="483"/>
      <point x="292" y="485" type="curve" smooth="yes"/>
      <point x="282" y="486"/>
      <point x="273" y="495"/>
      <point x="270" y="510" type="curve" smooth="yes"/>
      <point x="222" y="782" type="line"/>
      <point x="494" y="734" type="line" smooth="yes"/>
      <point x="509" y="731"/>
      <point x="518" y="722"/>
      <point x="519" y="712" type="curve" smooth="yes"/>
      <point x="521" y="700"/>
      <point x="516" y="688"/>
      <point x="503" y="682" type="curve" smooth="yes"/>
      <point x="442" y="651" type="line"/>
      <point x="652" y="441" type="line"/>
      <point x="683" y="502" type="line" smooth="yes"/>
      <point x="689" y="515"/>
      <point x="701" y="520"/>
      <point x="713" y="518" type="curve" smooth="yes"/>
      <point x="723" y="517"/>
      <point x="732" y="508"/>
      <point x="735" y="493" type="curve" smooth="yes"/>
    </contour>
  </outline>
</glyph>
<glyph name="ampersand" format="1">
  <advance width="1000"/>
  <unicode hex="0026"/>
  <outline>
    <contour>
      <point x="987" y="200" type="line" smooth="yes"/>
      <point x="987" y="169"/>
      <point x="968" y="149"/>
      <point x="935" y="149" type="curve" smooth="yes"/>
      <point x="65" y="149" type="line" smooth="yes"/>
      <point x="32" y="149"/>
      <point x="13" y="169"/>
      <point x="13" y="200" type="curve" smooth="yes"/>
      <point x="13" y="800" type="line" smooth="yes"/>
      <point x="13" y="831"/>
      <point x="32" y="851"/>
      <point x="65" y="851" type="curve" smooth="yes"/>
      <point x="935" y="851" type="line" smooth="yes"/>
      <point x="968" y="851"/>
      <point x="987" y="831"/>
      <point x="987" y="800" type="curve" smooth="yes"/>
    </contour>
    <contour>
      <point x="984" y="200" type="curve" smooth="yes"/>
      <point x="984" y="800" type="line" smooth="yes"/>
      <point x="984" y="830"/>
      <point x="966" y="848"/>
      <point x="935" y="848" type="curve" smooth="yes"/>
      <point x="65" y="848" type="line" smooth="yes"/>
      <point x="34" y="848"/>
      <point x="16" y="830"/>
      <point x="16" y="800" type="curve" smooth="yes"/>
      <point x="16" y="200" type="line" smooth="yes"/>
      <point x="16" y="170"/>
      <point x="34" y="152"/>
      <point x="65" y="152" type="curve" smooth="yes"/>
      <point x="935" y="152" type="line" smooth="yes"/>
      <point x="966" y="152"/>
      <point x="984" y="170"/>
    </contour>
    <contour>
      <point x="965" y="200" type="line" smooth="yes"/>
      <point x="965" y="182"/>
      <point x="953" y="171"/>
      <point x="935" y="171" type="curve" smooth="yes"/>
      <point x="65" y="171" type="line" smooth="yes"/>
      <point x="47" y="171"/>
      <point x="35" y="182"/>
      <point x="35" y="200" type="curve" smooth="yes"/>
      <point x="35" y="800" type="line" smooth="yes"/>
      <point x="35" y="818"/>
      <point x="47" y="829"/>
      <point x="65" y="829" type="curve" smooth="yes"/>
      <point x="935" y="829" type="line" smooth="yes"/>
      <point x="953" y="829"/>
      <point x="965" y="818"/>
      <point x="965" y="800" type="curve" smooth="yes"/>
    </contour>
    <contour>
      <point x="945" y="200" type="curve" smooth="yes"/>
      <point x="945" y="800" type="line" smooth="yes"/>
      <point x="945" y="806"/>
      <point x="941" y="809"/>
      <point x="935" y="809" type="curve" smooth="yes"/>
      <point x="65" y="809" type="line" smooth="yes"/>
      <point x="59" y="809"/>
      <point x="55" y="806"/>
      <point x="55" y="800" type="curve" smooth="yes"/>
      <point x="55" y="200" type="line" smooth="yes"/>
      <point x="55" y="194"/>
      <point x="59" y="191"/>
      <point x="65" y="191" type="curve" smooth="yes"/>
      <point x="935" y="191" type="line" smooth="yes"/>
      <point x="941" y="191"/>
      <point x="945" y="194"/>
    </contour>
    <contour>
      <point x="796" y="566" type="curve" smooth="yes"/>
      <point x="790" y="558"/>
      <point x="780" y="554"/>
      <point x="768" y="558" type="curve" smooth="yes"/>
      <point x="713" y="576" type="line"/>
      <point x="713" y="305" type="line"/>
      <point x="377" y="305" type="line"/>
      <point x="395" y="250" type="line" smooth="yes"/>
      <point x="399" y="238"/>
      <point x="395" y="228"/>
      <point x="387" y="222" type="curve" smooth="yes"/>
      <point x="380" y="217"/>
      <point x="370" y="218"/>
      <point x="359" y="225" type="curve" smooth="yes"/>
      <point x="166" y="359" type="line"/>
      <point x="359" y="493" type="line" smooth="yes"/>
      <point x="370" y="500"/>
      <point x="380" y="501"/>
      <point x="387" y="496" type="curve" smooth="yes"/>
      <point x="395" y="490"/>
      <point x="399" y="480"/>
      <point x="395" y="468" type="curve" smooth="yes"/>
      <point x="377" y="413" type="line"/>
      <point x="605" y="413" type="line"/>
      <point x="605" y="576" type="line"/>
      <point x="550" y="558" type="line" smooth="yes"/>
      <point x="538" y="554"/>
      <point x="528" y="558"/>
      <point x="522" y="566" type="curve" smooth="yes"/>
      <point x="517" y="573"/>
      <point x="518" y="583"/>
      <point x="525" y="594" type="curve" smooth="yes"/>
      <point x="659" y="787" type="line"/>
      <point x="793" y="594" type="line" smooth="yes"/>
      <point x="800" y="583"/>
      <point x="801" y="573"/>
    </contour>
  </outline>
</glyph>
<glyph name="quotesingle" format="1">
  <advance width="1000"/>
  <unicode hex="0027"/>
  <outline>
    <contour>
      <point x="986" y="64" type="line" smooth="yes"/>
      <point x="986" y="33"/>
      <point x="967" y="13"/>
      <point x="934" y="13" type="curve" smooth="yes"/>
      <point x="66" y="13" type="line" smooth="yes"/>
      <point x="33" y="13"/>
      <point x="14" y="33"/>
      <point x="14" y="64" type="curve" smooth="yes"/>
      <point x="14" y="936" type="line" smooth="yes"/>
      <point x="14" y="967"/>
      <point x="33" y="987"/>
      <point x="66" y="987" type="curve" smooth="yes"/>
      <point x="934" y="987" type="line" smooth="yes"/>
      <point x="967" y="987"/>
      <point x="986" y="967"/>
      <point x="986" y="936" type="curve" smooth="yes"/>
    </contour>
    <contour>
      <point x="983" y="64" type="curve" smooth="yes"/>
      <point x="983" y="936" type="line" smooth="yes"/>
      <point x="983" y="966"/>
      <point x="965" y="984"/>
      <point x="934" y="984" type="curve" smooth="yes"/>
      <point x="66" y="984" type="line" smooth="yes"/>
      <point x="35" y="984"/>
      <point x="17" y="966"/>
      <point x="17" y="936" type="curve" smooth="yes"/>
      <point x="17" y="64" type="line" smooth="yes"/>
      <point x="17" y="34"/>
      <point x="35" y="16"/>
      <point x="66" y="16" type="curve" smooth="yes"/>
      <point x="934" y="16" type="line" smooth="yes"/>
      <point x="965" y="16"/>
      <point x="983" y="34"/>
    </contour>
    <contour>
      <point x="964" y="64" type="line" smooth="yes"/>
      <point x="964" y="46"/>
      <point x="952" y="35"/>
      <point x="934" y="35" type="curve" smooth="yes"/>
      <point x="66" y="35" type="line" smooth="yes"/>
      <point x="48" y="35"/>
      <point x="36" y="46"/>
      <point x="36" y="64" type="curve" smooth="yes"/>
      <point x="36" y="936" type="line" smooth="yes"/>
      <point x="36" y="954"/>
      <point x="48" y="965"/>
      <point x="66" y="965" type="curve" smooth="yes"/>
      <point x="934" y="965" type="line" smooth="yes"/>
      <point x="952" y="965"/>
      <point x="964" y="954"/>
      <point x="964" y="936" type="curve" smooth="yes"/>
    </contour>
    <contour>
      <point x="944" y="64" type="curve" smooth="yes"/>
      <point x="944" y="936" type="line" smooth="yes"/>
      <point x="944" y="942"/>
      <point x="940" y="945"/>
      <point x="934" y="945" type="curve" smooth="yes"/>
      <point x="66" y="945" type="line" smooth="yes"/>
      <point x="60" y="945"/>
      <point x="56" y="942"/>
      <point x="56" y="936" type="curve" smooth="yes"/>
      <point x="56" y="64" type="line" smooth="yes"/>
      <point x="56" y="58"/>
      <point x="60" y="55"/>
      <point x="66" y="55" type="curve" smooth="yes"/>
      <point x="934" y="55" type="line" smooth="yes"/>
      <point x="940" y="55"/>
      <point x="944" y="58"/>
    </contour>
    <contour>
      <point x="881" y="708" type="line"/>
      <point x="818" y="708" type="line"/>
      <point x="818" y="837" type="line"/>
      <point x="878" y="837" type="line"/>
      <point x="878" y="820" type="line"/>
      <point x="836" y="820" type="line"/>
      <point x="836" y="785" type="line"/>
      <point x="864" y="785" type="line"/>
      <point x="864" y="768" type="line"/>
      <point x="836" y="768" type="line"/>
      <point x="836" y="726" type="line"/>
      <point x="881" y="726" type="line"/>
    </contour>
    <contour>
      <point x="790" y="708" type="line"/>
      <point x="775" y="708" type="line"/>
      <point x="735" y="798" type="line"/>
      <point x="735" y="708" type="line"/>
      <point x="718" y="708" type="line"/>
      <point x="718" y="837" type="line"/>
      <point x="736" y="837" type="line"/>
      <point x="772" y="754" type="line"/>
      <point x="772" y="837" type="line"/>
      <point x="790" y="837" type="line"/>
    </contour>
    <contour>
      <point x="694" y="708" type="line"/>
      <point x="675" y="708" type="line"/>
      <point x="667" y="742" type="line"/>
      <point x="639" y="742" type="line"/>
      <point x="632" y="708" type="line"/>
      <point x="612" y="708" type="line"/>
      <point x="644" y="837" type="line"/>
      <point x="663" y="837" type="line"/>
    </contour>
    <contour>
      <point x="596" y="708" type="line"/>
      <point x="536" y="708" type="line"/>
      <point x="536" y="837" type="line"/>
      <point x="554" y="837" type="line"/>
      <point x="554" y="726" type="line"/>
      <point x="596" y="726" type="line"/>
    </contour>
    <contour>
      <point x="440" y="819" type="line"/>
      <point x="416" y="819" type="line"/>
      <point x="416" y="708" type="line"/>
      <point x="398" y="708" type="line"/>
      <point x="398" y="819" type="line"/>
      <point x="374" y="819" type="line"/>
      <point x="374" y="837" type="line"/>
      <point x="440" y="837" type="line"/>
    </contour>
    <contour>
      <point x="354" y="819" type="line"/>
      <point x="310" y="819" type="line"/>
      <point x="310" y="784" type="line"/>
      <point x="338" y="784" type="line"/>
      <point x="338" y="767" type="line"/>
      <point x="310" y="767" type="line"/>
      <point x="310" y="708" type="line"/>
      <point x="292" y="708" type="line"/>
      <point x="292" y="837" type="line"/>
      <point x="354" y="837" type="line"/>
    </contour>
    <contour>
      <point x="269" y="708" type="line"/>
      <point x="206" y="708" type="line"/>
      <point x="206" y="837" type="line"/>
      <point x="266" y="837" type="line"/>
      <point x="266" y="820" type="line"/>
      <point x="224" y="820" type="line"/>
      <point x="224" y="785" type="line"/>
      <point x="252" y="785" type="line"/>
      <point x="252" y="768" type="line"/>
      <point x="224" y="768" type="line"/>
      <point x="224" y="726" type="line"/>
      <point x="269" y="726" type="line"/>
    </contour>
    <contour>
      <point x="182" y="708" type="line"/>
      <point x="122" y="708" type="line"/>
      <point x="122" y="837" type="line"/>
      <point x="140" y="837" type="line"/>
      <point x="140" y="726" type="line"/>
      <point x="182" y="726" type="line"/>
    </contour>
    <contour>
      <point x="722" y="552" type="line"/>
      <point x="692" y="552" type="line"/>
      <point x="692" y="413" type="line"/>
      <point x="670" y="413" type="line"/>
      <point x="670" y="552" type="line"/>
      <point x="640" y="552" type="line"/>
      <point x="640" y="574" type="line"/>
      <point x="722" y="574" type="line"/>
    </contour>
    <contour>
      <point x="619" y="455" type="curve" smooth="yes"/>
      <point x="619" y="429"/>
      <point x="604" y="410"/>
      <point x="575" y="410" type="curve" smooth="yes"/>
      <point x="555" y="410"/>
      <point x="542" y="421"/>
      <point x="533" y="437" type="curve"/>
      <point x="550" y="451" type="line"/>
      <point x="559" y="437"/>
      <point x="567" y="433"/>
      <point x="576" y="433" type="curve" smooth="yes"/>
      <point x="589" y="433"/>
      <point x="596" y="440"/>
      <point x="596" y="453" type="curve" smooth="yes"/>
      <point x="596" y="466"/>
      <point x="590" y="473"/>
      <point x="569" y="487" type="curve" smooth="yes"/>
      <point x="551" y="499"/>
      <point x="536" y="511"/>
      <point x="536" y="536" type="curve" smooth="yes"/>
      <point x="536" y="560"/>
      <point x="552" y="576"/>
      <point x="577" y="576" type="curve" smooth="yes"/>
      <point x="596" y="576"/>
      <point x="607" y="569"/>
      <point x="616" y="555" type="curve"/>
      <point x="600" y="540" type="line"/>
      <point x="592" y="550"/>
      <point x="587" y="554"/>
      <point x="576" y="554" type="curve" smooth="yes"/>
      <point x="566" y="554"/>
      <point x="560" y="547"/>
      <point x="560" y="537" type="curve" smooth="yes"/>
      <point x="560" y="525"/>
      <point x="565" y="518"/>
      <point x="583" y="507" type="curve" smooth="yes"/>
      <point x="603" y="494"/>
      <point x="619" y="481"/>
    </contour>
    <contour>
      <point x="504" y="461" type="line" smooth="yes"/>
      <point x="504" y="430"/>
      <point x="487" y="411"/>
      <point x="459" y="411" type="curve" smooth="yes"/>
      <point x="432" y="411"/>
      <point x="414" y="430"/>
      <point x="414" y="460" type="curve" smooth="yes"/>
      <point x="414" y="574" type="line"/>
      <point x="436" y="574" type="line"/>
      <point x="436" y="461" type="line" smooth="yes"/>
      <point x="436" y="447"/>
      <point x="442" y="433"/>
      <point x="459" y="433" type="curve" smooth="yes"/>
      <point x="477" y="433"/>
      <point x="482" y="448"/>
      <point x="482" y="460" type="curve" smooth="yes"/>
      <point x="482" y="574" type="line"/>
      <point x="504" y="574" type="line"/>
    </contour>
    <contour>
      <point x="380" y="413" type="line"/>
      <point x="357" y="413" type="line"/>
      <point x="357" y="518" type="line"/>
      <point x="325" y="409" type="line"/>
      <point x="292" y="518" type="line"/>
      <point x="292" y="413" type="line"/>
      <point x="271" y="413" type="line"/>
      <point x="271" y="574" type="line"/>
      <point x="295" y="574" type="line"/>
      <point x="325" y="472" type="line"/>
      <point x="356" y="574" type="line"/>
      <point x="380" y="574" type="line"/>
    </contour>
    <contour>
      <point x="896" y="267" type="line"/>
      <point x="872" y="267" type="line"/>
      <point x="872" y="156" type="line"/>
      <point x="854" y="156" type="line"/>
      <point x="854" y="267" type="line"/>
      <point x="830" y="267" type="line"/>
      <point x="830" y="285" type="line"/>
      <point x="896" y="285" type="line"/>
    </contour>
    <contour>
      <point x="810" y="267" type="line"/>
      <point x="766" y="267" type="line"/>
      <point x="766" y="232" type="line"/>
      <point x="794" y="232" type="line"/>
      <point x="794" y="215" type="line"/>
      <point x="766" y="215" type="line"/>
      <point x="766" y="156" type="line"/>
      <point x="748" y="156" type="line"/>
      <point x="748" y="285" type="line"/>
      <point x="810" y="285" type="line"/>
    </contour>
    <contour>
      <point x="725" y="156" type="line"/>
      <point x="662" y="156" type="line"/>
      <point x="662" y="285" type="line"/>
      <point x="722" y="285" type="line"/>
      <point x="722" y="268" type="line"/>
      <point x="680" y="268" type="line"/>
      <point x="680" y="233" type="line"/>
      <point x="708" y="233" type="line"/>
      <point x="708" y="216" type="line"/>
      <point x="680" y="216" type="line"/>
      <point x="680" y="174" type="line"/>
      <point x="725" y="174" type="line"/>
    </contour>
    <contour>
      <point x="638" y="156" type="line"/>
      <point x="578" y="156" type="line"/>
      <point x="578" y="285" type="line"/>
      <point x="596" y="285" type="line"/>
      <point x="596" y="174" type="line"/>
      <point x="638" y="174" type="line"/>
    </contour>
    <contour>
      <point x="447" y="156" type="line"/>
      <point x="432" y="156" type="line"/>
      <point x="392" y="246" type="line"/>
      <point x="392" y="156" type="line"/>
      <point x="375" y="156" type="line"/>
      <point x="375" y="285" type="line"/>
      <point x="393" y="285" type="line"/>
      <point x="429" y="202" type="line"/>
      <point x="429" y="285" type="line"/>
      <point x="447" y="285" type="line"/>
    </contour>
    <contour>
      <point x="352" y="155" type="line"/>
      <point x="331" y="155" type="line"/>
      <point x="311" y="212" type="line"/>
      <point x="297" y="212" type="line"/>
      <point x="297" y="155" type="line"/>
      <point x="279" y="155" type="line"/>
      <point x="279" y="285" type="line"/>
      <point x="315" y="285" type="line" smooth="yes"/>
      <point x="334" y="285"/>
      <point x="351" y="274"/>
      <point x="351" y="249" type="curve" smooth="yes"/>
      <point x="351" y="230"/>
      <point x="343" y="220"/>
      <point x="331" y="215" type="curve"/>
    </contour>
    <contour>
      <point x="168" y="267" type="line"/>
      <point x="144" y="267" type="line"/>
      <point x="144" y="155" type="line"/>
      <point x="126" y="155" type="line"/>
      <point x="126" y="267" type="line"/>
      <point x="102" y="267" type="line"/>
      <point x="102" y="285" type="line"/>
      <point x="168" y="285" type="line"/>
    </contour>
    <contour>
      <point x="257" y="194" type="line" smooth="yes"/>
      <point x="257" y="169"/>
      <point x="243" y="154"/>
      <point x="221" y="154" type="curve" smooth="yes"/>
      <point x="200" y="154"/>
      <point x="185" y="170"/>
      <point x="185" y="193" type="curve" smooth="yes"/>
      <point x="185" y="285" type="line"/>
      <point x="203" y="285" type="line"/>
      <point x="203" y="194" type="line" smooth="yes"/>
      <point x="203" y="183"/>
      <point x="207" y="172"/>
      <point x="221" y="172" type="curve" smooth="yes"/>
      <point x="235" y="172"/>
      <point x="239" y="184"/>
      <point x="239" y="194" type="curve" smooth="yes"/>
      <point x="239" y="285" type="line"/>
      <point x="257" y="285" type="line"/>
    </contour>
    <contour>
      <point x="663" y="759" type="line"/>
      <point x="653" y="810" type="line"/>
      <point x="643" y="759" type="line"/>
    </contour>
    <contour>
      <point x="333" y="248" type="curve" smooth="yes"/>
      <point x="333" y="262"/>
      <point x="325" y="267"/>
      <point x="314" y="267" type="curve" smooth="yes"/>
      <point x="297" y="267" type="line"/>
      <point x="297" y="229" type="line"/>
      <point x="314" y="229" type="line" smooth="yes"/>
      <point x="325" y="229"/>
      <point x="333" y="235"/>
    </contour>
  </outline>
</glyph>
<glyph name="parenleft" format="1">
  <advance width="1000"/>
  <unicode hex="0028"/>
  <outline>
    <contour>
      <point x="987" y="107" type="line" smooth="yes"/>
      <point x="987" y="78"/>
      <point x="969" y="60"/>
      <point x="939" y="60" type="curve" smooth="yes"/>
      <point x="61" y="60" type="line" smooth="yes"/>
      <point x="31" y="60"/>
      <point x="13" y="78"/>
      <point x="13" y="107" type="curve" smooth="yes"/>
      <point x="13" y="893" type="line" smooth="yes"/>
      <point x="13" y="922"/>
      <point x="31" y="940"/>
      <point x="61" y="940" type="curve" smooth="yes"/>
      <point x="939" y="940" type="line" smooth="yes"/>
      <point x="969" y="940"/>
      <point x="987" y="922"/>
      <point x="987" y="893" type="curve" smooth="yes"/>
    </contour>
    <contour>
      <point x="984" y="107" type="curve" smooth="yes"/>
      <point x="984" y="893" type="line" smooth="yes"/>
      <point x="984" y="920"/>
      <point x="967" y="937"/>
      <point x="939" y="937" type="curve" smooth="yes"/>
      <point x="61" y="937" type="line" smooth="yes"/>
      <point x="33" y="937"/>
      <point x="16" y="920"/>
      <point x="16" y="893" type="curve" smooth="yes"/>
      <point x="16" y="107" type="line" smooth="yes"/>
      <point x="16" y="80"/>
      <point x="33" y="63"/>
      <point x="61" y="63" type="curve" smooth="yes"/>
      <point x="939" y="63" type="line" smooth="yes"/>
      <point x="967" y="63"/>
      <point x="984" y="80"/>
    </contour>
    <contour>
      <point x="965" y="107" type="line" smooth="yes"/>
      <point x="965" y="91"/>
      <point x="955" y="82"/>
      <point x="939" y="82" type="curve" smooth="yes"/>
      <point x="61" y="82" type="line" smooth="yes"/>
      <point x="45" y="82"/>
      <point x="35" y="91"/>
      <point x="35" y="107" type="curve" smooth="yes"/>
      <point x="35" y="893" type="line" smooth="yes"/>
      <point x="35" y="909"/>
      <point x="45" y="918"/>
      <point x="61" y="918" type="curve" smooth="yes"/>
      <point x="939" y="918" type="line" smooth="yes"/>
      <point x="955" y="918"/>
      <point x="965" y="909"/>
      <point x="965" y="893" type="curve" smooth="yes"/>
    </contour>
    <contour>
      <point x="608" y="645" type="line"/>
      <point x="608" y="841" type="line"/>
      <point x="580" y="841" type="line"/>
      <point x="580" y="645" type="line"/>
    </contour>
    <contour>
      <point x="521" y="645" type="line"/>
      <point x="469" y="746" type="line"/>
      <point x="517" y="841" type="line"/>
      <point x="485" y="841" type="line"/>
      <point x="485" y="841"/>
      <point x="456" y="778"/>
      <point x="453" y="772" type="curve"/>
      <point x="451" y="778"/>
      <point x="421" y="841"/>
      <point x="421" y="841" type="curve"/>
      <point x="389" y="841" type="line"/>
      <point x="437" y="745" type="line"/>
      <point x="385" y="645" type="line"/>
      <point x="417" y="645" type="line"/>
      <point x="417" y="645"/>
      <point x="450" y="713"/>
      <point x="453" y="720" type="curve"/>
      <point x="455" y="713"/>
      <point x="488" y="645"/>
      <point x="488" y="645" type="curve"/>
    </contour>
    <contour>
      <point x="789" y="812" type="line"/>
      <point x="789" y="840" type="line"/>
      <point x="667" y="840" type="line"/>
      <point x="667" y="812" type="line"/>
      <point x="714" y="812" type="line"/>
      <point x="714" y="644" type="line"/>
      <point x="742" y="644" type="line"/>
      <point x="742" y="812" type="line"/>
    </contour>
    <contour>
      <point x="335" y="644" type="line"/>
      <point x="335" y="671" type="line"/>
      <point x="250" y="671" type="line"/>
      <point x="250" y="735" type="line"/>
      <point x="299" y="735" type="line"/>
      <point x="299" y="762" type="line"/>
      <point x="250" y="762" type="line"/>
      <point x="250" y="813" type="line"/>
      <point x="331" y="813" type="line"/>
      <point x="331" y="840" type="line"/>
      <point x="222" y="840" type="line"/>
      <point x="222" y="644" type="line"/>
    </contour>
    <contour>
      <point x="898" y="430" type="line" smooth="yes"/>
      <point x="900" y="438"/>
      <point x="897" y="441"/>
      <point x="889" y="439" type="curve" smooth="yes"/>
      <point x="722" y="404" type="line" smooth="yes"/>
      <point x="718" y="403"/>
      <point x="713" y="401"/>
      <point x="713" y="396" type="curve" smooth="yes"/>
      <point x="713" y="391"/>
      <point x="719" y="388"/>
      <point x="722" y="386" type="curve" smooth="yes"/>
      <point x="783" y="350" type="line"/>
      <point x="618" y="202" type="line"/>
      <point x="661" y="159" type="line"/>
      <point x="809" y="324" type="line"/>
      <point x="845" y="263" type="line" smooth="yes"/>
      <point x="847" y="260"/>
      <point x="850" y="254"/>
      <point x="855" y="254" type="curve" smooth="yes"/>
      <point x="860" y="254"/>
      <point x="862" y="259"/>
      <point x="863" y="263" type="curve" smooth="yes"/>
    </contour>
  </outline>
</glyph>
<glyph name="parenright" format="1">
  <advance width="1000"/>
  <unicode hex="0029"/>
  <outline>
    <contour>
      <point x="987" y="103" type="line" smooth="yes"/>
      <point x="987" y="36"/>
      <point x="964" y="13"/>
      <point x="897" y="13" type="curve" smooth="yes"/>
      <point x="103" y="13" type="line" smooth="yes"/>
      <point x="36" y="13"/>
      <point x="13" y="36"/>
      <point x="13" y="103" type="curve" smooth="yes"/>
      <point x="13" y="897" type="line" smooth="yes"/>
      <point x="13" y="964"/>
      <point x="36" y="987"/>
      <point x="103" y="987" type="curve" smooth="yes"/>
      <point x="897" y="987" type="line" smooth="yes"/>
      <point x="964" y="987"/>
      <point x="987" y="964"/>
      <point x="987" y="897" type="curve" smooth="yes"/>
    </contour>
    <contour>
      <point x="956" y="500" type="curve" smooth="yes"/>
      <point x="956" y="752"/>
      <point x="753" y="955"/>
      <point x="501" y="955" type="curve" smooth="yes"/>
      <point x="249" y="955"/>
      <point x="46" y="752"/>
      <point x="46" y="500" type="curve" smooth="yes"/>
      <point x="46" y="248"/>
      <point x="249" y="45"/>
      <point x="501" y="45" type="curve" smooth="yes"/>
      <point x="753" y="45"/>
      <point x="956" y="248"/>
    </contour>
  </outline>
</glyph>
<glyph name="asterisk" format="1">
  <advance width="1000"/>
  <unicode hex="002A"/>
  <outline>
    <contour>
      <point x="987" y="200" type="line" smooth="yes"/>
      <point x="987" y="169"/>
      <point x="968" y="149"/>
      <point x="935" y="149" type="curve" smooth="yes"/>
      <point x="65" y="149" type="line" smooth="yes"/>
      <point x="32" y="149"/>
      <point x="13" y="169"/>
      <point x="13" y="200" type="curve" smooth="yes"/>
      <point x="13" y="800" type="line" smooth="yes"/>
      <point x="13" y="831"/>
      <point x="32" y="851"/>
      <point x="65" y="851" type="curve" smooth="yes"/>
      <point x="935" y="851" type="line" smooth="yes"/>
      <point x="968" y="851"/>
      <point x="987" y="831"/>
      <point x="987" y="800" type="curve" smooth="yes"/>
    </contour>
    <contour>
      <point x="984" y="200" type="curve" smooth="yes"/>
      <point x="984" y="800" type="line" smooth="yes"/>
      <point x="984" y="830"/>
      <point x="966" y="848"/>
      <point x="935" y="848" type="curve" smooth="yes"/>
      <point x="65" y="848" type="line" smooth="yes"/>
      <point x="34" y="848"/>
      <point x="16" y="830"/>
      <point x="16" y="800" type="curve" smooth="yes"/>
      <point x="16" y="200" type="line" smooth="yes"/>
      <point x="16" y="170"/>
      <point x="34" y="152"/>
      <point x="65" y="152" type="curve" smooth="yes"/>
      <point x="935" y="152" type="line" smooth="yes"/>
      <point x="966" y="152"/>
      <point x="984" y="170"/>
    </contour>
    <contour>
      <point x="965" y="200" type="line" smooth="yes"/>
      <point x="965" y="182"/>
      <point x="953" y="171"/>
      <point x="935" y="171" type="curve" smooth="yes"/>
      <point x="65" y="171" type="line" smooth="yes"/>
      <point x="47" y="171"/>
      <point x="35" y="182"/>
      <point x="35" y="200" type="curve" smooth="yes"/>
      <point x="35" y="800" type="line" smooth="yes"/>
      <point x="35" y="818"/>
      <point x="47" y="829"/>
      <point x="65" y="829" type="curve" smooth="yes"/>
      <point x="935" y="829" type="line" smooth="yes"/>
      <point x="953" y="829"/>
      <point x="965" y="818"/>
      <point x="965" y="800" type="curve" smooth="yes"/>
    </contour>
    <contour>
      <point x="945" y="200" type="curve" smooth="yes"/>
      <point x="945" y="800" type="line" smooth="yes"/>
      <point x="945" y="806"/>
      <point x="941" y="809"/>
      <point x="935" y="809" type="curve" smooth="yes"/>
      <point x="65" y="809" type="line" smooth="yes"/>
      <point x="59" y="809"/>
      <point x="55" y="806"/>
      <point x="55" y="800" type="curve" smooth="yes"/>
      <point x="55" y="200" type="line" smooth="yes"/>
      <point x="55" y="194"/>
      <point x="59" y="191"/>
      <point x="65" y="191" type="curve" smooth="yes"/>
      <point x="935" y="191" type="line" smooth="yes"/>
      <point x="941" y="191"/>
      <point x="945" y="194"/>
    </contour>
    <contour>
      <point x="827" y="552" type="curve" smooth="yes"/>
      <point x="821" y="544"/>
      <point x="811" y="540"/>
      <point x="799" y="544" type="curve" smooth="yes"/>
      <point x="744" y="562" type="line"/>
      <point x="744" y="241" type="line"/>
      <point x="607" y="241" type="line"/>
      <point x="322" y="445" type="line"/>
      <point x="306" y="389" type="line" smooth="yes"/>
      <point x="303" y="377"/>
      <point x="293" y="371"/>
      <point x="283" y="371" type="curve" smooth="yes"/>
      <point x="275" y="371"/>
      <point x="266" y="377"/>
      <point x="262" y="389" type="curve" smooth="yes"/>
      <point x="180" y="609" type="line"/>
      <point x="415" y="609" type="line" smooth="yes"/>
      <point x="428" y="609"/>
      <point x="437" y="604"/>
      <point x="440" y="596" type="curve" smooth="yes"/>
      <point x="443" y="586"/>
      <point x="440" y="576"/>
      <point x="430" y="568" type="curve" smooth="yes"/>
      <point x="384" y="533" type="line"/>
      <point x="636" y="351" type="line"/>
      <point x="636" y="562" type="line"/>
      <point x="581" y="544" type="line" smooth="yes"/>
      <point x="569" y="540"/>
      <point x="559" y="544"/>
      <point x="553" y="552" type="curve" smooth="yes"/>
      <point x="548" y="559"/>
      <point x="549" y="570"/>
      <point x="556" y="580" type="curve" smooth="yes"/>
      <point x="690" y="773" type="line"/>
      <point x="824" y="580" type="line" smooth="yes"/>
      <point x="831" y="570"/>
      <point x="832" y="559"/>
    </contour>
  </outline>
</glyph>
<glyph name="plus" format="1">
  <advance width="1000"/>
  <unicode hex="002B"/>
  <outline>
    <contour>
      <point x="987" y="306" type="line" smooth="yes"/>
      <point x="987" y="275"/>
      <point x="968" y="255"/>
      <point x="935" y="255" type="curve" smooth="yes"/>
      <point x="65" y="255" type="line" smooth="yes"/>
      <point x="32" y="255"/>
      <point x="13" y="275"/>
      <point x="13" y="306" type="curve" smooth="yes"/>
      <point x="13" y="694" type="line" smooth="yes"/>
      <point x="13" y="725"/>
      <point x="32" y="745"/>
      <point x="65" y="745" type="curve" smooth="yes"/>
      <point x="935" y="745" type="line" smooth="yes"/>
      <point x="968" y="745"/>
      <point x="987" y="725"/>
      <point x="987" y="694" type="curve" smooth="yes"/>
    </contour>
    <contour>
      <point x="984" y="306" type="curve" smooth="yes"/>
      <point x="984" y="694" type="line" smooth="yes"/>
      <point x="984" y="724"/>
      <point x="966" y="742"/>
      <point x="935" y="742" type="curve" smooth="yes"/>
      <point x="65" y="742" type="line" smooth="yes"/>
      <point x="34" y="742"/>
      <point x="16" y="724"/>
      <point x="16" y="694" type="curve" smooth="yes"/>
      <point x="16" y="306" type="line" smooth="yes"/>
      <point x="16" y="276"/>
      <point x="34" y="258"/>
      <point x="65" y="258" type="curve" smooth="yes"/>
      <point x="935" y="258" type="line" smooth="yes"/>
      <point x="966" y="258"/>
      <point x="984" y="276"/>
    </contour>
    <contour>
      <point x="965" y="306" type="line" smooth="yes"/>
      <point x="965" y="288"/>
      <point x="953" y="277"/>
      <point x="935" y="277" type="curve" smooth="yes"/>
      <point x="65" y="277" type="line" smooth="yes"/>
      <point x="47" y="277"/>
      <point x="35" y="288"/>
      <point x="35" y="306" type="curve" smooth="yes"/>
      <point x="35" y="694" type="line" smooth="yes"/>
      <point x="35" y="712"/>
      <point x="47" y="723"/>
      <point x="65" y="723" type="curve" smooth="yes"/>
      <point x="935" y="723" type="line" smooth="yes"/>
      <point x="953" y="723"/>
      <point x="965" y="712"/>
      <point x="965" y="694" type="curve" smooth="yes"/>
    </contour>
    <contour>
      <point x="945" y="306" type="curve" smooth="yes"/>
      <point x="945" y="694" type="line" smooth="yes"/>
      <point x="945" y="700"/>
      <point x="941" y="703"/>
      <point x="935" y="703" type="curve" smooth="yes"/>
      <point x="65" y="703" type="line" smooth="yes"/>
      <point x="59" y="703"/>
      <point x="55" y="700"/>
      <point x="55" y="694" type="curve" smooth="yes"/>
      <point x="55" y="306" type="line" smooth="yes"/>
      <point x="55" y="300"/>
      <point x="59" y="297"/>
      <point x="65" y="297" type="curve" smooth="yes"/>
      <point x="935" y="297" type="line" smooth="yes"/>
      <point x="941" y="297"/>
      <point x="945" y="300"/>
    </contour>
    <contour>
      <point x="838" y="583" type="line"/>
      <point x="793" y="583" type="line"/>
      <point x="793" y="372" type="line"/>
      <point x="759" y="372" type="line"/>
      <point x="759" y="583" type="line"/>
      <point x="714" y="583" type="line"/>
      <point x="714" y="617" type="line"/>
      <point x="838" y="617" type="line"/>
    </contour>
    <contour>
      <point x="503" y="372" type="line"/>
      <point x="466" y="372" type="line"/>
      <point x="452" y="437" type="line"/>
      <point x="398" y="437" type="line"/>
      <point x="384" y="372" type="line"/>
      <point x="348" y="372" type="line"/>
      <point x="408" y="617" type="line"/>
      <point x="444" y="617" type="line"/>
    </contour>
    <contour>
      <point x="308" y="372" type="line"/>
      <point x="188" y="372" type="line"/>
      <point x="188" y="617" type="line"/>
      <point x="303" y="617" type="line"/>
      <point x="303" y="583" type="line"/>
      <point x="222" y="583" type="line"/>
      <point x="222" y="519" type="line"/>
      <point x="275" y="519" type="line"/>
      <point x="275" y="485" type="line"/>
      <point x="222" y="485" type="line"/>
      <point x="222" y="406" type="line"/>
      <point x="308" y="406" type="line"/>
    </contour>
    <contour>
      <point x="671" y="434" type="curve" smooth="yes"/>
      <point x="671" y="395"/>
      <point x="648" y="367"/>
      <point x="605" y="367" type="curve" smooth="yes"/>
      <point x="574" y="367"/>
      <point x="554" y="383"/>
      <point x="540" y="407" type="curve"/>
      <point x="567" y="429" type="line"/>
      <point x="580" y="408"/>
      <point x="592" y="402"/>
      <point x="607" y="402" type="curve" smooth="yes"/>
      <point x="625" y="402"/>
      <point x="636" y="413"/>
      <point x="636" y="433" type="curve" smooth="yes"/>
      <point x="636" y="452"/>
      <point x="628" y="462"/>
      <point x="595" y="484" type="curve" smooth="yes"/>
      <point x="568" y="502"/>
      <point x="546" y="520"/>
      <point x="546" y="559" type="curve" smooth="yes"/>
      <point x="546" y="594"/>
      <point x="570" y="620"/>
      <point x="608" y="620" type="curve" smooth="yes"/>
      <point x="636" y="620"/>
      <point x="653" y="608"/>
      <point x="667" y="587" type="curve"/>
      <point x="642" y="564" type="line"/>
      <point x="630" y="580"/>
      <point x="622" y="586"/>
      <point x="607" y="586" type="curve" smooth="yes"/>
      <point x="590" y="586"/>
      <point x="581" y="575"/>
      <point x="581" y="560" type="curve" smooth="yes"/>
      <point x="581" y="541"/>
      <point x="590" y="531"/>
      <point x="617" y="514" type="curve" smooth="yes"/>
      <point x="647" y="494"/>
      <point x="671" y="475"/>
    </contour>
    <contour>
      <point x="445" y="470" type="line"/>
      <point x="425" y="564" type="line"/>
      <point x="405" y="470" type="line"/>
    </contour>
  </outline>
</glyph>
<glyph name="hyphen" format="1">
  <advance width="1000"/>
  <unicode hex="002D"/>
  <unicode hex="2010"/>
  <unicode hex="2011"/>
  <outline>
    <contour>
      <point x="987" y="306" type="line" smooth="yes"/>
      <point x="987" y="275"/>
      <point x="968" y="255"/>
      <point x="935" y="255" type="curve" smooth="yes"/>
      <point x="65" y="255" type="line" smooth="yes"/>
      <point x="32" y="255"/>
      <point x="13" y="275"/>
      <point x="13" y="306" type="curve" smooth="yes"/>
      <point x="13" y="694" type="line" smooth="yes"/>
      <point x="13" y="725"/>
      <point x="32" y="745"/>
      <point x="65" y="745" type="curve" smooth="yes"/>
      <point x="935" y="745" type="line" smooth="yes"/>
      <point x="968" y="745"/>
      <point x="987" y="725"/>
      <point x="987" y="694" type="curve" smooth="yes"/>
    </contour>
    <contour>
      <point x="984" y="306" type="curve" smooth="yes"/>
      <point x="984" y="694" type="line" smooth="yes"/>
      <point x="984" y="724"/>
      <point x="966" y="742"/>
      <point x="935" y="742" type="curve" smooth="yes"/>
      <point x="65" y="742" type="line" smooth="yes"/>
      <point x="34" y="742"/>
      <point x="16" y="724"/>
      <point x="16" y="694" type="curve" smooth="yes"/>
      <point x="16" y="306" type="line" smooth="yes"/>
      <point x="16" y="276"/>
      <point x="34" y="258"/>
      <point x="65" y="258" type="curve" smooth="yes"/>
      <point x="935" y="258" type="line" smooth="yes"/>
      <point x="966" y="258"/>
      <point x="984" y="276"/>
    </contour>
    <contour>
      <point x="965" y="306" type="line" smooth="yes"/>
      <point x="965" y="288"/>
      <point x="953" y="277"/>
      <point x="935" y="277" type="curve" smooth="yes"/>
      <point x="65" y="277" type="line" smooth="yes"/>
      <point x="47" y="277"/>
      <point x="35" y="288"/>
      <point x="35" y="306" type="curve" smooth="yes"/>
      <point x="35" y="694" type="line" smooth="yes"/>
      <point x="35" y="712"/>
      <point x="47" y="723"/>
      <point x="65" y="723" type="curve" smooth="yes"/>
      <point x="935" y="723" type="line" smooth="yes"/>
      <point x="953" y="723"/>
      <point x="965" y="712"/>
      <point x="965" y="694" type="curve" smooth="yes"/>
    </contour>
    <contour>
      <point x="945" y="306" type="curve" smooth="yes"/>
      <point x="945" y="694" type="line" smooth="yes"/>
      <point x="945" y="700"/>
      <point x="941" y="703"/>
      <point x="935" y="703" type="curve" smooth="yes"/>
      <point x="65" y="703" type="line" smooth="yes"/>
      <point x="59" y="703"/>
      <point x="55" y="700"/>
      <point x="55" y="694" type="curve" smooth="yes"/>
      <point x="55" y="306" type="line" smooth="yes"/>
      <point x="55" y="300"/>
      <point x="59" y="297"/>
      <point x="65" y="297" type="curve" smooth="yes"/>
      <point x="935" y="297" type="line" smooth="yes"/>
      <point x="941" y="297"/>
      <point x="945" y="300"/>
    </contour>
    <contour>
      <point x="899" y="372" type="line"/>
      <point x="864" y="372" type="line"/>
      <point x="864" y="485" type="line"/>
      <point x="796" y="485" type="line"/>
      <point x="796" y="372" type="line"/>
      <point x="761" y="372" type="line"/>
      <point x="761" y="617" type="line"/>
      <point x="796" y="617" type="line"/>
      <point x="796" y="519" type="line"/>
      <point x="864" y="519" type="line"/>
      <point x="864" y="617" type="line"/>
      <point x="899" y="617" type="line"/>
    </contour>
    <contour>
      <point x="730" y="583" type="line"/>
      <point x="685" y="583" type="line"/>
      <point x="685" y="372" type="line"/>
      <point x="651" y="372" type="line"/>
      <point x="651" y="583" type="line"/>
      <point x="606" y="583" type="line"/>
      <point x="606" y="617" type="line"/>
      <point x="730" y="617" type="line"/>
    </contour>
    <contour>
      <point x="400" y="494" type="curve" smooth="yes"/>
      <point x="400" y="423"/>
      <point x="377" y="368"/>
      <point x="326" y="368" type="curve" smooth="yes"/>
      <point x="274" y="368"/>
      <point x="252" y="423"/>
      <point x="252" y="494" type="curve" smooth="yes"/>
      <point x="252" y="565"/>
      <point x="274" y="620"/>
      <point x="326" y="620" type="curve" smooth="yes"/>
      <point x="378" y="620"/>
      <point x="400" y="565"/>
    </contour>
    <contour>
      <point x="222" y="434" type="curve" smooth="yes"/>
      <point x="222" y="395"/>
      <point x="199" y="367"/>
      <point x="156" y="367" type="curve" smooth="yes"/>
      <point x="125" y="367"/>
      <point x="105" y="383"/>
      <point x="91" y="407" type="curve"/>
      <point x="118" y="429" type="line"/>
      <point x="131" y="408"/>
      <point x="143" y="402"/>
      <point x="158" y="402" type="curve" smooth="yes"/>
      <point x="176" y="402"/>
      <point x="187" y="413"/>
      <point x="187" y="433" type="curve" smooth="yes"/>
      <point x="187" y="452"/>
      <point x="179" y="462"/>
      <point x="146" y="484" type="curve" smooth="yes"/>
      <point x="119" y="502"/>
      <point x="97" y="520"/>
      <point x="97" y="559" type="curve" smooth="yes"/>
      <point x="97" y="594"/>
      <point x="121" y="620"/>
      <point x="159" y="620" type="curve" smooth="yes"/>
      <point x="187" y="620"/>
      <point x="204" y="608"/>
      <point x="218" y="587" type="curve"/>
      <point x="193" y="564" type="line"/>
      <point x="181" y="580"/>
      <point x="173" y="586"/>
      <point x="158" y="586" type="curve" smooth="yes"/>
      <point x="141" y="586"/>
      <point x="132" y="575"/>
      <point x="132" y="560" type="curve" smooth="yes"/>
      <point x="132" y="541"/>
      <point x="141" y="531"/>
      <point x="168" y="514" type="curve" smooth="yes"/>
      <point x="198" y="494"/>
      <point x="222" y="475"/>
    </contour>
    <contour>
      <point x="575" y="445" type="line" smooth="yes"/>
      <point x="575" y="397"/>
      <point x="548" y="368"/>
      <point x="506" y="368" type="curve" smooth="yes"/>
      <point x="465" y="368"/>
      <point x="437" y="398"/>
      <point x="437" y="443" type="curve" smooth="yes"/>
      <point x="437" y="617" type="line"/>
      <point x="472" y="617" type="line"/>
      <point x="472" y="444" type="line" smooth="yes"/>
      <point x="472" y="424"/>
      <point x="480" y="403"/>
      <point x="506" y="403" type="curve" smooth="yes"/>
      <point x="533" y="403"/>
      <point x="541" y="425"/>
      <point x="541" y="444" type="curve" smooth="yes"/>
      <point x="541" y="617" type="line"/>
      <point x="575" y="617" type="line"/>
    </contour>
    <contour>
      <point x="365" y="494" type="curve" smooth="yes"/>
      <point x="365" y="539"/>
      <point x="355" y="586"/>
      <point x="325" y="586" type="curve" smooth="yes"/>
      <point x="296" y="586"/>
      <point x="287" y="540"/>
      <point x="287" y="494" type="curve" smooth="yes"/>
      <point x="287" y="449"/>
      <point x="297" y="402"/>
      <point x="327" y="402" type="curve" smooth="yes"/>
      <point x="356" y="402"/>
      <point x="365" y="448"/>
    </contour>
  </outline>
</glyph>
<glyph name="slash" format="1">
  <advance width="1000"/>
  <unicode hex="002F"/>
  <outline>
    <contour>
      <point x="986" y="159" type="line" smooth="yes"/>
      <point x="986" y="129"/>
      <point x="967" y="109"/>
      <point x="935" y="109" type="curve" smooth="yes"/>
      <point x="65" y="109" type="line" smooth="yes"/>
      <point x="33" y="109"/>
      <point x="14" y="129"/>
      <point x="14" y="159" type="curve" smooth="yes"/>
      <point x="14" y="841" type="line" smooth="yes"/>
      <point x="14" y="871"/>
      <point x="33" y="891"/>
      <point x="65" y="891" type="curve" smooth="yes"/>
      <point x="935" y="891" type="line" smooth="yes"/>
      <point x="967" y="891"/>
      <point x="986" y="871"/>
      <point x="986" y="841" type="curve" smooth="yes"/>
    </contour>
  </outline>
</glyph>
<glyph name="zero" format="1">
  <advance width="1000"/>
  <unicode hex="0030"/>
  <outline>
    <contour>
      <point x="987" y="103" type="line" smooth="yes"/>
      <point x="987" y="36"/>
      <point x="964" y="13"/>
      <point x="897" y="13" type="curve" smooth="yes"/>
      <point x="103" y="13" type="line" smooth="yes"/>
      <point x="36" y="13"/>
      <point x="13" y="36"/>
      <point x="13" y="103" type="curve" smooth="yes"/>
      <point x="13" y="897" type="line" smooth="yes"/>
      <point x="13" y="964"/>
      <point x="36" y="987"/>
      <point x="103" y="987" type="curve" smooth="yes"/>
      <point x="897" y="987" type="line" smooth="yes"/>
      <point x="964" y="987"/>
      <point x="987" y="964"/>
      <point x="987" y="897" type="curve" smooth="yes"/>
    </contour>
    <contour>
      <point x="960" y="355" type="curve" smooth="yes"/>
      <point x="960" y="467"/>
      <point x="906" y="496"/>
      <point x="906" y="619" type="curve" smooth="yes"/>
      <point x="906" y="692"/>
      <point x="960" y="782"/>
      <point x="960" y="782" type="curve"/>
      <point x="780" y="963" type="line"/>
      <point x="735" y="927"/>
      <point x="698" y="914"/>
      <point x="641" y="914" type="curve" smooth="yes"/>
      <point x="583" y="914"/>
      <point x="546" y="927"/>
      <point x="501" y="963" type="curve"/>
      <point x="456" y="927"/>
      <point x="419" y="914"/>
      <point x="361" y="914" type="curve" smooth="yes"/>
      <point x="304" y="914"/>
      <point x="267" y="927"/>
      <point x="222" y="963" type="curve"/>
      <point x="42" y="782" type="line"/>
      <point x="42" y="782"/>
      <point x="96" y="692"/>
      <point x="96" y="619" type="curve" smooth="yes"/>
      <point x="96" y="496"/>
      <point x="42" y="467"/>
      <point x="42" y="355" type="curve" smooth="yes"/>
      <point x="42" y="212"/>
      <point x="166" y="104"/>
      <point x="312" y="104" type="curve" smooth="yes"/>
      <point x="411" y="104"/>
      <point x="434" y="92"/>
      <point x="502" y="40" type="curve"/>
      <point x="568" y="92"/>
      <point x="591" y="104"/>
      <point x="690" y="104" type="curve" smooth="yes"/>
      <point x="836" y="104"/>
      <point x="960" y="212"/>
    </contour>
  </outline>
</glyph>
<glyph name="one" format="1">
  <advance width="1000"/>
  <unicode hex="0031"/>
  <outline>
    <contour>
      <point x="987" y="200" type="line" smooth="yes"/>
      <point x="987" y="169"/>
      <point x="968" y="149"/>
      <point x="935" y="149" type="curve" smooth="yes"/>
      <point x="65" y="149" type="line" smooth="yes"/>
      <point x="32" y="149"/>
      <point x="13" y="169"/>
      <point x="13" y="200" type="curve" smooth="yes"/>
      <point x="13" y="800" type="line" smooth="yes"/>
      <point x="13" y="831"/>
      <point x="32" y="851"/>
      <point x="65" y="851" type="curve" smooth="yes"/>
      <point x="935" y="851" type="line" smooth="yes"/>
      <point x="968" y="851"/>
      <point x="987" y="831"/>
      <point x="987" y="800" type="curve" smooth="yes"/>
    </contour>
    <contour>
      <point x="984" y="200" type="curve" smooth="yes"/>
      <point x="984" y="800" type="line" smooth="yes"/>
      <point x="984" y="830"/>
      <point x="966" y="848"/>
      <point x="935" y="848" type="curve" smooth="yes"/>
      <point x="65" y="848" type="line" smooth="yes"/>
      <point x="34" y="848"/>
      <point x="16" y="830"/>
      <point x="16" y="800" type="curve" smooth="yes"/>
      <point x="16" y="200" type="line" smooth="yes"/>
      <point x="16" y="170"/>
      <point x="34" y="152"/>
      <point x="65" y="152" type="curve" smooth="yes"/>
      <point x="935" y="152" type="line" smooth="yes"/>
      <point x="966" y="152"/>
      <point x="984" y="170"/>
    </contour>
    <contour>
      <point x="965" y="200" type="line" smooth="yes"/>
      <point x="965" y="182"/>
      <point x="953" y="171"/>
      <point x="935" y="171" type="curve" smooth="yes"/>
      <point x="65" y="171" type="line" smooth="yes"/>
      <point x="47" y="171"/>
      <point x="35" y="182"/>
      <point x="35" y="200" type="curve" smooth="yes"/>
      <point x="35" y="800" type="line" smooth="yes"/>
      <point x="35" y="818"/>
      <point x="47" y="829"/>
      <point x="65" y="829" type="curve" smooth="yes"/>
      <point x="935" y="829" type="line" smooth="yes"/>
      <point x="953" y="829"/>
      <point x="965" y="818"/>
      <point x="965" y="800" type="curve" smooth="yes"/>
    </contour>
    <contour>
      <point x="945" y="200" type="curve" smooth="yes"/>
      <point x="945" y="800" type="line" smooth="yes"/>
      <point x="945" y="806"/>
      <point x="941" y="809"/>
      <point x="935" y="809" type="curve" smooth="yes"/>
      <point x="65" y="809" type="line" smooth="yes"/>
      <point x="59" y="809"/>
      <point x="55" y="806"/>
      <point x="55" y="800" type="curve" smooth="yes"/>
      <point x="55" y="200" type="line" smooth="yes"/>
      <point x="55" y="194"/>
      <point x="59" y="191"/>
      <point x="65" y="191" type="curve" smooth="yes"/>
      <point x="935" y="191" type="line" smooth="yes"/>
      <point x="941" y="191"/>
      <point x="945" y="194"/>
    </contour>
    <contour>
      <point x="661" y="470" type="curve" smooth="yes"/>
      <point x="654" y="460"/>
      <point x="642" y="455"/>
      <point x="628" y="460" type="curve" smooth="yes"/>
      <point x="563" y="481" type="line"/>
      <point x="563" y="282" type="line"/>
      <point x="437" y="282" type="line"/>
      <point x="437" y="481" type="line"/>
      <point x="372" y="460" type="line" smooth="yes"/>
      <point x="358" y="455"/>
      <point x="346" y="460"/>
      <point x="339" y="470" type="curve" smooth="yes"/>
      <point x="333" y="478"/>
      <point x="333" y="491"/>
      <point x="342" y="503" type="curve" smooth="yes"/>
      <point x="500" y="730" type="line"/>
      <point x="658" y="503" type="line" smooth="yes"/>
      <point x="667" y="491"/>
      <point x="667" y="478"/>
    </contour>
  </outline>
</glyph>
<glyph name="four" format="1">
  <advance width="1000"/>
  <unicode hex="0034"/>
  <outline>
    <contour>
      <point x="987" y="200" type="line" smooth="yes"/>
      <point x="987" y="169"/>
      <point x="968" y="149"/>
      <point x="935" y="149" type="curve" smooth="yes"/>
      <point x="65" y="149" type="line" smooth="yes"/>
      <point x="32" y="149"/>
      <point x="13" y="169"/>
      <point x="13" y="200" type="curve" smooth="yes"/>
      <point x="13" y="800" type="line" smooth="yes"/>
      <point x="13" y="831"/>
      <point x="32" y="851"/>
      <point x="65" y="851" type="curve" smooth="yes"/>
      <point x="935" y="851" type="line" smooth="yes"/>
      <point x="968" y="851"/>
      <point x="987" y="831"/>
      <point x="987" y="800" type="curve" smooth="yes"/>
    </contour>
    <contour>
      <point x="984" y="200" type="curve" smooth="yes"/>
      <point x="984" y="800" type="line" smooth="yes"/>
      <point x="984" y="830"/>
      <point x="966" y="848"/>
      <point x="935" y="848" type="curve" smooth="yes"/>
      <point x="65" y="848" type="line" smooth="yes"/>
      <point x="34" y="848"/>
      <point x="16" y="830"/>
      <point x="16" y="800" type="curve" smooth="yes"/>
      <point x="16" y="200" type="line" smooth="yes"/>
      <point x="16" y="170"/>
      <point x="34" y="152"/>
      <point x="65" y="152" type="curve" smooth="yes"/>
      <point x="935" y="152" type="line" smooth="yes"/>
      <point x="966" y="152"/>
      <point x="984" y="170"/>
    </contour>
    <contour>
      <point x="965" y="200" type="line" smooth="yes"/>
      <point x="965" y="182"/>
      <point x="953" y="171"/>
      <point x="935" y="171" type="curve" smooth="yes"/>
      <point x="65" y="171" type="line" smooth="yes"/>
      <point x="47" y="171"/>
      <point x="35" y="182"/>
      <point x="35" y="200" type="curve" smooth="yes"/>
      <point x="35" y="800" type="line" smooth="yes"/>
      <point x="35" y="818"/>
      <point x="47" y="829"/>
      <point x="65" y="829" type="curve" smooth="yes"/>
      <point x="935" y="829" type="line" smooth="yes"/>
      <point x="953" y="829"/>
      <point x="965" y="818"/>
      <point x="965" y="800" type="curve" smooth="yes"/>
    </contour>
    <contour>
      <point x="945" y="200" type="curve" smooth="yes"/>
      <point x="945" y="800" type="line" smooth="yes"/>
      <point x="945" y="806"/>
      <point x="941" y="809"/>
      <point x="935" y="809" type="curve" smooth="yes"/>
      <point x="65" y="809" type="line" smooth="yes"/>
      <point x="59" y="809"/>
      <point x="55" y="806"/>
      <point x="55" y="800" type="curve" smooth="yes"/>
      <point x="55" y="200" type="line" smooth="yes"/>
      <point x="55" y="194"/>
      <point x="59" y="191"/>
      <point x="65" y="191" type="curve" smooth="yes"/>
      <point x="935" y="191" type="line" smooth="yes"/>
      <point x="941" y="191"/>
      <point x="945" y="194"/>
    </contour>
    <contour>
      <point x="778" y="782" type="line"/>
      <point x="730" y="510" type="line" smooth="yes"/>
      <point x="727" y="495"/>
      <point x="718" y="486"/>
      <point x="708" y="485" type="curve" smooth="yes"/>
      <point x="696" y="483"/>
      <point x="684" y="488"/>
      <point x="678" y="501" type="curve" smooth="yes"/>
      <point x="647" y="562" type="line"/>
      <point x="437" y="352" type="line"/>
      <point x="498" y="321" type="line" smooth="yes"/>
      <point x="511" y="314"/>
      <point x="516" y="303"/>
      <point x="514" y="291" type="curve" smooth="yes"/>
      <point x="513" y="281"/>
      <point x="504" y="272"/>
      <point x="489" y="269" type="curve" smooth="yes"/>
      <point x="217" y="221" type="line"/>
      <point x="265" y="493" type="line" smooth="yes"/>
      <point x="268" y="508"/>
      <point x="277" y="517"/>
      <point x="287" y="518" type="curve" smooth="yes"/>
      <point x="299" y="520"/>
      <point x="311" y="515"/>
      <point x="317" y="502" type="curve" smooth="yes"/>
      <point x="348" y="441" type="line"/>
      <point x="558" y="651" type="line"/>
      <point x="497" y="682" type="line" smooth="yes"/>
      <point x="484" y="688"/>
      <point x="479" y="700"/>
      <point x="481" y="712" type="curve" smooth="yes"/>
      <point x="482" y="722"/>
      <point x="491" y="731"/>
      <point x="506" y="734" type="curve" smooth="yes"/>
    </contour>
  </outline>
</glyph>
<glyph name="five" format="1">
  <advance width="1000"/>
  <unicode hex="0035"/>
  <outline>
    <contour>
      <point x="987" y="200" type="line" smooth="yes"/>
      <point x="987" y="169"/>
      <point x="968" y="149"/>
      <point x="935" y="149" type="curve" smooth="yes"/>
      <point x="65" y="149" type="line" smooth="yes"/>
      <point x="32" y="149"/>
      <point x="13" y="169"/>
      <point x="13" y="200" type="curve" smooth="yes"/>
      <point x="13" y="800" type="line" smooth="yes"/>
      <point x="13" y="831"/>
      <point x="32" y="851"/>
      <point x="65" y="851" type="curve" smooth="yes"/>
      <point x="935" y="851" type="line" smooth="yes"/>
      <point x="968" y="851"/>
      <point x="987" y="831"/>
      <point x="987" y="800" type="curve" smooth="yes"/>
    </contour>
    <contour>
      <point x="984" y="200" type="curve" smooth="yes"/>
      <point x="984" y="800" type="line" smooth="yes"/>
      <point x="984" y="830"/>
      <point x="966" y="848"/>
      <point x="935" y="848" type="curve" smooth="yes"/>
      <point x="65" y="848" type="line" smooth="yes"/>
      <point x="34" y="848"/>
      <point x="16" y="830"/>
      <point x="16" y="800" type="curve" smooth="yes"/>
      <point x="16" y="200" type="line" smooth="yes"/>
      <point x="16" y="170"/>
      <point x="34" y="152"/>
      <point x="65" y="152" type="curve" smooth="yes"/>
      <point x="935" y="152" type="line" smooth="yes"/>
      <point x="966" y="152"/>
      <point x="984" y="170"/>
    </contour>
    <contour>
      <point x="965" y="200" type="line" smooth="yes"/>
      <point x="965" y="182"/>
      <point x="953" y="171"/>
      <point x="935" y="171" type="curve" smooth="yes"/>
      <point x="65" y="171" type="line" smooth="yes"/>
      <point x="47" y="171"/>
      <point x="35" y="182"/>
      <point x="35" y="200" type="curve" smooth="yes"/>
      <point x="35" y="800" type="line" smooth="yes"/>
      <point x="35" y="818"/>
      <point x="47" y="829"/>
      <point x="65" y="829" type="curve" smooth="yes"/>
      <point x="935" y="829" type="line" smooth="yes"/>
      <point x="953" y="829"/>
      <point x="965" y="818"/>
      <point x="965" y="800" type="curve" smooth="yes"/>
    </contour>
    <contour>
      <point x="945" y="200" type="curve" smooth="yes"/>
      <point x="945" y="800" type="line" smooth="yes"/>
      <point x="945" y="806"/>
      <point x="941" y="809"/>
      <point x="935" y="809" type="curve" smooth="yes"/>
      <point x="65" y="809" type="line" smooth="yes"/>
      <point x="59" y="809"/>
      <point x="55" y="806"/>
      <point x="55" y="800" type="curve" smooth="yes"/>
      <point x="55" y="200" type="line" smooth="yes"/>
      <point x="55" y="194"/>
      <point x="59" y="191"/>
      <point x="65" y="191" type="curve" smooth="yes"/>
      <point x="935" y="191" type="line" smooth="yes"/>
      <point x="941" y="191"/>
      <point x="945" y="194"/>
    </contour>
    <contour>
      <point x="727" y="736" type="line"/>
      <point x="650" y="471" type="line" smooth="yes"/>
      <point x="646" y="457"/>
      <point x="636" y="448"/>
      <point x="626" y="448" type="curve" smooth="yes"/>
      <point x="614" y="447"/>
      <point x="602" y="454"/>
      <point x="597" y="468" type="curve" smooth="yes"/>
      <point x="573" y="531" type="line"/>
      <point x="460" y="439" type="line"/>
      <point x="460" y="242" type="line"/>
      <point x="334" y="242" type="line"/>
      <point x="334" y="500" type="line"/>
      <point x="494" y="629" type="line"/>
      <point x="437" y="667" type="line" smooth="yes"/>
      <point x="425" y="675"/>
      <point x="421" y="686"/>
      <point x="424" y="698" type="curve"/>
      <point x="425" y="708"/>
      <point x="436" y="716"/>
      <point x="451" y="717" type="curve" smooth="yes"/>
    </contour>
  </outline>
</glyph>
<glyph name="six" format="1">
  <advance width="1000"/>
  <unicode hex="0036"/>
  <outline>
    <contour>
      <point x="987" y="200" type="line" smooth="yes"/>
      <point x="987" y="169"/>
      <point x="968" y="149"/>
      <point x="935" y="149" type="curve" smooth="yes"/>
      <point x="65" y="149" type="line" smooth="yes"/>
      <point x="32" y="149"/>
      <point x="13" y="169"/>
      <point x="13" y="200" type="curve" smooth="yes"/>
      <point x="13" y="800" type="line" smooth="yes"/>
      <point x="13" y="831"/>
      <point x="32" y="851"/>
      <point x="65" y="851" type="curve" smooth="yes"/>
      <point x="935" y="851" type="line" smooth="yes"/>
      <point x="968" y="851"/>
      <point x="987" y="831"/>
      <point x="987" y="800" type="curve" smooth="yes"/>
    </contour>
    <contour>
      <point x="984" y="200" type="curve" smooth="yes"/>
      <point x="984" y="800" type="line" smooth="yes"/>
      <point x="984" y="830"/>
      <point x="966" y="848"/>
      <point x="935" y="848" type="curve" smooth="yes"/>
      <point x="65" y="848" type="line" smooth="yes"/>
      <point x="34" y="848"/>
      <point x="16" y="830"/>
      <point x="16" y="800" type="curve" smooth="yes"/>
      <point x="16" y="200" type="line" smooth="yes"/>
      <point x="16" y="170"/>
      <point x="34" y="152"/>
      <point x="65" y="152" type="curve" smooth="yes"/>
      <point x="935" y="152" type="line" smooth="yes"/>
      <point x="966" y="152"/>
      <point x="984" y="170"/>
    </contour>
    <contour>
      <point x="965" y="200" type="line" smooth="yes"/>
      <point x="965" y="182"/>
      <point x="953" y="171"/>
      <point x="935" y="171" type="curve" smooth="yes"/>
      <point x="65" y="171" type="line" smooth="yes"/>
      <point x="47" y="171"/>
      <point x="35" y="182"/>
      <point x="35" y="200" type="curve" smooth="yes"/>
      <point x="35" y="800" type="line" smooth="yes"/>
      <point x="35" y="818"/>
      <point x="47" y="829"/>
      <point x="65" y="829" type="curve" smooth="yes"/>
      <point x="935" y="829" type="line" smooth="yes"/>
      <point x="953" y="829"/>
      <point x="965" y="818"/>
      <point x="965" y="800" type="curve" smooth="yes"/>
    </contour>
    <contour>
      <point x="945" y="200" type="curve" smooth="yes"/>
      <point x="945" y="800" type="line" smooth="yes"/>
      <point x="945" y="806"/>
      <point x="941" y="809"/>
      <point x="935" y="809" type="curve" smooth="yes"/>
      <point x="65" y="809" type="line" smooth="yes"/>
      <point x="59" y="809"/>
      <point x="55" y="806"/>
      <point x="55" y="800" type="curve" smooth="yes"/>
      <point x="55" y="200" type="line" smooth="yes"/>
      <point x="55" y="194"/>
      <point x="59" y="191"/>
      <point x="65" y="191" type="curve" smooth="yes"/>
      <point x="935" y="191" type="line" smooth="yes"/>
      <point x="941" y="191"/>
      <point x="945" y="194"/>
    </contour>
    <contour>
      <point x="849" y="602" type="line"/>
      <point x="622" y="444" type="line" smooth="yes"/>
      <point x="610" y="435"/>
      <point x="597" y="435"/>
      <point x="589" y="441" type="curve" smooth="yes"/>
      <point x="579" y="448"/>
      <point x="574" y="460"/>
      <point x="579" y="474" type="curve" smooth="yes"/>
      <point x="600" y="539" type="line"/>
      <point x="361" y="539" type="line" smooth="yes"/>
      <point x="353" y="539"/>
      <point x="350" y="536"/>
      <point x="350" y="528" type="curve" smooth="yes"/>
      <point x="350" y="260" type="line"/>
      <point x="224" y="260" type="line"/>
      <point x="224" y="629" type="line" smooth="yes"/>
      <point x="224" y="654"/>
      <point x="235" y="665"/>
      <point x="260" y="665" type="curve" smooth="yes"/>
      <point x="600" y="665" type="line"/>
      <point x="579" y="730" type="line" smooth="yes"/>
      <point x="574" y="744"/>
      <point x="579" y="756"/>
      <point x="589" y="763" type="curve" smooth="yes"/>
      <point x="597" y="769"/>
      <point x="610" y="769"/>
      <point x="622" y="760" type="curve" smooth="yes"/>
    </contour>
  </outline>
</glyph>
<glyph name="seven" format="1">
  <advance width="1000"/>
  <unicode hex="0037"/>
  <outline>
    <contour>
      <point x="987" y="200" type="line" smooth="yes"/>
      <point x="987" y="169"/>
      <point x="968" y="149"/>
      <point x="935" y="149" type="curve" smooth="yes"/>
      <point x="65" y="149" type="line" smooth="yes"/>
      <point x="32" y="149"/>
      <point x="13" y="169"/>
      <point x="13" y="200" type="curve" smooth="yes"/>
      <point x="13" y="800" type="line" smooth="yes"/>
      <point x="13" y="831"/>
      <point x="32" y="851"/>
      <point x="65" y="851" type="curve" smooth="yes"/>
      <point x="935" y="851" type="line" smooth="yes"/>
      <point x="968" y="851"/>
      <point x="987" y="831"/>
      <point x="987" y="800" type="curve" smooth="yes"/>
    </contour>
    <contour>
      <point x="984" y="200" type="curve" smooth="yes"/>
      <point x="984" y="800" type="line" smooth="yes"/>
      <point x="984" y="830"/>
      <point x="966" y="848"/>
      <point x="935" y="848" type="curve" smooth="yes"/>
      <point x="65" y="848" type="line" smooth="yes"/>
      <point x="34" y="848"/>
      <point x="16" y="830"/>
      <point x="16" y="800" type="curve" smooth="yes"/>
      <point x="16" y="200" type="line" smooth="yes"/>
      <point x="16" y="170"/>
      <point x="34" y="152"/>
      <point x="65" y="152" type="curve" smooth="yes"/>
      <point x="935" y="152" type="line" smooth="yes"/>
      <point x="966" y="152"/>
      <point x="984" y="170"/>
    </contour>
    <contour>
      <point x="965" y="200" type="line" smooth="yes"/>
      <point x="965" y="182"/>
      <point x="953" y="171"/>
      <point x="935" y="171" type="curve" smooth="yes"/>
      <point x="65" y="171" type="line" smooth="yes"/>
      <point x="47" y="171"/>
      <point x="35" y="182"/>
      <point x="35" y="200" type="curve" smooth="yes"/>
      <point x="35" y="800" type="line" smooth="yes"/>
      <point x="35" y="818"/>
      <point x="47" y="829"/>
      <point x="65" y="829" type="curve" smooth="yes"/>
      <point x="935" y="829" type="line" smooth="yes"/>
      <point x="953" y="829"/>
      <point x="965" y="818"/>
      <point x="965" y="800" type="curve" smooth="yes"/>
    </contour>
    <contour>
      <point x="945" y="200" type="curve" smooth="yes"/>
      <point x="945" y="800" type="line" smooth="yes"/>
      <point x="945" y="806"/>
      <point x="941" y="809"/>
      <point x="935" y="809" type="curve" smooth="yes"/>
      <point x="65" y="809" type="line" smooth="yes"/>
      <point x="59" y="809"/>
      <point x="55" y="806"/>
      <point x="55" y="800" type="curve" smooth="yes"/>
      <point x="55" y="200" type="line" smooth="yes"/>
      <point x="55" y="194"/>
      <point x="59" y="191"/>
      <point x="65" y="191" type="curve" smooth="yes"/>
      <point x="935" y="191" type="line" smooth="yes"/>
      <point x="941" y="191"/>
      <point x="945" y="194"/>
    </contour>
    <contour>
      <point x="834" y="359" type="line"/>
      <point x="641" y="225" type="line" smooth="yes"/>
      <point x="630" y="218"/>
      <point x="620" y="217"/>
      <point x="613" y="222" type="curve" smooth="yes"/>
      <point x="605" y="228"/>
      <point x="601" y="238"/>
      <point x="605" y="250" type="curve" smooth="yes"/>
      <point x="623" y="305" type="line"/>
      <point x="287" y="305" type="line"/>
      <point x="287" y="576" type="line"/>
      <point x="232" y="558" type="line" smooth="yes"/>
      <point x="220" y="554"/>
      <point x="210" y="558"/>
      <point x="204" y="566" type="curve" smooth="yes"/>
      <point x="199" y="573"/>
      <point x="200" y="583"/>
      <point x="207" y="594" type="curve" smooth="yes"/>
      <point x="341" y="787" type="line"/>
      <point x="475" y="594" type="line" smooth="yes"/>
      <point x="482" y="583"/>
      <point x="483" y="573"/>
      <point x="478" y="566" type="curve" smooth="yes"/>
      <point x="472" y="558"/>
      <point x="462" y="554"/>
      <point x="450" y="558" type="curve" smooth="yes"/>
      <point x="395" y="576" type="line"/>
      <point x="395" y="413" type="line"/>
      <point x="623" y="413" type="line"/>
      <point x="605" y="468" type="line" smooth="yes"/>
      <point x="601" y="480"/>
      <point x="605" y="490"/>
      <point x="613" y="496" type="curve" smooth="yes"/>
      <point x="620" y="501"/>
      <point x="630" y="500"/>
      <point x="641" y="493" type="curve" smooth="yes"/>
    </contour>
  </outline>
</glyph>
<glyph name="eight" format="1">
  <advance width="1000"/>
  <unicode hex="0038"/>
  <outline>
    <contour>
      <point x="987" y="200" type="line" smooth="yes"/>
      <point x="987" y="169"/>
      <point x="968" y="149"/>
      <point x="935" y="149" type="curve" smooth="yes"/>
      <point x="65" y="149" type="line" smooth="yes"/>
      <point x="32" y="149"/>
      <point x="13" y="169"/>
      <point x="13" y="200" type="curve" smooth="yes"/>
      <point x="13" y="800" type="line" smooth="yes"/>
      <point x="13" y="831"/>
      <point x="32" y="851"/>
      <point x="65" y="851" type="curve" smooth="yes"/>
      <point x="935" y="851" type="line" smooth="yes"/>
      <point x="968" y="851"/>
      <point x="987" y="831"/>
      <point x="987" y="800" type="curve" smooth="yes"/>
    </contour>
    <contour>
      <point x="984" y="200" type="curve" smooth="yes"/>
      <point x="984" y="800" type="line" smooth="yes"/>
      <point x="984" y="830"/>
      <point x="966" y="848"/>
      <point x="935" y="848" type="curve" smooth="yes"/>
      <point x="65" y="848" type="line" smooth="yes"/>
      <point x="34" y="848"/>
      <point x="16" y="830"/>
      <point x="16" y="800" type="curve" smooth="yes"/>
      <point x="16" y="200" type="line" smooth="yes"/>
      <point x="16" y="170"/>
      <point x="34" y="152"/>
      <point x="65" y="152" type="curve" smooth="yes"/>
      <point x="935" y="152" type="line" smooth="yes"/>
      <point x="966" y="152"/>
      <point x="984" y="170"/>
    </contour>
    <contour>
      <point x="965" y="200" type="line" smooth="yes"/>
      <point x="965" y="182"/>
      <point x="953" y="171"/>
      <point x="935" y="171" type="curve" smooth="yes"/>
      <point x="65" y="171" type="line" smooth="yes"/>
      <point x="47" y="171"/>
      <point x="35" y="182"/>
      <point x="35" y="200" type="curve" smooth="yes"/>
      <point x="35" y="800" type="line" smooth="yes"/>
      <point x="35" y="818"/>
      <point x="47" y="829"/>
      <point x="65" y="829" type="curve" smooth="yes"/>
      <point x="935" y="829" type="line" smooth="yes"/>
      <point x="953" y="829"/>
      <point x="965" y="818"/>
      <point x="965" y="800" type="curve" smooth="yes"/>
    </contour>
    <contour>
      <point x="945" y="200" type="curve" smooth="yes"/>
      <point x="945" y="800" type="line" smooth="yes"/>
      <point x="945" y="806"/>
      <point x="941" y="809"/>
      <point x="935" y="809" type="curve" smooth="yes"/>
      <point x="65" y="809" type="line" smooth="yes"/>
      <point x="59" y="809"/>
      <point x="55" y="806"/>
      <point x="55" y="800" type="curve" smooth="yes"/>
      <point x="55" y="200" type="line" smooth="yes"/>
      <point x="55" y="194"/>
      <point x="59" y="191"/>
      <point x="65" y="191" type="curve" smooth="yes"/>
      <point x="935" y="191" type="line" smooth="yes"/>
      <point x="941" y="191"/>
      <point x="945" y="194"/>
    </contour>
    <contour>
      <point x="820" y="609" type="line"/>
      <point x="738" y="389" type="line" smooth="yes"/>
      <point x="734" y="377"/>
      <point x="725" y="371"/>
      <point x="717" y="371" type="curve" smooth="yes"/>
      <point x="707" y="371"/>
      <point x="697" y="377"/>
      <point x="694" y="389" type="curve" smooth="yes"/>
      <point x="678" y="445" type="line"/>
      <point x="393" y="241" type="line"/>
      <point x="256" y="241" type="line"/>
      <point x="256" y="562" type="line"/>
      <point x="201" y="544" type="line" smooth="yes"/>
      <point x="189" y="540"/>
      <point x="179" y="544"/>
      <point x="173" y="552" type="curve" smooth="yes"/>
      <point x="168" y="559"/>
      <point x="169" y="570"/>
      <point x="176" y="580" type="curve" smooth="yes"/>
      <point x="310" y="773" type="line"/>
      <point x="444" y="580" type="line" smooth="yes"/>
      <point x="451" y="570"/>
      <point x="452" y="559"/>
      <point x="447" y="552" type="curve" smooth="yes"/>
      <point x="441" y="544"/>
      <point x="431" y="540"/>
      <point x="419" y="544" type="curve" smooth="yes"/>
      <point x="364" y="562" type="line"/>
      <point x="364" y="351" type="line"/>
      <point x="616" y="533" type="line"/>
      <point x="570" y="568" type="line" smooth="yes"/>
      <point x="560" y="576"/>
      <point x="557" y="586"/>
      <point x="560" y="596" type="curve" smooth="yes"/>
      <point x="563" y="604"/>
      <point x="572" y="609"/>
      <point x="585" y="609" type="curve" smooth="yes"/>
    </contour>
  </outline>
</glyph>
<glyph name="nine" format="1">
  <advance width="1000"/>
  <unicode hex="0039"/>
  <outline>
    <contour>
      <point x="989" y="595" type="curve" smooth="yes"/>
      <point x="989" y="200"/>
      <point x="646" y="25"/>
      <point x="500" y="5" type="curve"/>
      <point x="354" y="25"/>
      <point x="11" y="200"/>
      <point x="11" y="595" type="curve" smooth="yes"/>
      <point x="11" y="766"/>
      <point x="93" y="928"/>
      <point x="148" y="985" type="curve"/>
      <point x="212" y="960"/>
      <point x="265" y="955"/>
      <point x="323" y="955" type="curve" smooth="yes"/>
      <point x="382" y="955"/>
      <point x="437" y="960"/>
      <point x="500" y="984" type="curve"/>
      <point x="563" y="960"/>
      <point x="618" y="955"/>
      <point x="677" y="955" type="curve" smooth="yes"/>
      <point x="735" y="955"/>
      <point x="788" y="960"/>
      <point x="853" y="985" type="curve"/>
      <point x="907" y="928"/>
      <point x="989" y="766"/>
    </contour>
    <contour>
      <point x="986" y="595" type="curve" smooth="yes"/>
      <point x="986" y="765"/>
      <point x="905" y="927"/>
      <point x="852" y="981" type="curve"/>
      <point x="790" y="957"/>
      <point x="735" y="952"/>
      <point x="677" y="952" type="curve" smooth="yes"/>
      <point x="618" y="952"/>
      <point x="563" y="957"/>
      <point x="500" y="981" type="curve"/>
      <point x="437" y="957"/>
      <point x="382" y="952"/>
      <point x="323" y="952" type="curve" smooth="yes"/>
      <point x="265" y="952"/>
      <point x="211" y="958"/>
      <point x="149" y="982" type="curve"/>
      <point x="96" y="928"/>
      <point x="14" y="765"/>
      <point x="14" y="595" type="curve" smooth="yes"/>
      <point x="14" y="202"/>
      <point x="355" y="28"/>
      <point x="500" y="8" type="curve"/>
      <point x="645" y="28"/>
      <point x="986" y="202"/>
    </contour>
    <contour>
      <point x="937" y="775" type="curve"/>
      <point x="63" y="775" type="line"/>
      <point x="88" y="855"/>
      <point x="124" y="921"/>
      <point x="154" y="956" type="curve"/>
      <point x="213" y="935"/>
      <point x="267" y="931"/>
      <point x="323" y="931" type="curve" smooth="yes"/>
      <point x="382" y="931"/>
      <point x="438" y="936"/>
      <point x="500" y="958" type="curve"/>
      <point x="562" y="936"/>
      <point x="618" y="931"/>
      <point x="677" y="931" type="curve" smooth="yes"/>
      <point x="733" y="931"/>
      <point x="787" y="935"/>
      <point x="846" y="956" type="curve"/>
      <point x="876" y="921"/>
      <point x="912" y="855"/>
    </contour>
    <contour>
      <point x="965" y="595" type="curve" smooth="yes"/>
      <point x="965" y="220"/>
      <point x="642" y="50"/>
      <point x="500" y="29" type="curve"/>
      <point x="358" y="50"/>
      <point x="35" y="220"/>
      <point x="35" y="595" type="curve" smooth="yes"/>
      <point x="35" y="651"/>
      <point x="44" y="705"/>
      <point x="57" y="755" type="curve"/>
      <point x="943" y="755" type="line"/>
      <point x="956" y="705"/>
      <point x="965" y="651"/>
    </contour>
    <contour>
      <point x="802" y="797" type="line"/>
      <point x="802" y="811" type="line"/>
      <point x="767" y="811" type="line"/>
      <point x="767" y="843" type="line"/>
      <point x="789" y="843" type="line"/>
      <point x="789" y="857" type="line"/>
      <point x="767" y="857" type="line"/>
      <point x="767" y="883" type="line"/>
      <point x="800" y="883" type="line"/>
      <point x="800" y="897" type="line"/>
      <point x="753" y="897" type="line"/>
      <point x="753" y="797" type="line"/>
    </contour>
    <contour>
      <point x="740" y="883" type="line"/>
      <point x="740" y="897" type="line"/>
      <point x="690" y="897" type="line"/>
      <point x="690" y="883" type="line"/>
      <point x="708" y="883" type="line"/>
      <point x="708" y="797" type="line"/>
      <point x="722" y="797" type="line"/>
      <point x="722" y="883" type="line"/>
    </contour>
    <contour>
      <point x="687" y="797" type="line"/>
      <point x="663" y="897" type="line"/>
      <point x="648" y="897" type="line"/>
      <point x="624" y="797" type="line"/>
      <point x="638" y="797" type="line"/>
      <point x="644" y="823" type="line"/>
      <point x="666" y="823" type="line"/>
      <point x="672" y="797" type="line"/>
    </contour>
    <contour>
      <point x="618" y="883" type="line"/>
      <point x="618" y="897" type="line"/>
      <point x="568" y="897" type="line"/>
      <point x="568" y="883" type="line"/>
      <point x="586" y="883" type="line"/>
      <point x="586" y="797" type="line"/>
      <point x="600" y="797" type="line"/>
      <point x="600" y="883" type="line"/>
    </contour>
    <contour>
      <point x="556" y="823" type="curve" smooth="yes"/>
      <point x="556" y="840"/>
      <point x="546" y="847"/>
      <point x="533" y="855" type="curve" smooth="yes"/>
      <point x="522" y="862"/>
      <point x="519" y="867"/>
      <point x="519" y="874" type="curve" smooth="yes"/>
      <point x="519" y="880"/>
      <point x="523" y="884"/>
      <point x="529" y="884" type="curve" smooth="yes"/>
      <point x="536" y="884"/>
      <point x="539" y="882"/>
      <point x="544" y="876" type="curve"/>
      <point x="554" y="885" type="line"/>
      <point x="548" y="894"/>
      <point x="541" y="898"/>
      <point x="530" y="898" type="curve" smooth="yes"/>
      <point x="514" y="898"/>
      <point x="504" y="888"/>
      <point x="504" y="874" type="curve" smooth="yes"/>
      <point x="504" y="858"/>
      <point x="513" y="851"/>
      <point x="525" y="843" type="curve" smooth="yes"/>
      <point x="538" y="834"/>
      <point x="541" y="830"/>
      <point x="541" y="822" type="curve" smooth="yes"/>
      <point x="541" y="814"/>
      <point x="537" y="810"/>
      <point x="529" y="810" type="curve" smooth="yes"/>
      <point x="523" y="810"/>
      <point x="518" y="812"/>
      <point x="513" y="821" type="curve"/>
      <point x="502" y="812" type="line"/>
      <point x="508" y="802"/>
      <point x="516" y="796"/>
      <point x="528" y="796" type="curve" smooth="yes"/>
      <point x="546" y="796"/>
      <point x="556" y="807"/>
    </contour>
    <contour>
      <point x="489" y="797" type="line"/>
      <point x="473" y="843" type="line"/>
      <point x="482" y="847"/>
      <point x="488" y="855"/>
      <point x="488" y="869" type="curve" smooth="yes"/>
      <point x="488" y="889"/>
      <point x="475" y="897"/>
      <point x="461" y="897" type="curve" smooth="yes"/>
      <point x="433" y="897" type="line"/>
      <point x="433" y="797" type="line"/>
      <point x="447" y="797" type="line"/>
      <point x="447" y="841" type="line"/>
      <point x="458" y="841" type="line"/>
      <point x="473" y="797" type="line"/>
    </contour>
    <contour>
      <point x="415" y="797" type="line"/>
      <point x="415" y="811" type="line"/>
      <point x="380" y="811" type="line"/>
      <point x="380" y="843" type="line"/>
      <point x="402" y="843" type="line"/>
      <point x="402" y="857" type="line"/>
      <point x="380" y="857" type="line"/>
      <point x="380" y="883" type="line"/>
      <point x="413" y="883" type="line"/>
      <point x="413" y="897" type="line"/>
      <point x="366" y="897" type="line"/>
      <point x="366" y="797" type="line"/>
    </contour>
    <contour>
      <point x="348" y="883" type="line"/>
      <point x="348" y="897" type="line"/>
      <point x="298" y="897" type="line"/>
      <point x="298" y="883" type="line"/>
      <point x="316" y="883" type="line"/>
      <point x="316" y="797" type="line"/>
      <point x="330" y="797" type="line"/>
      <point x="330" y="883" type="line"/>
    </contour>
    <contour>
      <point x="282" y="797" type="line"/>
      <point x="282" y="897" type="line"/>
      <point x="268" y="897" type="line"/>
      <point x="268" y="833" type="line"/>
      <point x="240" y="897" type="line"/>
      <point x="226" y="897" type="line"/>
      <point x="226" y="797" type="line"/>
      <point x="240" y="797" type="line"/>
      <point x="240" y="867" type="line"/>
      <point x="270" y="797" type="line"/>
    </contour>
    <contour>
      <point x="206" y="797" type="line"/>
      <point x="206" y="897" type="line"/>
      <point x="192" y="897" type="line"/>
      <point x="192" y="797" type="line"/>
    </contour>
    <contour>
      <point x="474" y="869" type="curve" smooth="yes"/>
      <point x="474" y="859"/>
      <point x="469" y="854"/>
      <point x="460" y="854" type="curve" smooth="yes"/>
      <point x="447" y="854" type="line"/>
      <point x="447" y="883" type="line"/>
      <point x="460" y="883" type="line" smooth="yes"/>
      <point x="468" y="883"/>
      <point x="474" y="879"/>
    </contour>
    <contour>
      <point x="663" y="836" type="line"/>
      <point x="647" y="836" type="line"/>
      <point x="651" y="853" type="line"/>
      <point x="652" y="860"/>
      <point x="654" y="871"/>
      <point x="655" y="875" type="curve"/>
      <point x="656" y="871"/>
      <point x="658" y="860"/>
      <point x="659" y="853" type="curve"/>
    </contour>
  </outline>
</glyph>
<glyph name="colon" format="1">
  <advance width="1000"/>
  <unicode hex="003A"/>
  <outline>
    <contour>
      <point x="986" y="64" type="line" smooth="yes"/>
      <point x="986" y="33"/>
      <point x="967" y="13"/>
      <point x="934" y="13" type="curve" smooth="yes"/>
      <point x="66" y="13" type="line" smooth="yes"/>
      <point x="33" y="13"/>
      <point x="14" y="33"/>
      <point x="14" y="64" type="curve" smooth="yes"/>
      <point x="14" y="936" type="line" smooth="yes"/>
      <point x="14" y="967"/>
      <point x="33" y="987"/>
      <point x="66" y="987" type="curve" smooth="yes"/>
      <point x="934" y="987" type="line" smooth="yes"/>
      <point x="967" y="987"/>
      <point x="986" y="967"/>
      <point x="986" y="936" type="curve" smooth="yes"/>
    </contour>
    <contour>
      <point x="983" y="64" type="curve" smooth="yes"/>
      <point x="983" y="936" type="line" smooth="yes"/>
      <point x="983" y="966"/>
      <point x="965" y="984"/>
      <point x="934" y="984" type="curve" smooth="yes"/>
      <point x="66" y="984" type="line" smooth="yes"/>
      <point x="35" y="984"/>
      <point x="17" y="966"/>
      <point x="17" y="936" type="curve" smooth="yes"/>
      <point x="17" y="64" type="line" smooth="yes"/>
      <point x="17" y="34"/>
      <point x="35" y="16"/>
      <point x="66" y="16" type="curve" smooth="yes"/>
      <point x="934" y="16" type="line" smooth="yes"/>
      <point x="965" y="16"/>
      <point x="983" y="34"/>
    </contour>
    <contour>
      <point x="964" y="64" type="line" smooth="yes"/>
      <point x="964" y="46"/>
      <point x="952" y="35"/>
      <point x="934" y="35" type="curve" smooth="yes"/>
      <point x="66" y="35" type="line" smooth="yes"/>
      <point x="48" y="35"/>
      <point x="36" y="46"/>
      <point x="36" y="64" type="curve" smooth="yes"/>
      <point x="36" y="936" type="line" smooth="yes"/>
      <point x="36" y="954"/>
      <point x="48" y="965"/>
      <point x="66" y="965" type="curve" smooth="yes"/>
      <point x="934" y="965" type="line" smooth="yes"/>
      <point x="952" y="965"/>
      <point x="964" y="954"/>
      <point x="964" y="936" type="curve" smooth="yes"/>
    </contour>
    <contour>
      <point x="944" y="64" type="curve" smooth="yes"/>
      <point x="944" y="936" type="line" smooth="yes"/>
      <point x="944" y="942"/>
      <point x="940" y="945"/>
      <point x="934" y="945" type="curve" smooth="yes"/>
      <point x="66" y="945" type="line" smooth="yes"/>
      <point x="60" y="945"/>
      <point x="56" y="942"/>
      <point x="56" y="936" type="curve" smooth="yes"/>
      <point x="56" y="64" type="line" smooth="yes"/>
      <point x="56" y="58"/>
      <point x="60" y="55"/>
      <point x="66" y="55" type="curve" smooth="yes"/>
      <point x="934" y="55" type="line" smooth="yes"/>
      <point x="940" y="55"/>
      <point x="944" y="58"/>
    </contour>
    <contour>
      <point x="675" y="766" type="curve" smooth="yes"/>
      <point x="675" y="715"/>
      <point x="648" y="679"/>
      <point x="604" y="679" type="curve" smooth="yes"/>
      <point x="561" y="679"/>
      <point x="533" y="715"/>
      <point x="533" y="766" type="curve" smooth="yes"/>
      <point x="533" y="817"/>
      <point x="561" y="853"/>
      <point x="604" y="853" type="curve" smooth="yes"/>
      <point x="648" y="853"/>
      <point x="675" y="817"/>
    </contour>
    <contour>
      <point x="474" y="682" type="line"/>
      <point x="450" y="682" type="line"/>
      <point x="371" y="806" type="line"/>
      <point x="371" y="682" type="line"/>
      <point x="346" y="682" type="line"/>
      <point x="346" y="850" type="line"/>
      <point x="372" y="850" type="line"/>
      <point x="449" y="726" type="line"/>
      <point x="449" y="850" type="line"/>
      <point x="474" y="850" type="line"/>
    </contour>
    <contour>
      <point x="766" y="414" type="line"/>
      <point x="744" y="414" type="line"/>
      <point x="680" y="534" type="line"/>
      <point x="680" y="414" type="line"/>
      <point x="656" y="414" type="line"/>
      <point x="656" y="582" type="line"/>
      <point x="680" y="582" type="line"/>
      <point x="742" y="466" type="line"/>
      <point x="742" y="582" type="line"/>
      <point x="766" y="582" type="line"/>
    </contour>
    <contour>
      <point x="623" y="534" type="curve" smooth="yes"/>
      <point x="623" y="508"/>
      <point x="611" y="493"/>
      <point x="591" y="487" type="curve"/>
      <point x="622" y="414" type="line"/>
      <point x="594" y="414" type="line"/>
      <point x="565" y="484" type="line"/>
      <point x="536" y="484" type="line"/>
      <point x="536" y="414" type="line"/>
      <point x="512" y="414" type="line"/>
      <point x="512" y="582" type="line"/>
      <point x="572" y="582" type="line" smooth="yes"/>
      <point x="599" y="582"/>
      <point x="623" y="568"/>
    </contour>
    <contour>
      <point x="331" y="559" type="line"/>
      <point x="291" y="559" type="line"/>
      <point x="291" y="414" type="line"/>
      <point x="267" y="414" type="line"/>
      <point x="267" y="559" type="line"/>
      <point x="227" y="559" type="line"/>
      <point x="227" y="582" type="line"/>
      <point x="331" y="582" type="line"/>
    </contour>
    <contour>
      <point x="474" y="474" type="line" smooth="yes"/>
      <point x="474" y="434"/>
      <point x="453" y="411"/>
      <point x="418" y="411" type="curve" smooth="yes"/>
      <point x="385" y="411"/>
      <point x="363" y="435"/>
      <point x="363" y="473" type="curve" smooth="yes"/>
      <point x="363" y="582" type="line"/>
      <point x="387" y="582" type="line"/>
      <point x="387" y="474" type="line" smooth="yes"/>
      <point x="387" y="451"/>
      <point x="398" y="435"/>
      <point x="418" y="435" type="curve" smooth="yes"/>
      <point x="441" y="435"/>
      <point x="450" y="451"/>
      <point x="450" y="473" type="curve" smooth="yes"/>
      <point x="450" y="582" type="line"/>
      <point x="474" y="582" type="line"/>
    </contour>
    <contour>
      <point x="897" y="234" type="curve" smooth="yes"/>
      <point x="897" y="180"/>
      <point x="869" y="150"/>
      <point x="830" y="150" type="curve" smooth="yes"/>
      <point x="786" y="150" type="line"/>
      <point x="786" y="318" type="line"/>
      <point x="830" y="318" type="line" smooth="yes"/>
      <point x="871" y="318"/>
      <point x="897" y="288"/>
    </contour>
    <contour>
      <point x="751" y="150" type="line"/>
      <point x="654" y="150" type="line"/>
      <point x="654" y="318" type="line"/>
      <point x="748" y="318" type="line"/>
      <point x="748" y="295" type="line"/>
      <point x="679" y="295" type="line"/>
      <point x="679" y="252" type="line"/>
      <point x="721" y="252" type="line"/>
      <point x="721" y="228" type="line"/>
      <point x="679" y="228" type="line"/>
      <point x="679" y="174" type="line"/>
      <point x="751" y="174" type="line"/>
    </contour>
    <contour>
      <point x="616" y="270" type="curve" smooth="yes"/>
      <point x="616" y="244"/>
      <point x="604" y="229"/>
      <point x="584" y="223" type="curve"/>
      <point x="615" y="150" type="line"/>
      <point x="587" y="150" type="line"/>
      <point x="558" y="220" type="line"/>
      <point x="529" y="220" type="line"/>
      <point x="529" y="150" type="line"/>
      <point x="505" y="150" type="line"/>
      <point x="505" y="318" type="line"/>
      <point x="565" y="318" type="line" smooth="yes"/>
      <point x="592" y="318"/>
      <point x="616" y="304"/>
    </contour>
    <contour>
      <point x="368" y="150" type="line"/>
      <point x="347" y="150" type="line"/>
      <point x="282" y="271" type="line"/>
      <point x="282" y="150" type="line"/>
      <point x="258" y="150" type="line"/>
      <point x="258" y="318" type="line"/>
      <point x="282" y="318" type="line"/>
      <point x="344" y="202" type="line"/>
      <point x="344" y="318" type="line"/>
      <point x="368" y="318" type="line"/>
    </contour>
    <contour>
      <point x="223" y="234" type="curve" smooth="yes"/>
      <point x="223" y="184"/>
      <point x="201" y="147"/>
      <point x="162" y="147" type="curve" smooth="yes"/>
      <point x="122" y="147"/>
      <point x="101" y="184"/>
      <point x="101" y="234" type="curve" smooth="yes"/>
      <point x="101" y="284"/>
      <point x="122" y="321"/>
      <point x="162" y="321" type="curve" smooth="yes"/>
      <point x="202" y="321"/>
      <point x="223" y="284"/>
    </contour>
    <contour>
      <point x="650" y="766" type="curve" smooth="yes"/>
      <point x="650" y="804"/>
      <point x="634" y="827"/>
      <point x="604" y="827" type="curve" smooth="yes"/>
      <point x="575" y="827"/>
      <point x="559" y="804"/>
      <point x="559" y="766" type="curve" smooth="yes"/>
      <point x="559" y="728"/>
      <point x="575" y="705"/>
      <point x="604" y="705" type="curve" smooth="yes"/>
      <point x="634" y="705"/>
      <point x="650" y="728"/>
    </contour>
    <contour>
      <point x="598" y="533" type="curve" smooth="yes"/>
      <point x="598" y="550"/>
      <point x="587" y="559"/>
      <point x="571" y="559" type="curve" smooth="yes"/>
      <point x="536" y="559" type="line"/>
      <point x="536" y="507" type="line"/>
      <point x="571" y="507" type="line" smooth="yes"/>
      <point x="588" y="507"/>
      <point x="598" y="515"/>
    </contour>
    <contour>
      <point x="591" y="269" type="curve" smooth="yes"/>
      <point x="591" y="286"/>
      <point x="580" y="295"/>
      <point x="564" y="295" type="curve" smooth="yes"/>
      <point x="529" y="295" type="line"/>
      <point x="529" y="243" type="line"/>
      <point x="564" y="243" type="line" smooth="yes"/>
      <point x="581" y="243"/>
      <point x="591" y="251"/>
    </contour>
    <contour>
      <point x="872" y="234" type="curve" smooth="yes"/>
      <point x="872" y="266"/>
      <point x="861" y="294"/>
      <point x="830" y="294" type="curve" smooth="yes"/>
      <point x="811" y="294" type="line"/>
      <point x="811" y="174" type="line"/>
      <point x="830" y="174" type="line" smooth="yes"/>
      <point x="861" y="174"/>
      <point x="872" y="202"/>
    </contour>
    <contour>
      <point x="198" y="234" type="curve" smooth="yes"/>
      <point x="198" y="268"/>
      <point x="187" y="296"/>
      <point x="162" y="296" type="curve" smooth="yes"/>
      <point x="137" y="296"/>
      <point x="126" y="269"/>
      <point x="126" y="234" type="curve" smooth="yes"/>
      <point x="126" y="200"/>
      <point x="137" y="172"/>
      <point x="162" y="172" type="curve" smooth="yes"/>
      <point x="187" y="172"/>
      <point x="198" y="199"/>
    </contour>
  </outline>
</glyph>
<glyph name="semicolon" format="1">
  <advance width="1000"/>
  <unicode hex="003B"/>
  <outline>
    <contour>
      <point x="986" y="64" type="line" smooth="yes"/>
      <point x="986" y="33"/>
      <point x="967" y="13"/>
      <point x="934" y="13" type="curve" smooth="yes"/>
      <point x="66" y="13" type="line" smooth="yes"/>
      <point x="33" y="13"/>
      <point x="14" y="33"/>
      <point x="14" y="64" type="curve" smooth="yes"/>
      <point x="14" y="936" type="line" smooth="yes"/>
      <point x="14" y="967"/>
      <point x="33" y="987"/>
      <point x="66" y="987" type="curve" smooth="yes"/>
      <point x="934" y="987" type="line" smooth="yes"/>
      <point x="967" y="987"/>
      <point x="986" y="967"/>
      <point x="986" y="936" type="curve" smooth="yes"/>
    </contour>
    <contour>
      <point x="983" y="64" type="curve" smooth="yes"/>
      <point x="983" y="936" type="line" smooth="yes"/>
      <point x="983" y="966"/>
      <point x="965" y="984"/>
      <point x="934" y="984" type="curve" smooth="yes"/>
      <point x="66" y="984" type="line" smooth="yes"/>
      <point x="35" y="984"/>
      <point x="17" y="966"/>
      <point x="17" y="936" type="curve" smooth="yes"/>
      <point x="17" y="64" type="line" smooth="yes"/>
      <point x="17" y="34"/>
      <point x="35" y="16"/>
      <point x="66" y="16" type="curve" smooth="yes"/>
      <point x="934" y="16" type="line" smooth="yes"/>
      <point x="965" y="16"/>
      <point x="983" y="34"/>
    </contour>
    <contour>
      <point x="964" y="64" type="line" smooth="yes"/>
      <point x="964" y="46"/>
      <point x="952" y="35"/>
      <point x="934" y="35" type="curve" smooth="yes"/>
      <point x="66" y="35" type="line" smooth="yes"/>
      <point x="48" y="35"/>
      <point x="36" y="46"/>
      <point x="36" y="64" type="curve" smooth="yes"/>
      <point x="36" y="936" type="line" smooth="yes"/>
      <point x="36" y="954"/>
      <point x="48" y="965"/>
      <point x="66" y="965" type="curve" smooth="yes"/>
      <point x="934" y="965" type="line" smooth="yes"/>
      <point x="952" y="965"/>
      <point x="964" y="954"/>
      <point x="964" y="936" type="curve" smooth="yes"/>
    </contour>
    <contour>
      <point x="944" y="64" type="curve" smooth="yes"/>
      <point x="944" y="936" type="line" smooth="yes"/>
      <point x="944" y="942"/>
      <point x="940" y="945"/>
      <point x="934" y="945" type="curve" smooth="yes"/>
      <point x="66" y="945" type="line" smooth="yes"/>
      <point x="60" y="945"/>
      <point x="56" y="942"/>
      <point x="56" y="936" type="curve" smooth="yes"/>
      <point x="56" y="64" type="line" smooth="yes"/>
      <point x="56" y="58"/>
      <point x="60" y="55"/>
      <point x="66" y="55" type="curve" smooth="yes"/>
      <point x="934" y="55" type="line" smooth="yes"/>
      <point x="940" y="55"/>
      <point x="944" y="58"/>
    </contour>
    <contour>
      <point x="718" y="683" type="curve" smooth="yes"/>
      <point x="718" y="608"/>
      <point x="686" y="553"/>
      <point x="627" y="553" type="curve" smooth="yes"/>
      <point x="568" y="553"/>
      <point x="536" y="608"/>
      <point x="536" y="683" type="curve" smooth="yes"/>
      <point x="536" y="758"/>
      <point x="568" y="813"/>
      <point x="627" y="813" type="curve" smooth="yes"/>
      <point x="686" y="813"/>
      <point x="718" y="758"/>
    </contour>
    <contour>
      <point x="480" y="557" type="line"/>
      <point x="448" y="557" type="line"/>
      <point x="367" y="703" type="line" smooth="yes"/>
      <point x="361" y="713"/>
      <point x="353" y="730"/>
      <point x="349" y="737" type="curve"/>
      <point x="350" y="728"/>
      <point x="350" y="698"/>
      <point x="350" y="685" type="curve" smooth="yes"/>
      <point x="350" y="557" type="line"/>
      <point x="314" y="557" type="line"/>
      <point x="314" y="809" type="line"/>
      <point x="351" y="809" type="line"/>
      <point x="426" y="672" type="line" smooth="yes"/>
      <point x="432" y="662"/>
      <point x="441" y="642"/>
      <point x="445" y="635" type="curve"/>
      <point x="445" y="644"/>
      <point x="444" y="675"/>
      <point x="444" y="688" type="curve" smooth="yes"/>
      <point x="444" y="809" type="line"/>
      <point x="480" y="809" type="line"/>
    </contour>
    <contour>
      <point x="887" y="248" type="curve" smooth="yes"/>
      <point x="887" y="212"/>
      <point x="865" y="187"/>
      <point x="820" y="187" type="curve" smooth="yes"/>
      <point x="791" y="187"/>
      <point x="769" y="200"/>
      <point x="754" y="221" type="curve"/>
      <point x="777" y="241" type="line"/>
      <point x="790" y="224"/>
      <point x="805" y="217"/>
      <point x="822" y="217" type="curve" smooth="yes"/>
      <point x="844" y="217"/>
      <point x="856" y="227"/>
      <point x="856" y="246" type="curve" smooth="yes"/>
      <point x="856" y="262"/>
      <point x="846" y="271"/>
      <point x="815" y="285" type="curve" smooth="yes"/>
      <point x="781" y="300"/>
      <point x="761" y="313"/>
      <point x="761" y="348" type="curve" smooth="yes"/>
      <point x="761" y="382"/>
      <point x="786" y="403"/>
      <point x="822" y="403" type="curve" smooth="yes"/>
      <point x="848" y="403"/>
      <point x="866" y="393"/>
      <point x="882" y="375" type="curve"/>
      <point x="860" y="354" type="line"/>
      <point x="848" y="368"/>
      <point x="837" y="373"/>
      <point x="820" y="373" type="curve" smooth="yes"/>
      <point x="801" y="373"/>
      <point x="792" y="363"/>
      <point x="792" y="349" type="curve" smooth="yes"/>
      <point x="792" y="334"/>
      <point x="800" y="326"/>
      <point x="830" y="313" type="curve" smooth="yes"/>
      <point x="864" y="298"/>
      <point x="887" y="284"/>
    </contour>
    <contour>
      <point x="731" y="190" type="line"/>
      <point x="704" y="190" type="line"/>
      <point x="623" y="340" type="line"/>
      <point x="623" y="190" type="line"/>
      <point x="593" y="190" type="line"/>
      <point x="593" y="400" type="line"/>
      <point x="624" y="400" type="line"/>
      <point x="701" y="255" type="line"/>
      <point x="701" y="400" type="line"/>
      <point x="731" y="400" type="line"/>
    </contour>
    <contour>
      <point x="564" y="340" type="curve" smooth="yes"/>
      <point x="564" y="308"/>
      <point x="549" y="289"/>
      <point x="525" y="281" type="curve"/>
      <point x="563" y="190" type="line"/>
      <point x="528" y="190" type="line"/>
      <point x="491" y="277" type="line"/>
      <point x="456" y="277" type="line"/>
      <point x="456" y="190" type="line"/>
      <point x="426" y="190" type="line"/>
      <point x="426" y="400" type="line"/>
      <point x="501" y="400" type="line" smooth="yes"/>
      <point x="535" y="400"/>
      <point x="564" y="382"/>
    </contour>
    <contour>
      <point x="230" y="371" type="line"/>
      <point x="180" y="371" type="line"/>
      <point x="180" y="190" type="line"/>
      <point x="150" y="190" type="line"/>
      <point x="150" y="371" type="line"/>
      <point x="100" y="371" type="line"/>
      <point x="100" y="400" type="line"/>
      <point x="230" y="400" type="line"/>
    </contour>
    <contour>
      <point x="393" y="265" type="line" smooth="yes"/>
      <point x="393" y="215"/>
      <point x="367" y="186"/>
      <point x="324" y="186" type="curve" smooth="yes"/>
      <point x="282" y="186"/>
      <point x="255" y="216"/>
      <point x="255" y="264" type="curve" smooth="yes"/>
      <point x="255" y="400" type="line"/>
      <point x="285" y="400" type="line"/>
      <point x="285" y="265" type="line" smooth="yes"/>
      <point x="285" y="236"/>
      <point x="299" y="217"/>
      <point x="324" y="217" type="curve" smooth="yes"/>
      <point x="352" y="217"/>
      <point x="363" y="237"/>
      <point x="363" y="264" type="curve" smooth="yes"/>
      <point x="363" y="400" type="line"/>
      <point x="393" y="400" type="line"/>
    </contour>
    <contour>
      <point x="681" y="683" type="curve" smooth="yes"/>
      <point x="681" y="734"/>
      <point x="664" y="777"/>
      <point x="627" y="777" type="curve" smooth="yes"/>
      <point x="589" y="777"/>
      <point x="573" y="735"/>
      <point x="573" y="683" type="curve" smooth="yes"/>
      <point x="573" y="632"/>
      <point x="590" y="589"/>
      <point x="627" y="589" type="curve" smooth="yes"/>
      <point x="665" y="589"/>
      <point x="681" y="631"/>
    </contour>
    <contour>
      <point x="533" y="339" type="curve" smooth="yes"/>
      <point x="533" y="360"/>
      <point x="520" y="371"/>
      <point x="500" y="371" type="curve" smooth="yes"/>
      <point x="456" y="371" type="line"/>
      <point x="456" y="306" type="line"/>
      <point x="500" y="306" type="line" smooth="yes"/>
      <point x="520" y="306"/>
      <point x="533" y="316"/>
    </contour>
  </outline>
</glyph>
<glyph name="equal" format="1">
  <advance width="1000"/>
  <unicode hex="003D"/>
  <outline>
    <contour>
      <point x="987" y="306" type="line" smooth="yes"/>
      <point x="987" y="275"/>
      <point x="968" y="255"/>
      <point x="935" y="255" type="curve" smooth="yes"/>
      <point x="65" y="255" type="line" smooth="yes"/>
      <point x="32" y="255"/>
      <point x="13" y="275"/>
      <point x="13" y="306" type="curve" smooth="yes"/>
      <point x="13" y="694" type="line" smooth="yes"/>
      <point x="13" y="725"/>
      <point x="32" y="745"/>
      <point x="65" y="745" type="curve" smooth="yes"/>
      <point x="935" y="745" type="line" smooth="yes"/>
      <point x="968" y="745"/>
      <point x="987" y="725"/>
      <point x="987" y="694" type="curve" smooth="yes"/>
    </contour>
    <contour>
      <point x="984" y="306" type="curve" smooth="yes"/>
      <point x="984" y="694" type="line" smooth="yes"/>
      <point x="984" y="724"/>
      <point x="966" y="742"/>
      <point x="935" y="742" type="curve" smooth="yes"/>
      <point x="65" y="742" type="line" smooth="yes"/>
      <point x="34" y="742"/>
      <point x="16" y="724"/>
      <point x="16" y="694" type="curve" smooth="yes"/>
      <point x="16" y="306" type="line" smooth="yes"/>
      <point x="16" y="276"/>
      <point x="34" y="258"/>
      <point x="65" y="258" type="curve" smooth="yes"/>
      <point x="935" y="258" type="line" smooth="yes"/>
      <point x="966" y="258"/>
      <point x="984" y="276"/>
    </contour>
    <contour>
      <point x="965" y="306" type="line" smooth="yes"/>
      <point x="965" y="288"/>
      <point x="953" y="277"/>
      <point x="935" y="277" type="curve" smooth="yes"/>
      <point x="65" y="277" type="line" smooth="yes"/>
      <point x="47" y="277"/>
      <point x="35" y="288"/>
      <point x="35" y="306" type="curve" smooth="yes"/>
      <point x="35" y="694" type="line" smooth="yes"/>
      <point x="35" y="712"/>
      <point x="47" y="723"/>
      <point x="65" y="723" type="curve" smooth="yes"/>
      <point x="935" y="723" type="line" smooth="yes"/>
      <point x="953" y="723"/>
      <point x="965" y="712"/>
      <point x="965" y="694" type="curve" smooth="yes"/>
    </contour>
    <contour>
      <point x="945" y="306" type="curve" smooth="yes"/>
      <point x="945" y="694" type="line" smooth="yes"/>
      <point x="945" y="700"/>
      <point x="941" y="703"/>
      <point x="935" y="703" type="curve" smooth="yes"/>
      <point x="65" y="703" type="line" smooth="yes"/>
      <point x="59" y="703"/>
      <point x="55" y="700"/>
      <point x="55" y="694" type="curve" smooth="yes"/>
      <point x="55" y="306" type="line" smooth="yes"/>
      <point x="55" y="300"/>
      <point x="59" y="297"/>
      <point x="65" y="297" type="curve" smooth="yes"/>
      <point x="935" y="297" type="line" smooth="yes"/>
      <point x="941" y="297"/>
      <point x="945" y="300"/>
    </contour>
    <contour>
      <point x="845" y="583" type="line"/>
      <point x="800" y="583" type="line"/>
      <point x="800" y="372" type="line"/>
      <point x="766" y="372" type="line"/>
      <point x="766" y="583" type="line"/>
      <point x="721" y="583" type="line"/>
      <point x="721" y="617" type="line"/>
      <point x="845" y="617" type="line"/>
    </contour>
    <contour>
      <point x="509" y="372" type="line"/>
      <point x="389" y="372" type="line"/>
      <point x="389" y="617" type="line"/>
      <point x="504" y="617" type="line"/>
      <point x="504" y="583" type="line"/>
      <point x="423" y="583" type="line"/>
      <point x="423" y="519" type="line"/>
      <point x="476" y="519" type="line"/>
      <point x="476" y="485" type="line"/>
      <point x="423" y="485" type="line"/>
      <point x="423" y="406" type="line"/>
      <point x="509" y="406" type="line"/>
    </contour>
    <contour>
      <point x="348" y="617" type="line"/>
      <point x="304" y="372" type="line"/>
      <point x="278" y="372" type="line"/>
      <point x="249" y="525" type="line"/>
      <point x="221" y="372" type="line"/>
      <point x="195" y="372" type="line"/>
      <point x="152" y="617" type="line"/>
      <point x="186" y="617" type="line"/>
      <point x="212" y="455" type="line"/>
      <point x="237" y="617" type="line"/>
      <point x="264" y="617" type="line"/>
      <point x="290" y="455" type="line"/>
      <point x="315" y="617" type="line"/>
    </contour>
    <contour>
      <point x="682" y="434" type="curve" smooth="yes"/>
      <point x="682" y="395"/>
      <point x="659" y="367"/>
      <point x="616" y="367" type="curve" smooth="yes"/>
      <point x="585" y="367"/>
      <point x="565" y="383"/>
      <point x="551" y="407" type="curve"/>
      <point x="578" y="429" type="line"/>
      <point x="591" y="408"/>
      <point x="603" y="402"/>
      <point x="618" y="402" type="curve" smooth="yes"/>
      <point x="636" y="402"/>
      <point x="647" y="413"/>
      <point x="647" y="433" type="curve" smooth="yes"/>
      <point x="647" y="452"/>
      <point x="639" y="462"/>
      <point x="606" y="484" type="curve" smooth="yes"/>
      <point x="579" y="502"/>
      <point x="557" y="520"/>
      <point x="557" y="559" type="curve" smooth="yes"/>
      <point x="557" y="594"/>
      <point x="581" y="620"/>
      <point x="619" y="620" type="curve" smooth="yes"/>
      <point x="647" y="620"/>
      <point x="664" y="608"/>
      <point x="678" y="587" type="curve"/>
      <point x="653" y="564" type="line"/>
      <point x="641" y="580"/>
      <point x="633" y="586"/>
      <point x="618" y="586" type="curve" smooth="yes"/>
      <point x="601" y="586"/>
      <point x="592" y="575"/>
      <point x="592" y="560" type="curve" smooth="yes"/>
      <point x="592" y="541"/>
      <point x="601" y="531"/>
      <point x="628" y="514" type="curve" smooth="yes"/>
      <point x="658" y="494"/>
      <point x="682" y="475"/>
    </contour>
  </outline>
</glyph>
<glyph name="question" format="1">
  <advance width="1000"/>
  <unicode hex="003F"/>
  <outline>
    <contour>
      <point x="986" y="308" type="line" smooth="yes"/>
      <point x="986" y="278"/>
      <point x="967" y="258"/>
      <point x="935" y="258" type="curve" smooth="yes"/>
      <point x="65" y="258" type="line" smooth="yes"/>
      <point x="33" y="258"/>
      <point x="14" y="278"/>
      <point x="14" y="308" type="curve" smooth="yes"/>
      <point x="14" y="692" type="line" smooth="yes"/>
      <point x="14" y="722"/>
      <point x="33" y="742"/>
      <point x="65" y="742" type="curve" smooth="yes"/>
      <point x="935" y="742" type="line" smooth="yes"/>
      <point x="967" y="742"/>
      <point x="986" y="722"/>
      <point x="986" y="692" type="curve" smooth="yes"/>
    </contour>
  </outline>
</glyph>
<glyph name="D" format="1">
  <advance width="1000"/>
  <unicode hex="0044"/>
  <outline>
    <contour>
      <point x="894" y="64" type="line" smooth="yes"/>
      <point x="894" y="33"/>
      <point x="875" y="13"/>
      <point x="842" y="13" type="curve" smooth="yes"/>
      <point x="158" y="13" type="line" smooth="yes"/>
      <point x="125" y="13"/>
      <point x="106" y="33"/>
      <point x="106" y="64" type="curve" smooth="yes"/>
      <point x="106" y="936" type="line" smooth="yes"/>
      <point x="106" y="967"/>
      <point x="125" y="987"/>
      <point x="158" y="987" type="curve" smooth="yes"/>
      <point x="842" y="987" type="line" smooth="yes"/>
      <point x="875" y="987"/>
      <point x="894" y="967"/>
      <point x="894" y="936" type="curve" smooth="yes"/>
    </contour>
    <contour>
      <point x="891" y="64" type="curve" smooth="yes"/>
      <point x="891" y="936" type="line" smooth="yes"/>
      <point x="891" y="966"/>
      <point x="873" y="984"/>
      <point x="842" y="984" type="curve" smooth="yes"/>
      <point x="158" y="984" type="line" smooth="yes"/>
      <point x="127" y="984"/>
      <point x="109" y="966"/>
      <point x="109" y="936" type="curve" smooth="yes"/>
      <point x="109" y="64" type="line" smooth="yes"/>
      <point x="109" y="34"/>
      <point x="127" y="16"/>
      <point x="158" y="16" type="curve" smooth="yes"/>
      <point x="842" y="16" type="line" smooth="yes"/>
      <point x="873" y="16"/>
      <point x="891" y="34"/>
    </contour>
    <contour>
      <point x="872" y="64" type="line" smooth="yes"/>
      <point x="872" y="46"/>
      <point x="860" y="35"/>
      <point x="842" y="35" type="curve" smooth="yes"/>
      <point x="158" y="35" type="line" smooth="yes"/>
      <point x="140" y="35"/>
      <point x="128" y="46"/>
      <point x="128" y="64" type="curve" smooth="yes"/>
      <point x="128" y="936" type="line" smooth="yes"/>
      <point x="128" y="954"/>
      <point x="140" y="965"/>
      <point x="158" y="965" type="curve" smooth="yes"/>
      <point x="842" y="965" type="line" smooth="yes"/>
      <point x="860" y="965"/>
      <point x="872" y="954"/>
      <point x="872" y="936" type="curve" smooth="yes"/>
    </contour>
    <contour>
      <point x="852" y="64" type="curve" smooth="yes"/>
      <point x="852" y="936" type="line" smooth="yes"/>
      <point x="852" y="942"/>
      <point x="848" y="945"/>
      <point x="842" y="945" type="curve" smooth="yes"/>
      <point x="158" y="945" type="line" smooth="yes"/>
      <point x="152" y="945"/>
      <point x="148" y="942"/>
      <point x="148" y="936" type="curve" smooth="yes"/>
      <point x="148" y="64" type="line" smooth="yes"/>
      <point x="148" y="58"/>
      <point x="152" y="55"/>
      <point x="158" y="55" type="curve" smooth="yes"/>
      <point x="842" y="55" type="line" smooth="yes"/>
      <point x="848" y="55"/>
      <point x="852" y="58"/>
    </contour>
    <contour>
      <point x="765" y="802" type="curve" smooth="yes"/>
      <point x="765" y="768"/>
      <point x="742" y="750"/>
      <point x="713" y="750" type="curve" smooth="yes"/>
      <point x="680" y="750" type="line"/>
      <point x="680" y="685" type="line"/>
      <point x="656" y="685" type="line"/>
      <point x="656" y="853" type="line"/>
      <point x="714" y="853" type="line" smooth="yes"/>
      <point x="740" y="853"/>
      <point x="765" y="837"/>
    </contour>
    <contour>
      <point x="622" y="685" type="line"/>
      <point x="525" y="685" type="line"/>
      <point x="525" y="853" type="line"/>
      <point x="619" y="853" type="line"/>
      <point x="619" y="830" type="line"/>
      <point x="550" y="830" type="line"/>
      <point x="550" y="787" type="line"/>
      <point x="592" y="787" type="line"/>
      <point x="592" y="763" type="line"/>
      <point x="550" y="763" type="line"/>
      <point x="550" y="709" type="line"/>
      <point x="622" y="709" type="line"/>
    </contour>
    <contour>
      <point x="494" y="685" type="line"/>
      <point x="397" y="685" type="line"/>
      <point x="397" y="853" type="line"/>
      <point x="491" y="853" type="line"/>
      <point x="491" y="830" type="line"/>
      <point x="422" y="830" type="line"/>
      <point x="422" y="787" type="line"/>
      <point x="464" y="787" type="line"/>
      <point x="464" y="763" type="line"/>
      <point x="422" y="763" type="line"/>
      <point x="422" y="709" type="line"/>
      <point x="494" y="709" type="line"/>
    </contour>
    <contour>
      <point x="368" y="685" type="line"/>
      <point x="341" y="685" type="line"/>
      <point x="301" y="770" type="line"/>
      <point x="280" y="741" type="line"/>
      <point x="280" y="685" type="line"/>
      <point x="255" y="685" type="line"/>
      <point x="255" y="853" type="line"/>
      <point x="280" y="853" type="line"/>
      <point x="280" y="775" type="line"/>
      <point x="333" y="853" type="line"/>
      <point x="362" y="853" type="line"/>
      <point x="319" y="793" type="line"/>
    </contour>
    <contour>
      <point x="749" y="453" type="line"/>
      <point x="411" y="453" type="line"/>
      <point x="427" y="404" type="line" smooth="yes"/>
      <point x="430" y="394"/>
      <point x="427" y="385"/>
      <point x="419" y="379" type="curve" smooth="yes"/>
      <point x="413" y="375"/>
      <point x="404" y="376"/>
      <point x="395" y="382" type="curve" smooth="yes"/>
      <point x="224" y="500" type="line"/>
      <point x="395" y="619" type="line" smooth="yes"/>
      <point x="404" y="625"/>
      <point x="413" y="625"/>
      <point x="419" y="621" type="curve" smooth="yes"/>
      <point x="427" y="616"/>
      <point x="431" y="607"/>
      <point x="427" y="596" type="curve" smooth="yes"/>
      <point x="411" y="547" type="line"/>
      <point x="749" y="547" type="line"/>
    </contour>
    <contour>
      <point x="739" y="309" type="line"/>
      <point x="699" y="309" type="line"/>
      <point x="699" y="165" type="line"/>
      <point x="675" y="165" type="line"/>
      <point x="675" y="309" type="line"/>
      <point x="635" y="309" type="line"/>
      <point x="635" y="333" type="line"/>
      <point x="739" y="333" type="line"/>
    </contour>
    <contour>
      <point x="613" y="309" type="line"/>
      <point x="543" y="309" type="line"/>
      <point x="543" y="264" type="line"/>
      <point x="586" y="264" type="line"/>
      <point x="586" y="240" type="line"/>
      <point x="543" y="240" type="line"/>
      <point x="543" y="165" type="line"/>
      <point x="519" y="165" type="line"/>
      <point x="519" y="333" type="line"/>
      <point x="613" y="333" type="line"/>
    </contour>
    <contour>
      <point x="488" y="165" type="line"/>
      <point x="391" y="165" type="line"/>
      <point x="391" y="333" type="line"/>
      <point x="485" y="333" type="line"/>
      <point x="485" y="310" type="line"/>
      <point x="416" y="310" type="line"/>
      <point x="416" y="267" type="line"/>
      <point x="458" y="267" type="line"/>
      <point x="458" y="243" type="line"/>
      <point x="416" y="243" type="line"/>
      <point x="416" y="189" type="line"/>
      <point x="488" y="189" type="line"/>
    </contour>
    <contour>
      <point x="369" y="165" type="line"/>
      <point x="276" y="165" type="line"/>
      <point x="276" y="333" type="line"/>
      <point x="300" y="333" type="line"/>
      <point x="300" y="189" type="line"/>
      <point x="369" y="189" type="line"/>
    </contour>
    <contour>
      <point x="740" y="802" type="curve" smooth="yes"/>
      <point x="740" y="820"/>
      <point x="728" y="829"/>
      <point x="713" y="829" type="curve" smooth="yes"/>
      <point x="680" y="829" type="line"/>
      <point x="680" y="774" type="line"/>
      <point x="713" y="774" type="line" smooth="yes"/>
      <point x="730" y="774"/>
      <point x="740" y="784"/>
    </contour>
  </outline>
</glyph>
<glyph name="G" format="1">
  <advance width="1000"/>
  <unicode hex="0047"/>
  <outline>
    <contour>
      <point x="894" y="64" type="line" smooth="yes"/>
      <point x="894" y="33"/>
      <point x="875" y="13"/>
      <point x="842" y="13" type="curve" smooth="yes"/>
      <point x="158" y="13" type="line" smooth="yes"/>
      <point x="125" y="13"/>
      <point x="106" y="33"/>
      <point x="106" y="64" type="curve" smooth="yes"/>
      <point x="106" y="936" type="line" smooth="yes"/>
      <point x="106" y="967"/>
      <point x="125" y="987"/>
      <point x="158" y="987" type="curve" smooth="yes"/>
      <point x="842" y="987" type="line" smooth="yes"/>
      <point x="875" y="987"/>
      <point x="894" y="967"/>
      <point x="894" y="936" type="curve" smooth="yes"/>
    </contour>
    <contour>
      <point x="891" y="64" type="curve" smooth="yes"/>
      <point x="891" y="936" type="line" smooth="yes"/>
      <point x="891" y="966"/>
      <point x="873" y="984"/>
      <point x="842" y="984" type="curve" smooth="yes"/>
      <point x="158" y="984" type="line" smooth="yes"/>
      <point x="127" y="984"/>
      <point x="109" y="966"/>
      <point x="109" y="936" type="curve" smooth="yes"/>
      <point x="109" y="64" type="line" smooth="yes"/>
      <point x="109" y="34"/>
      <point x="127" y="16"/>
      <point x="158" y="16" type="curve" smooth="yes"/>
      <point x="842" y="16" type="line" smooth="yes"/>
      <point x="873" y="16"/>
      <point x="891" y="34"/>
    </contour>
    <contour>
      <point x="872" y="64" type="line" smooth="yes"/>
      <point x="872" y="46"/>
      <point x="860" y="35"/>
      <point x="842" y="35" type="curve" smooth="yes"/>
      <point x="158" y="35" type="line" smooth="yes"/>
      <point x="140" y="35"/>
      <point x="128" y="46"/>
      <point x="128" y="64" type="curve" smooth="yes"/>
      <point x="128" y="936" type="line" smooth="yes"/>
      <point x="128" y="954"/>
      <point x="140" y="965"/>
      <point x="158" y="965" type="curve" smooth="yes"/>
      <point x="842" y="965" type="line" smooth="yes"/>
      <point x="860" y="965"/>
      <point x="872" y="954"/>
      <point x="872" y="936" type="curve" smooth="yes"/>
    </contour>
    <contour>
      <point x="852" y="64" type="curve" smooth="yes"/>
      <point x="852" y="936" type="line" smooth="yes"/>
      <point x="852" y="942"/>
      <point x="848" y="945"/>
      <point x="842" y="945" type="curve" smooth="yes"/>
      <point x="158" y="945" type="line" smooth="yes"/>
      <point x="152" y="945"/>
      <point x="148" y="942"/>
      <point x="148" y="936" type="curve" smooth="yes"/>
      <point x="148" y="64" type="line" smooth="yes"/>
      <point x="148" y="58"/>
      <point x="152" y="55"/>
      <point x="158" y="55" type="curve" smooth="yes"/>
      <point x="842" y="55" type="line" smooth="yes"/>
      <point x="848" y="55"/>
      <point x="852" y="58"/>
    </contour>
    <contour>
      <point x="733" y="697" type="curve" smooth="yes"/>
      <point x="728" y="689"/>
      <point x="719" y="685"/>
      <point x="708" y="689" type="curve" smooth="yes"/>
      <point x="659" y="705" type="line"/>
      <point x="659" y="185" type="line"/>
      <point x="659" y="114" type="line"/>
      <point x="559" y="114" type="line"/>
      <point x="559" y="270" type="line" smooth="yes"/>
      <point x="559" y="321"/>
      <point x="539" y="369"/>
      <point x="505" y="403" type="curve" smooth="yes"/>
      <point x="473" y="436"/>
      <point x="423" y="463"/>
      <point x="373" y="464" type="curve"/>
      <point x="376" y="412" type="line" smooth="yes"/>
      <point x="377" y="402"/>
      <point x="371" y="394"/>
      <point x="362" y="390" type="curve"/>
      <point x="355" y="388"/>
      <point x="345" y="392"/>
      <point x="338" y="400" type="curve" smooth="yes"/>
      <point x="205" y="558" type="line"/>
      <point x="400" y="628" type="line" smooth="yes"/>
      <point x="410" y="632"/>
      <point x="420" y="629"/>
      <point x="424" y="624" type="curve"/>
      <point x="431" y="617"/>
      <point x="433" y="608"/>
      <point x="426" y="598" type="curve" smooth="yes"/>
      <point x="398" y="555" type="line"/>
      <point x="458" y="547"/>
      <point x="520" y="523"/>
      <point x="565" y="482" type="curve"/>
      <point x="565" y="705" type="line"/>
      <point x="516" y="689" type="line" smooth="yes"/>
      <point x="506" y="686"/>
      <point x="497" y="689"/>
      <point x="491" y="697" type="curve" smooth="yes"/>
      <point x="487" y="703"/>
      <point x="487" y="713"/>
      <point x="494" y="722" type="curve" smooth="yes"/>
      <point x="612" y="892" type="line"/>
      <point x="731" y="722" type="line" smooth="yes"/>
      <point x="737" y="713"/>
      <point x="737" y="703"/>
    </contour>
  </outline>
</glyph>
<glyph name="H" format="1">
  <advance width="1000"/>
  <unicode hex="0048"/>
  <outline>
    <contour>
      <point x="874" y="64" type="line" smooth="yes"/>
      <point x="874" y="33"/>
      <point x="855" y="13"/>
      <point x="822" y="13" type="curve" smooth="yes"/>
      <point x="178" y="13" type="line" smooth="yes"/>
      <point x="145" y="13"/>
      <point x="126" y="33"/>
      <point x="126" y="64" type="curve" smooth="yes"/>
      <point x="126" y="936" type="line" smooth="yes"/>
      <point x="126" y="967"/>
      <point x="145" y="987"/>
      <point x="178" y="987" type="curve" smooth="yes"/>
      <point x="822" y="987" type="line" smooth="yes"/>
      <point x="855" y="987"/>
      <point x="874" y="967"/>
      <point x="874" y="936" type="curve" smooth="yes"/>
    </contour>
    <contour>
      <point x="871" y="64" type="curve" smooth="yes"/>
      <point x="871" y="936" type="line" smooth="yes"/>
      <point x="871" y="966"/>
      <point x="853" y="984"/>
      <point x="822" y="984" type="curve" smooth="yes"/>
      <point x="178" y="984" type="line" smooth="yes"/>
      <point x="147" y="984"/>
      <point x="129" y="966"/>
      <point x="129" y="936" type="curve" smooth="yes"/>
      <point x="129" y="64" type="line" smooth="yes"/>
      <point x="129" y="34"/>
      <point x="147" y="16"/>
      <point x="178" y="16" type="curve" smooth="yes"/>
      <point x="822" y="16" type="line" smooth="yes"/>
      <point x="853" y="16"/>
      <point x="871" y="34"/>
    </contour>
    <contour>
      <point x="836" y="43" type="line"/>
      <point x="500" y="43" type="line"/>
      <point x="172" y="500" type="line"/>
      <point x="500" y="957" type="line"/>
      <point x="836" y="957" type="line"/>
      <point x="508" y="500" type="line"/>
    </contour>
  </outline>
</glyph>
<glyph name="I" format="1">
  <advance width="1000"/>
  <unicode hex="0049"/>
  <outline>
    <contour>
      <point x="988" y="500" type="curve" smooth="yes"/>
      <point x="988" y="489"/>
      <point x="983" y="479"/>
      <point x="972" y="468" type="curve" smooth="yes"/>
      <point x="533" y="29" type="line" smooth="yes"/>
      <point x="522" y="18"/>
      <point x="511" y="13"/>
      <point x="500" y="13" type="curve" smooth="yes"/>
      <point x="489" y="13"/>
      <point x="479" y="18"/>
      <point x="468" y="29" type="curve" smooth="yes"/>
      <point x="28" y="468" type="line" smooth="yes"/>
      <point x="17" y="479"/>
      <point x="12" y="489"/>
      <point x="12" y="500" type="curve" smooth="yes"/>
      <point x="12" y="511"/>
      <point x="17" y="522"/>
      <point x="28" y="533" type="curve" smooth="yes"/>
      <point x="467" y="972" type="line" smooth="yes"/>
      <point x="478" y="983"/>
      <point x="489" y="988"/>
      <point x="500" y="988" type="curve" smooth="yes"/>
      <point x="511" y="988"/>
      <point x="522" y="983"/>
      <point x="533" y="972" type="curve" smooth="yes"/>
      <point x="972" y="533" type="line" smooth="yes"/>
      <point x="983" y="522"/>
      <point x="988" y="511"/>
    </contour>
    <contour>
      <point x="985" y="500" type="curve" smooth="yes"/>
      <point x="985" y="510"/>
      <point x="980" y="521"/>
      <point x="970" y="531" type="curve" smooth="yes"/>
      <point x="531" y="970" type="line" smooth="yes"/>
      <point x="521" y="980"/>
      <point x="510" y="985"/>
      <point x="500" y="985" type="curve" smooth="yes"/>
      <point x="490" y="985"/>
      <point x="479" y="980"/>
      <point x="469" y="970" type="curve" smooth="yes"/>
      <point x="30" y="531" type="line" smooth="yes"/>
      <point x="20" y="521"/>
      <point x="15" y="510"/>
      <point x="15" y="500" type="curve" smooth="yes"/>
      <point x="15" y="490"/>
      <point x="20" y="480"/>
      <point x="30" y="470" type="curve" smooth="yes"/>
      <point x="470" y="31" type="line" smooth="yes"/>
      <point x="480" y="21"/>
      <point x="490" y="16"/>
      <point x="500" y="16" type="curve" smooth="yes"/>
      <point x="510" y="16"/>
      <point x="521" y="21"/>
      <point x="531" y="31" type="curve" smooth="yes"/>
      <point x="970" y="470" type="line" smooth="yes"/>
      <point x="980" y="480"/>
      <point x="985" y="490"/>
    </contour>
    <contour>
      <point x="973" y="500" type="curve" smooth="yes"/>
      <point x="973" y="492"/>
      <point x="970" y="485"/>
      <point x="962" y="477" type="curve" smooth="yes"/>
      <point x="523" y="38" type="line" smooth="yes"/>
      <point x="515" y="30"/>
      <point x="508" y="27"/>
      <point x="500" y="27" type="curve" smooth="yes"/>
      <point x="492" y="27"/>
      <point x="485" y="30"/>
      <point x="477" y="38" type="curve" smooth="yes"/>
      <point x="38" y="477" type="line" smooth="yes"/>
      <point x="30" y="485"/>
      <point x="27" y="492"/>
      <point x="27" y="500" type="curve" smooth="yes"/>
      <point x="27" y="508"/>
      <point x="30" y="515"/>
      <point x="38" y="523" type="curve" smooth="yes"/>
      <point x="477" y="962" type="line" smooth="yes"/>
      <point x="485" y="970"/>
      <point x="492" y="973"/>
      <point x="500" y="973" type="curve" smooth="yes"/>
      <point x="508" y="973"/>
      <point x="515" y="970"/>
      <point x="523" y="962" type="curve" smooth="yes"/>
      <point x="962" y="523" type="line" smooth="yes"/>
      <point x="970" y="515"/>
      <point x="973" y="508"/>
    </contour>
    <contour>
      <point x="956" y="500" type="curve" smooth="yes"/>
      <point x="956" y="504"/>
      <point x="954" y="507"/>
      <point x="950" y="511" type="curve" smooth="yes"/>
      <point x="511" y="950" type="line" smooth="yes"/>
      <point x="507" y="954"/>
      <point x="504" y="956"/>
      <point x="500" y="956" type="curve" smooth="yes"/>
      <point x="496" y="956"/>
      <point x="493" y="954"/>
      <point x="489" y="950" type="curve" smooth="yes"/>
      <point x="50" y="511" type="line" smooth="yes"/>
      <point x="46" y="507"/>
      <point x="44" y="504"/>
      <point x="44" y="500" type="curve" smooth="yes"/>
      <point x="44" y="496"/>
      <point x="46" y="493"/>
      <point x="50" y="489" type="curve" smooth="yes"/>
      <point x="489" y="50" type="line" smooth="yes"/>
      <point x="493" y="46"/>
      <point x="496" y="44"/>
      <point x="500" y="44" type="curve" smooth="yes"/>
      <point x="504" y="44"/>
      <point x="507" y="46"/>
      <point x="511" y="50" type="curve" smooth="yes"/>
      <point x="950" y="489" type="line" smooth="yes"/>
      <point x="954" y="493"/>
      <point x="956" y="496"/>
    </contour>
    <contour>
      <point x="699" y="259" type="line"/>
      <point x="589" y="259" type="line"/>
      <point x="589" y="314" type="line" smooth="yes"/>
      <point x="589" y="349"/>
      <point x="570" y="379"/>
      <point x="543" y="396" type="curve" smooth="yes"/>
      <point x="445" y="457" type="line" smooth="yes"/>
      <point x="386" y="494"/>
      <point x="347" y="560"/>
      <point x="347" y="633" type="curve" smooth="yes"/>
      <point x="347" y="664" type="line"/>
      <point x="287" y="645" type="line" smooth="yes"/>
      <point x="278" y="642"/>
      <point x="270" y="645"/>
      <point x="264" y="652" type="curve" smooth="yes"/>
      <point x="255" y="662"/>
      <point x="257" y="676"/>
      <point x="266" y="686" type="curve" smooth="yes"/>
      <point x="402" y="833" type="line"/>
      <point x="538" y="686" type="line" smooth="yes"/>
      <point x="547" y="676"/>
      <point x="549" y="662"/>
      <point x="540" y="652" type="curve" smooth="yes"/>
      <point x="534" y="645"/>
      <point x="526" y="642"/>
      <point x="517" y="645" type="curve" smooth="yes"/>
      <point x="457" y="664" type="line"/>
      <point x="457" y="633" type="line" smooth="yes"/>
      <point x="457" y="598"/>
      <point x="476" y="568"/>
      <point x="503" y="551" type="curve" smooth="yes"/>
      <point x="601" y="490" type="line" smooth="yes"/>
      <point x="660" y="453"/>
      <point x="699" y="387"/>
      <point x="699" y="314" type="curve" smooth="yes"/>
    </contour>
  </outline>
</glyph>
<glyph name="L" format="1">
  <advance width="1000"/>
  <unicode hex="004C"/>
  <outline>
    <contour>
      <point x="986" y="64" type="line" smooth="yes"/>
      <point x="986" y="33"/>
      <point x="967" y="13"/>
      <point x="934" y="13" type="curve" smooth="yes"/>
      <point x="66" y="13" type="line" smooth="yes"/>
      <point x="33" y="13"/>
      <point x="14" y="33"/>
      <point x="14" y="64" type="curve" smooth="yes"/>
      <point x="14" y="936" type="line" smooth="yes"/>
      <point x="14" y="967"/>
      <point x="33" y="987"/>
      <point x="66" y="987" type="curve" smooth="yes"/>
      <point x="934" y="987" type="line" smooth="yes"/>
      <point x="967" y="987"/>
      <point x="986" y="967"/>
      <point x="986" y="936" type="curve" smooth="yes"/>
    </contour>
    <contour>
      <point x="983" y="64" type="curve" smooth="yes"/>
      <point x="983" y="936" type="line" smooth="yes"/>
      <point x="983" y="966"/>
      <point x="965" y="984"/>
      <point x="934" y="984" type="curve" smooth="yes"/>
      <point x="66" y="984" type="line" smooth="yes"/>
      <point x="35" y="984"/>
      <point x="17" y="966"/>
      <point x="17" y="936" type="curve" smooth="yes"/>
      <point x="17" y="64" type="line" smooth="yes"/>
      <point x="17" y="34"/>
      <point x="35" y="16"/>
      <point x="66" y="16" type="curve" smooth="yes"/>
      <point x="934" y="16" type="line" smooth="yes"/>
      <point x="965" y="16"/>
      <point x="983" y="34"/>
    </contour>
    <contour>
      <point x="964" y="64" type="line" smooth="yes"/>
      <point x="964" y="46"/>
      <point x="952" y="35"/>
      <point x="934" y="35" type="curve" smooth="yes"/>
      <point x="66" y="35" type="line" smooth="yes"/>
      <point x="48" y="35"/>
      <point x="36" y="46"/>
      <point x="36" y="64" type="curve" smooth="yes"/>
      <point x="36" y="936" type="line" smooth="yes"/>
      <point x="36" y="954"/>
      <point x="48" y="965"/>
      <point x="66" y="965" type="curve" smooth="yes"/>
      <point x="934" y="965" type="line" smooth="yes"/>
      <point x="952" y="965"/>
      <point x="964" y="954"/>
      <point x="964" y="936" type="curve" smooth="yes"/>
    </contour>
    <contour>
      <point x="944" y="64" type="curve" smooth="yes"/>
      <point x="944" y="936" type="line" smooth="yes"/>
      <point x="944" y="942"/>
      <point x="940" y="945"/>
      <point x="934" y="945" type="curve" smooth="yes"/>
      <point x="66" y="945" type="line" smooth="yes"/>
      <point x="60" y="945"/>
      <point x="56" y="942"/>
      <point x="56" y="936" type="curve" smooth="yes"/>
      <point x="56" y="64" type="line" smooth="yes"/>
      <point x="56" y="58"/>
      <point x="60" y="55"/>
      <point x="66" y="55" type="curve" smooth="yes"/>
      <point x="934" y="55" type="line" smooth="yes"/>
      <point x="940" y="55"/>
      <point x="944" y="58"/>
    </contour>
    <contour>
      <point x="675" y="231" type="line"/>
      <point x="565" y="231" type="line"/>
      <point x="565" y="533" type="line" smooth="yes"/>
      <point x="565" y="545"/>
      <point x="554" y="556"/>
      <point x="542" y="556" type="curve" smooth="yes"/>
      <point x="408" y="556" type="line"/>
      <point x="427" y="498" type="line" smooth="yes"/>
      <point x="431" y="486"/>
      <point x="427" y="475"/>
      <point x="418" y="469" type="curve" smooth="yes"/>
      <point x="411" y="464"/>
      <point x="400" y="464"/>
      <point x="389" y="472" type="curve" smooth="yes"/>
      <point x="189" y="611" type="line"/>
      <point x="389" y="750" type="line" smooth="yes"/>
      <point x="400" y="758"/>
      <point x="411" y="758"/>
      <point x="418" y="753" type="curve" smooth="yes"/>
      <point x="427" y="747"/>
      <point x="431" y="736"/>
      <point x="427" y="724" type="curve" smooth="yes"/>
      <point x="408" y="666" type="line"/>
      <point x="594" y="666" type="line" smooth="yes"/>
      <point x="638" y="666"/>
      <point x="675" y="629"/>
      <point x="675" y="585" type="curve" smooth="yes"/>
    </contour>
  </outline>
</glyph>
<glyph name="N" format="1">
  <advance width="1000"/>
  <unicode hex="004E"/>
  <outline>
    <contour>
      <point x="988" y="419" type="line" smooth="yes"/>
      <point x="988" y="352"/>
      <point x="965" y="329"/>
      <point x="898" y="329" type="curve" smooth="yes"/>
      <point x="103" y="329" type="line" smooth="yes"/>
      <point x="36" y="329"/>
      <point x="13" y="352"/>
      <point x="13" y="419" type="curve" smooth="yes"/>
      <point x="13" y="581" type="line" smooth="yes"/>
      <point x="13" y="648"/>
      <point x="36" y="671"/>
      <point x="103" y="671" type="curve" smooth="yes"/>
      <point x="898" y="671" type="line" smooth="yes"/>
      <point x="965" y="671"/>
      <point x="988" y="648"/>
      <point x="988" y="581" type="curve" smooth="yes"/>
    </contour>
    <contour>
      <point x="985" y="419" type="curve" smooth="yes"/>
      <point x="985" y="581" type="line" smooth="yes"/>
      <point x="985" y="646"/>
      <point x="963" y="668"/>
      <point x="898" y="668" type="curve" smooth="yes"/>
      <point x="103" y="668" type="line" smooth="yes"/>
      <point x="38" y="668"/>
      <point x="16" y="646"/>
      <point x="16" y="581" type="curve" smooth="yes"/>
      <point x="16" y="419" type="line" smooth="yes"/>
      <point x="16" y="354"/>
      <point x="38" y="332"/>
      <point x="103" y="332" type="curve" smooth="yes"/>
      <point x="898" y="332" type="line" smooth="yes"/>
      <point x="963" y="332"/>
      <point x="985" y="354"/>
    </contour>
    <contour>
      <point x="966" y="419" type="line" smooth="yes"/>
      <point x="966" y="368"/>
      <point x="949" y="351"/>
      <point x="898" y="351" type="curve" smooth="yes"/>
      <point x="103" y="351" type="line" smooth="yes"/>
      <point x="52" y="351"/>
      <point x="35" y="368"/>
      <point x="35" y="419" type="curve" smooth="yes"/>
      <point x="35" y="581" type="line" smooth="yes"/>
      <point x="35" y="632"/>
      <point x="52" y="649"/>
      <point x="103" y="649" type="curve" smooth="yes"/>
      <point x="898" y="649" type="line" smooth="yes"/>
      <point x="949" y="649"/>
      <point x="966" y="632"/>
      <point x="966" y="581" type="curve" smooth="yes"/>
    </contour>
    <contour>
      <point x="912" y="433" type="line"/>
      <point x="912" y="567" type="line"/>
      <point x="289" y="567" type="line"/>
      <point x="300" y="600" type="line" smooth="yes"/>
      <point x="304" y="612"/>
      <point x="298" y="620"/>
      <point x="294" y="624" type="curve"/>
      <point x="285" y="630"/>
      <point x="276" y="630"/>
      <point x="266" y="623" type="curve" smooth="yes"/>
      <point x="88" y="500" type="line"/>
      <point x="266" y="377" type="line" smooth="yes"/>
      <point x="276" y="370"/>
      <point x="283" y="370"/>
      <point x="292" y="376" type="curve"/>
      <point x="296" y="380"/>
      <point x="304" y="387"/>
      <point x="300" y="400" type="curve" smooth="yes"/>
      <point x="289" y="433" type="line"/>
    </contour>
    <contour>
      <point x="873" y="553" type="line"/>
      <point x="840" y="491" type="line"/>
      <point x="840" y="445" type="line"/>
      <point x="824" y="445" type="line"/>
      <point x="824" y="490" type="line"/>
      <point x="791" y="553" type="line"/>
      <point x="809" y="553" type="line"/>
      <point x="832" y="505" type="line"/>
      <point x="856" y="553" type="line"/>
    </contour>
    <contour>
      <point x="793" y="445" type="line"/>
      <point x="776" y="445" type="line"/>
      <point x="768" y="472" type="line"/>
      <point x="735" y="472" type="line"/>
      <point x="728" y="445" type="line"/>
      <point x="711" y="445" type="line"/>
      <point x="743" y="553" type="line"/>
      <point x="760" y="553" type="line"/>
    </contour>
    <contour>
      <point x="706" y="553" type="line"/>
      <point x="686" y="445" type="line"/>
      <point x="672" y="445" type="line"/>
      <point x="656" y="521" type="line"/>
      <point x="639" y="445" type="line"/>
      <point x="625" y="445" type="line"/>
      <point x="604" y="553" type="line"/>
      <point x="620" y="553" type="line"/>
      <point x="634" y="477" type="line"/>
      <point x="650" y="553" type="line"/>
      <point x="662" y="553" type="line"/>
      <point x="678" y="477" type="line"/>
      <point x="691" y="553" type="line"/>
    </contour>
    <contour>
      <point x="549" y="446" type="line"/>
      <point x="487" y="446" type="line"/>
      <point x="487" y="553" type="line"/>
      <point x="547" y="553" type="line"/>
      <point x="547" y="538" type="line"/>
      <point x="503" y="538" type="line"/>
      <point x="503" y="510" type="line"/>
      <point x="530" y="510" type="line"/>
      <point x="530" y="495" type="line"/>
      <point x="503" y="495" type="line"/>
      <point x="503" y="461" type="line"/>
      <point x="549" y="461" type="line"/>
    </contour>
    <contour>
      <point x="467" y="446" type="line"/>
      <point x="452" y="446" type="line"/>
      <point x="411" y="523" type="line"/>
      <point x="411" y="446" type="line"/>
      <point x="395" y="446" type="line"/>
      <point x="395" y="553" type="line"/>
      <point x="411" y="553" type="line"/>
      <point x="451" y="479" type="line"/>
      <point x="451" y="553" type="line"/>
      <point x="467" y="553" type="line"/>
    </contour>
    <contour>
      <point x="383" y="499" type="curve" smooth="yes"/>
      <point x="383" y="468"/>
      <point x="369" y="444"/>
      <point x="344" y="444" type="curve" smooth="yes"/>
      <point x="319" y="444"/>
      <point x="305" y="468"/>
      <point x="305" y="499" type="curve" smooth="yes"/>
      <point x="305" y="531"/>
      <point x="319" y="555"/>
      <point x="344" y="555" type="curve" smooth="yes"/>
      <point x="369" y="555"/>
      <point x="383" y="531"/>
    </contour>
    <contour>
      <point x="764" y="487" type="line"/>
      <point x="752" y="531" type="line"/>
      <point x="740" y="487" type="line"/>
    </contour>
    <contour>
      <point x="367" y="499" type="curve" smooth="yes"/>
      <point x="367" y="521"/>
      <point x="360" y="540"/>
      <point x="344" y="540" type="curve" smooth="yes"/>
      <point x="328" y="540"/>
      <point x="321" y="521"/>
      <point x="321" y="499" type="curve" smooth="yes"/>
      <point x="321" y="477"/>
      <point x="328" y="459"/>
      <point x="344" y="459" type="curve" smooth="yes"/>
      <point x="360" y="459"/>
      <point x="367" y="477"/>
    </contour>
  </outline>
</glyph>
<glyph name="backslash" format="1">
  <advance width="1000"/>
  <unicode hex="005C"/>
  <outline>
    <contour>
      <point x="988" y="500" type="curve" smooth="yes"/>
      <point x="988" y="489"/>
      <point x="983" y="479"/>
      <point x="972" y="468" type="curve" smooth="yes"/>
      <point x="532" y="29" type="line" smooth="yes"/>
      <point x="521" y="18"/>
      <point x="511" y="13"/>
      <point x="500" y="13" type="curve" smooth="yes"/>
      <point x="489" y="13"/>
      <point x="478" y="18"/>
      <point x="467" y="29" type="curve" smooth="yes"/>
      <point x="28" y="468" type="line" smooth="yes"/>
      <point x="17" y="479"/>
      <point x="12" y="489"/>
      <point x="12" y="500" type="curve" smooth="yes"/>
      <point x="12" y="511"/>
      <point x="17" y="522"/>
      <point x="28" y="533" type="curve" smooth="yes"/>
      <point x="467" y="972" type="line" smooth="yes"/>
      <point x="478" y="983"/>
      <point x="489" y="988"/>
      <point x="500" y="988" type="curve" smooth="yes"/>
      <point x="511" y="988"/>
      <point x="522" y="983"/>
      <point x="533" y="972" type="curve" smooth="yes"/>
      <point x="972" y="533" type="line" smooth="yes"/>
      <point x="983" y="522"/>
      <point x="988" y="511"/>
    </contour>
    <contour>
      <point x="985" y="500" type="curve" smooth="yes"/>
      <point x="985" y="510"/>
      <point x="980" y="521"/>
      <point x="970" y="531" type="curve" smooth="yes"/>
      <point x="531" y="970" type="line" smooth="yes"/>
      <point x="521" y="980"/>
      <point x="510" y="985"/>
      <point x="500" y="985" type="curve" smooth="yes"/>
      <point x="490" y="985"/>
      <point x="479" y="980"/>
      <point x="469" y="970" type="curve" smooth="yes"/>
      <point x="30" y="531" type="line" smooth="yes"/>
      <point x="20" y="521"/>
      <point x="15" y="510"/>
      <point x="15" y="500" type="curve" smooth="yes"/>
      <point x="15" y="490"/>
      <point x="20" y="480"/>
      <point x="30" y="470" type="curve" smooth="yes"/>
      <point x="469" y="31" type="line" smooth="yes"/>
      <point x="479" y="21"/>
      <point x="490" y="16"/>
      <point x="500" y="16" type="curve" smooth="yes"/>
      <point x="510" y="16"/>
      <point x="520" y="21"/>
      <point x="530" y="31" type="curve" smooth="yes"/>
      <point x="970" y="470" type="line" smooth="yes"/>
      <point x="980" y="480"/>
      <point x="985" y="490"/>
    </contour>
    <contour>
      <point x="973" y="500" type="curve" smooth="yes"/>
      <point x="973" y="492"/>
      <point x="970" y="485"/>
      <point x="962" y="477" type="curve" smooth="yes"/>
      <point x="523" y="38" type="line" smooth="yes"/>
      <point x="515" y="30"/>
      <point x="508" y="27"/>
      <point x="500" y="27" type="curve" smooth="yes"/>
      <point x="492" y="27"/>
      <point x="485" y="30"/>
      <point x="477" y="38" type="curve" smooth="yes"/>
      <point x="38" y="477" type="line" smooth="yes"/>
      <point x="30" y="485"/>
      <point x="27" y="492"/>
      <point x="27" y="500" type="curve" smooth="yes"/>
      <point x="27" y="508"/>
      <point x="30" y="515"/>
      <point x="38" y="523" type="curve" smooth="yes"/>
      <point x="477" y="962" type="line" smooth="yes"/>
      <point x="485" y="970"/>
      <point x="492" y="973"/>
      <point x="500" y="973" type="curve" smooth="yes"/>
      <point x="508" y="973"/>
      <point x="515" y="970"/>
      <point x="523" y="962" type="curve" smooth="yes"/>
      <point x="962" y="523" type="line" smooth="yes"/>
      <point x="970" y="515"/>
      <point x="973" y="508"/>
    </contour>
    <contour>
      <point x="956" y="500" type="curve" smooth="yes"/>
      <point x="956" y="504"/>
      <point x="954" y="507"/>
      <point x="950" y="511" type="curve" smooth="yes"/>
      <point x="511" y="950" type="line" smooth="yes"/>
      <point x="507" y="954"/>
      <point x="504" y="956"/>
      <point x="500" y="956" type="curve" smooth="yes"/>
      <point x="496" y="956"/>
      <point x="493" y="954"/>
      <point x="489" y="950" type="curve" smooth="yes"/>
      <point x="50" y="511" type="line" smooth="yes"/>
      <point x="46" y="507"/>
      <point x="44" y="504"/>
      <point x="44" y="500" type="curve" smooth="yes"/>
      <point x="44" y="496"/>
      <point x="46" y="493"/>
      <point x="50" y="489" type="curve" smooth="yes"/>
      <point x="489" y="50" type="line" smooth="yes"/>
      <point x="493" y="46"/>
      <point x="496" y="44"/>
      <point x="500" y="44" type="curve" smooth="yes"/>
      <point x="504" y="44"/>
      <point x="507" y="46"/>
      <point x="511" y="50" type="curve" smooth="yes"/>
      <point x="950" y="489" type="line" smooth="yes"/>
      <point x="954" y="493"/>
      <point x="956" y="496"/>
    </contour>
    <contour>
      <point x="574" y="801" type="line"/>
      <point x="574" y="780"/>
      <point x="572" y="709"/>
      <point x="554" y="641" type="curve" smooth="yes"/>
      <point x="542" y="595"/>
      <point x="528" y="556"/>
      <point x="500" y="556" type="curve" smooth="yes"/>
      <point x="472" y="556"/>
      <point x="458" y="595"/>
      <point x="446" y="641" type="curve" smooth="yes"/>
      <point x="428" y="709"/>
      <point x="426" y="780"/>
      <point x="426" y="801" type="curve"/>
      <point x="500" y="801" type="line"/>
    </contour>
    <contour>
      <point x="789" y="569" type="curve" smooth="yes"/>
      <point x="784" y="564"/>
      <point x="778" y="562"/>
      <point x="770" y="564" type="curve" smooth="yes"/>
      <point x="725" y="578" type="line"/>
      <point x="725" y="517" type="line" smooth="yes"/>
      <point x="725" y="462"/>
      <point x="697" y="422"/>
      <point x="669" y="383" type="curve" smooth="yes"/>
      <point x="651" y="358"/>
      <point x="632" y="333"/>
      <point x="632" y="298" type="curve" smooth="yes"/>
      <point x="632" y="234" type="line"/>
      <point x="548" y="234" type="line"/>
      <point x="548" y="298" type="line" smooth="yes"/>
      <point x="548" y="353"/>
      <point x="574" y="392"/>
      <point x="602" y="431" type="curve" smooth="yes"/>
      <point x="620" y="456"/>
      <point x="641" y="482"/>
      <point x="641" y="517" type="curve" smooth="yes"/>
      <point x="641" y="578" type="line"/>
      <point x="596" y="564" type="line" smooth="yes"/>
      <point x="588" y="562"/>
      <point x="582" y="564"/>
      <point x="577" y="569" type="curve" smooth="yes"/>
      <point x="571" y="576"/>
      <point x="573" y="588"/>
      <point x="579" y="595" type="curve" smooth="yes"/>
      <point x="683" y="707" type="line"/>
      <point x="787" y="595" type="line" smooth="yes"/>
      <point x="793" y="588"/>
      <point x="795" y="576"/>
    </contour>
    <contour>
      <point x="504" y="338" type="curve" smooth="yes"/>
      <point x="510" y="331"/>
      <point x="508" y="319"/>
      <point x="502" y="312" type="curve" smooth="yes"/>
      <point x="398" y="200" type="line"/>
      <point x="294" y="312" type="line" smooth="yes"/>
      <point x="288" y="319"/>
      <point x="286" y="331"/>
      <point x="292" y="338" type="curve" smooth="yes"/>
      <point x="297" y="343"/>
      <point x="303" y="345"/>
      <point x="311" y="343" type="curve" smooth="yes"/>
      <point x="356" y="329" type="line"/>
      <point x="356" y="390" type="line" smooth="yes"/>
      <point x="356" y="425"/>
      <point x="335" y="451"/>
      <point x="317" y="476" type="curve" smooth="yes"/>
      <point x="289" y="515"/>
      <point x="263" y="554"/>
      <point x="263" y="609" type="curve" smooth="yes"/>
      <point x="263" y="673" type="line"/>
      <point x="347" y="673" type="line"/>
      <point x="347" y="609" type="line" smooth="yes"/>
      <point x="347" y="574"/>
      <point x="366" y="549"/>
      <point x="384" y="524" type="curve" smooth="yes"/>
      <point x="412" y="485"/>
      <point x="440" y="445"/>
      <point x="440" y="390" type="curve" smooth="yes"/>
      <point x="440" y="329" type="line"/>
      <point x="485" y="343" type="line" smooth="yes"/>
      <point x="493" y="345"/>
      <point x="499" y="343"/>
    </contour>
  </outline>
</glyph>
<glyph name="bracketright" format="1">
  <advance width="1000"/>
  <unicode hex="005D"/>
  <outline>
    <contour>
      <point x="988" y="500" type="curve" smooth="yes"/>
      <point x="988" y="489"/>
      <point x="983" y="479"/>
      <point x="972" y="468" type="curve" smooth="yes"/>
      <point x="532" y="29" type="line" smooth="yes"/>
      <point x="521" y="18"/>
      <point x="511" y="13"/>
      <point x="500" y="13" type="curve" smooth="yes"/>
      <point x="489" y="13"/>
      <point x="478" y="18"/>
      <point x="467" y="29" type="curve" smooth="yes"/>
      <point x="28" y="468" type="line" smooth="yes"/>
      <point x="17" y="479"/>
      <point x="12" y="489"/>
      <point x="12" y="500" type="curve" smooth="yes"/>
      <point x="12" y="511"/>
      <point x="17" y="522"/>
      <point x="28" y="533" type="curve" smooth="yes"/>
      <point x="467" y="972" type="line" smooth="yes"/>
      <point x="478" y="983"/>
      <point x="489" y="988"/>
      <point x="500" y="988" type="curve" smooth="yes"/>
      <point x="511" y="988"/>
      <point x="522" y="983"/>
      <point x="533" y="972" type="curve" smooth="yes"/>
      <point x="972" y="533" type="line" smooth="yes"/>
      <point x="983" y="522"/>
      <point x="988" y="511"/>
    </contour>
    <contour>
      <point x="985" y="500" type="curve" smooth="yes"/>
      <point x="985" y="510"/>
      <point x="980" y="521"/>
      <point x="970" y="531" type="curve" smooth="yes"/>
      <point x="531" y="970" type="line" smooth="yes"/>
      <point x="521" y="980"/>
      <point x="510" y="985"/>
      <point x="500" y="985" type="curve" smooth="yes"/>
      <point x="490" y="985"/>
      <point x="479" y="980"/>
      <point x="469" y="970" type="curve" smooth="yes"/>
      <point x="30" y="531" type="line" smooth="yes"/>
      <point x="20" y="521"/>
      <point x="15" y="510"/>
      <point x="15" y="500" type="curve" smooth="yes"/>
      <point x="15" y="490"/>
      <point x="20" y="480"/>
      <point x="30" y="470" type="curve" smooth="yes"/>
      <point x="469" y="31" type="line" smooth="yes"/>
      <point x="479" y="21"/>
      <point x="490" y="16"/>
      <point x="500" y="16" type="curve" smooth="yes"/>
      <point x="510" y="16"/>
      <point x="520" y="21"/>
      <point x="530" y="31" type="curve" smooth="yes"/>
      <point x="970" y="470" type="line" smooth="yes"/>
      <point x="980" y="480"/>
      <point x="985" y="490"/>
    </contour>
    <contour>
      <point x="973" y="500" type="curve" smooth="yes"/>
      <point x="973" y="492"/>
      <point x="970" y="485"/>
      <point x="962" y="477" type="curve" smooth="yes"/>
      <point x="523" y="38" type="line" smooth="yes"/>
      <point x="515" y="30"/>
      <point x="508" y="27"/>
      <point x="500" y="27" type="curve" smooth="yes"/>
      <point x="492" y="27"/>
      <point x="485" y="30"/>
      <point x="477" y="38" type="curve" smooth="yes"/>
      <point x="38" y="477" type="line" smooth="yes"/>
      <point x="30" y="485"/>
      <point x="27" y="492"/>
      <point x="27" y="500" type="curve" smooth="yes"/>
      <point x="27" y="508"/>
      <point x="30" y="515"/>
      <point x="38" y="523" type="curve" smooth="yes"/>
      <point x="477" y="962" type="line" smooth="yes"/>
      <point x="485" y="970"/>
      <point x="492" y="973"/>
      <point x="500" y="973" type="curve" smooth="yes"/>
      <point x="508" y="973"/>
      <point x="515" y="970"/>
      <point x="523" y="962" type="curve" smooth="yes"/>
      <point x="962" y="523" type="line" smooth="yes"/>
      <point x="970" y="515"/>
      <point x="973" y="508"/>
    </contour>
    <contour>
      <point x="956" y="500" type="curve" smooth="yes"/>
      <point x="956" y="504"/>
      <point x="954" y="507"/>
      <point x="950" y="511" type="curve" smooth="yes"/>
      <point x="511" y="950" type="line" smooth="yes"/>
      <point x="507" y="954"/>
      <point x="504" y="956"/>
      <point x="500" y="956" type="curve" smooth="yes"/>
      <point x="496" y="956"/>
      <point x="493" y="954"/>
      <point x="489" y="950" type="curve" smooth="yes"/>
      <point x="50" y="511" type="line" smooth="yes"/>
      <point x="46" y="507"/>
      <point x="44" y="504"/>
      <point x="44" y="500" type="curve" smooth="yes"/>
      <point x="44" y="496"/>
      <point x="46" y="493"/>
      <point x="50" y="489" type="curve" smooth="yes"/>
      <point x="489" y="50" type="line" smooth="yes"/>
      <point x="493" y="46"/>
      <point x="496" y="44"/>
      <point x="500" y="44" type="curve" smooth="yes"/>
      <point x="504" y="44"/>
      <point x="507" y="46"/>
      <point x="511" y="50" type="curve" smooth="yes"/>
      <point x="950" y="489" type="line" smooth="yes"/>
      <point x="954" y="493"/>
      <point x="956" y="496"/>
    </contour>
    <contour>
      <point x="670" y="679" type="curve"/>
      <point x="665" y="673"/>
      <point x="658" y="670"/>
      <point x="647" y="673" type="curve" smooth="yes"/>
      <point x="595" y="688" type="line"/>
      <point x="595" y="660" type="line" smooth="yes"/>
      <point x="595" y="614"/>
      <point x="569" y="570"/>
      <point x="526" y="550" type="curve" smooth="yes"/>
      <point x="515" y="545"/>
      <point x="503" y="542"/>
      <point x="491" y="539" type="curve" smooth="yes"/>
      <point x="477" y="536"/>
      <point x="465" y="527"/>
      <point x="465" y="511" type="curve" smooth="yes"/>
      <point x="465" y="494"/>
      <point x="480" y="487"/>
      <point x="491" y="483" type="curve" smooth="yes"/>
      <point x="512" y="475"/>
      <point x="528" y="472"/>
      <point x="560" y="458" type="curve" smooth="yes"/>
      <point x="627" y="429"/>
      <point x="649" y="347"/>
      <point x="616" y="284" type="curve" smooth="yes"/>
      <point x="604" y="261"/>
      <point x="577" y="239"/>
      <point x="565" y="232" type="curve" smooth="yes"/>
      <point x="553" y="225"/>
      <point x="547" y="215"/>
      <point x="547" y="200" type="curve" smooth="yes"/>
      <point x="547" y="161" type="line"/>
      <point x="450" y="161" type="line"/>
      <point x="450" y="213" type="line" smooth="yes"/>
      <point x="450" y="254"/>
      <point x="468" y="287"/>
      <point x="498" y="309" type="curve" smooth="yes"/>
      <point x="502" y="312"/>
      <point x="510" y="317"/>
      <point x="514" y="319" type="curve" smooth="yes"/>
      <point x="530" y="326"/>
      <point x="533" y="334"/>
      <point x="533" y="344" type="curve" smooth="yes"/>
      <point x="533" y="354"/>
      <point x="529" y="365"/>
      <point x="514" y="369" type="curve" smooth="yes"/>
      <point x="501" y="373"/>
      <point x="460" y="381"/>
      <point x="441" y="391" type="curve" smooth="yes"/>
      <point x="409" y="408"/>
      <point x="391" y="423"/>
      <point x="375" y="455" type="curve" smooth="yes"/>
      <point x="344" y="518"/>
      <point x="369" y="594"/>
      <point x="434" y="626" type="curve" smooth="yes"/>
      <point x="446" y="632"/>
      <point x="461" y="636"/>
      <point x="475" y="638" type="curve" smooth="yes"/>
      <point x="487" y="640"/>
      <point x="493" y="646"/>
      <point x="493" y="656" type="curve" smooth="yes"/>
      <point x="493" y="666"/>
      <point x="493" y="688"/>
      <point x="493" y="688" type="curve"/>
      <point x="441" y="673" type="line" smooth="yes"/>
      <point x="430" y="670"/>
      <point x="423" y="673"/>
      <point x="418" y="679" type="curve"/>
      <point x="411" y="685"/>
      <point x="411" y="695"/>
      <point x="420" y="708" type="curve" smooth="yes"/>
      <point x="544" y="887" type="line"/>
      <point x="668" y="708" type="line" smooth="yes"/>
      <point x="677" y="695"/>
      <point x="677" y="685"/>
    </contour>
  </outline>
</glyph>
<glyph name="underscore" format="1">
  <advance width="1000"/>
  <unicode hex="005F"/>
  <outline>
    <contour>
      <point x="987" y="306" type="line" smooth="yes"/>
      <point x="987" y="275"/>
      <point x="968" y="255"/>
      <point x="935" y="255" type="curve" smooth="yes"/>
      <point x="65" y="255" type="line" smooth="yes"/>
      <point x="32" y="255"/>
      <point x="13" y="275"/>
      <point x="13" y="306" type="curve" smooth="yes"/>
      <point x="13" y="694" type="line" smooth="yes"/>
      <point x="13" y="725"/>
      <point x="32" y="745"/>
      <point x="65" y="745" type="curve" smooth="yes"/>
      <point x="935" y="745" type="line" smooth="yes"/>
      <point x="968" y="745"/>
      <point x="987" y="725"/>
      <point x="987" y="694" type="curve" smooth="yes"/>
    </contour>
    <contour>
      <point x="984" y="306" type="curve" smooth="yes"/>
      <point x="984" y="694" type="line" smooth="yes"/>
      <point x="984" y="724"/>
      <point x="966" y="742"/>
      <point x="935" y="742" type="curve" smooth="yes"/>
      <point x="65" y="742" type="line" smooth="yes"/>
      <point x="34" y="742"/>
      <point x="16" y="724"/>
      <point x="16" y="694" type="curve" smooth="yes"/>
      <point x="16" y="306" type="line" smooth="yes"/>
      <point x="16" y="276"/>
      <point x="34" y="258"/>
      <point x="65" y="258" type="curve" smooth="yes"/>
      <point x="935" y="258" type="line" smooth="yes"/>
      <point x="966" y="258"/>
      <point x="984" y="276"/>
    </contour>
    <contour>
      <point x="965" y="306" type="line" smooth="yes"/>
      <point x="965" y="288"/>
      <point x="953" y="277"/>
      <point x="935" y="277" type="curve" smooth="yes"/>
      <point x="65" y="277" type="line" smooth="yes"/>
      <point x="47" y="277"/>
      <point x="35" y="288"/>
      <point x="35" y="306" type="curve" smooth="yes"/>
      <point x="35" y="694" type="line" smooth="yes"/>
      <point x="35" y="712"/>
      <point x="47" y="723"/>
      <point x="65" y="723" type="curve" smooth="yes"/>
      <point x="935" y="723" type="line" smooth="yes"/>
      <point x="953" y="723"/>
      <point x="965" y="712"/>
      <point x="965" y="694" type="curve" smooth="yes"/>
    </contour>
    <contour>
      <point x="945" y="306" type="curve" smooth="yes"/>
      <point x="945" y="694" type="line" smooth="yes"/>
      <point x="945" y="700"/>
      <point x="941" y="703"/>
      <point x="935" y="703" type="curve" smooth="yes"/>
      <point x="65" y="703" type="line" smooth="yes"/>
      <point x="59" y="703"/>
      <point x="55" y="700"/>
      <point x="55" y="694" type="curve" smooth="yes"/>
      <point x="55" y="306" type="line" smooth="yes"/>
      <point x="55" y="300"/>
      <point x="59" y="297"/>
      <point x="65" y="297" type="curve" smooth="yes"/>
      <point x="935" y="297" type="line" smooth="yes"/>
      <point x="941" y="297"/>
      <point x="945" y="300"/>
    </contour>
    <contour>
      <point x="908" y="372" type="line"/>
      <point x="873" y="372" type="line"/>
      <point x="873" y="485" type="line"/>
      <point x="805" y="485" type="line"/>
      <point x="805" y="372" type="line"/>
      <point x="770" y="372" type="line"/>
      <point x="770" y="617" type="line"/>
      <point x="805" y="617" type="line"/>
      <point x="805" y="519" type="line"/>
      <point x="873" y="519" type="line"/>
      <point x="873" y="617" type="line"/>
      <point x="908" y="617" type="line"/>
    </contour>
    <contour>
      <point x="736" y="583" type="line"/>
      <point x="691" y="583" type="line"/>
      <point x="691" y="372" type="line"/>
      <point x="657" y="372" type="line"/>
      <point x="657" y="583" type="line"/>
      <point x="612" y="583" type="line"/>
      <point x="612" y="617" type="line"/>
      <point x="736" y="617" type="line"/>
    </contour>
    <contour>
      <point x="588" y="372" type="line"/>
      <point x="549" y="372" type="line"/>
      <point x="512" y="479" type="line"/>
      <point x="485" y="479" type="line"/>
      <point x="485" y="372" type="line"/>
      <point x="450" y="372" type="line"/>
      <point x="450" y="617" type="line"/>
      <point x="519" y="617" type="line" smooth="yes"/>
      <point x="555" y="617"/>
      <point x="587" y="598"/>
      <point x="587" y="549" type="curve" smooth="yes"/>
      <point x="587" y="514"/>
      <point x="572" y="494"/>
      <point x="549" y="485" type="curve"/>
    </contour>
    <contour>
      <point x="409" y="494" type="curve" smooth="yes"/>
      <point x="409" y="423"/>
      <point x="386" y="368"/>
      <point x="335" y="368" type="curve" smooth="yes"/>
      <point x="283" y="368"/>
      <point x="261" y="423"/>
      <point x="261" y="494" type="curve" smooth="yes"/>
      <point x="261" y="565"/>
      <point x="283" y="620"/>
      <point x="335" y="620" type="curve" smooth="yes"/>
      <point x="387" y="620"/>
      <point x="409" y="565"/>
    </contour>
    <contour>
      <point x="227" y="372" type="line"/>
      <point x="199" y="372" type="line"/>
      <point x="124" y="543" type="line"/>
      <point x="124" y="372" type="line"/>
      <point x="90" y="372" type="line"/>
      <point x="90" y="617" type="line"/>
      <point x="124" y="617" type="line"/>
      <point x="194" y="462" type="line"/>
      <point x="194" y="617" type="line"/>
      <point x="227" y="617" type="line"/>
    </contour>
    <contour>
      <point x="552" y="548" type="curve" smooth="yes"/>
      <point x="552" y="574"/>
      <point x="537" y="584"/>
      <point x="516" y="584" type="curve" smooth="yes"/>
      <point x="485" y="584" type="line"/>
      <point x="485" y="512" type="line"/>
      <point x="516" y="512" type="line" smooth="yes"/>
      <point x="538" y="512"/>
      <point x="552" y="523"/>
    </contour>
    <contour>
      <point x="374" y="494" type="curve" smooth="yes"/>
      <point x="374" y="539"/>
      <point x="364" y="586"/>
      <point x="334" y="586" type="curve" smooth="yes"/>
      <point x="305" y="586"/>
      <point x="296" y="540"/>
      <point x="296" y="494" type="curve" smooth="yes"/>
      <point x="296" y="449"/>
      <point x="306" y="402"/>
      <point x="336" y="402" type="curve" smooth="yes"/>
      <point x="365" y="402"/>
      <point x="374" y="448"/>
    </contour>
  </outline>
</glyph>
<glyph name="grave" format="1">
  <advance width="1000"/>
  <unicode hex="0060"/>
  <outline>
    <contour>
      <point x="989" y="595" type="curve" smooth="yes"/>
      <point x="989" y="200"/>
      <point x="646" y="25"/>
      <point x="500" y="5" type="curve"/>
      <point x="354" y="25"/>
      <point x="11" y="200"/>
      <point x="11" y="595" type="curve" smooth="yes"/>
      <point x="11" y="766"/>
      <point x="93" y="928"/>
      <point x="148" y="985" type="curve"/>
      <point x="212" y="960"/>
      <point x="265" y="955"/>
      <point x="323" y="955" type="curve" smooth="yes"/>
      <point x="382" y="955"/>
      <point x="437" y="960"/>
      <point x="500" y="984" type="curve"/>
      <point x="563" y="960"/>
      <point x="618" y="955"/>
      <point x="677" y="955" type="curve" smooth="yes"/>
      <point x="735" y="955"/>
      <point x="788" y="960"/>
      <point x="853" y="985" type="curve"/>
      <point x="907" y="928"/>
      <point x="989" y="766"/>
    </contour>
    <contour>
      <point x="986" y="595" type="curve" smooth="yes"/>
      <point x="986" y="765"/>
      <point x="905" y="927"/>
      <point x="852" y="981" type="curve"/>
      <point x="790" y="957"/>
      <point x="735" y="952"/>
      <point x="677" y="952" type="curve" smooth="yes"/>
      <point x="618" y="952"/>
      <point x="563" y="957"/>
      <point x="500" y="981" type="curve"/>
      <point x="437" y="957"/>
      <point x="382" y="952"/>
      <point x="323" y="952" type="curve" smooth="yes"/>
      <point x="265" y="952"/>
      <point x="211" y="958"/>
      <point x="149" y="982" type="curve"/>
      <point x="96" y="928"/>
      <point x="14" y="765"/>
      <point x="14" y="595" type="curve" smooth="yes"/>
      <point x="14" y="202"/>
      <point x="355" y="28"/>
      <point x="500" y="8" type="curve"/>
      <point x="645" y="28"/>
      <point x="986" y="202"/>
    </contour>
    <contour>
      <point x="965" y="595" type="curve" smooth="yes"/>
      <point x="965" y="220"/>
      <point x="642" y="50"/>
      <point x="500" y="29" type="curve"/>
      <point x="358" y="50"/>
      <point x="35" y="220"/>
      <point x="35" y="595" type="curve" smooth="yes"/>
      <point x="35" y="651"/>
      <point x="44" y="705"/>
      <point x="57" y="755" type="curve"/>
      <point x="943" y="755" type="line"/>
      <point x="956" y="705"/>
      <point x="965" y="651"/>
    </contour>
  </outline>
</glyph>
